{
copyright = "Copyright (c) 2015, Impallari Type (www.impallari.com), with Reserved Font Name Libre Franklin.";
customParameters = (
{
name = openTypeOS2Type;
value = (
);
},
{
name = licenseURL;
value = "http://scripts.sil.org/OFL";
},
{
name = license;
value = "This Font Software is licensed under the SIL Open Font License, Version 1.1. This license is available with a FAQ at: http://scripts.sil.org/OFL";
},
{
name = trademark;
value = "Libre Franklin is a trademark of Impallari Type.";
},
{
name = description;
value = "Libre Franklin is an ATF Franklin Gothic Revival";
},
{
name = vendorID;
value = IMPA;
}
);
date = "2015-06-11 16:29:16 +0000";
designer = "Pablo Impallari, Rodrigo Fuenzalida";
designerURL = "http://www.impallari.com/";
familyName = "Libre Franklin";
featurePrefixes = (
{
automatic = 1;
code = "languagesystem DFLT dflt;\012";
name = Languagesystems;
}
);
features = (
{
automatic = 1;
code = "sub [zero one two three four five six seven eight nine] [A a]' by ordfeminine;\012sub [zero one two three four five six seven eight nine] [O o]' by ordmasculine;\012sub N o period by numero;\012";
name = ordn;
},
{
automatic = 1;
code = "sub f f l by f_f_l;\012sub f f i by f_f_i;\012sub f i by fi;\012sub f f by f_f;\012sub f l by fl;\012";
name = liga;
}
);
fontMaster = (
{
alignmentZones = (
"{847, 10}",
"{742, 10}",
"{530, 10}",
"{0, -10}",
"{-165, -10}"
);
ascender = 847;
capHeight = 742;
customParameters = (
{
name = typoAscender;
value = 964;
},
{
name = typoDescender;
value = "-286";
},
{
name = typoLineGap;
value = 0;
},
{
name = winAscent;
value = 964;
},
{
name = winDescent;
value = "-286";
}
);
descender = -165;
guideLines = (
{
position = "{-40, 964}";
},
{
position = "{-40, -286}";
},
{
position = "{640, 88}";
showMeasurement = 1;
},
{
angle = 90;
position = "{39, -107}";
showMeasurement = 1;
}
);
id = "258ED206-D907-4350-8EBA-CBDDA1C16BF7";
xHeight = 530;
}
);
glyphs = (
{
glyphname = A;
lastChange = "2015-06-11 13:01:42 +0000";
layers = (
{
background = {
paths = (
{
closed = 1;
nodes = (
"446 742 LINE SMOOTH",
"463 742 OFFCURVE",
"476 731 OFFCURVE",
"481 715 CURVE SMOOTH",
"713 34 LINE SMOOTH",
"717 20 OFFCURVE",
"714 0 OFFCURVE",
"699 0 CURVE SMOOTH",
"506 0 LINE SMOOTH",
"496 0 OFFCURVE",
"487 4 OFFCURVE",
"484 17 CURVE SMOOTH",
"448 141 LINE SMOOTH",
"446 148 OFFCURVE",
"443 153 OFFCURVE",
"433 153 CURVE SMOOTH",
"232 153 LINE SMOOTH",
"224 153 OFFCURVE",
"219 149 OFFCURVE",
"217 142 CURVE SMOOTH",
"179 15 LINE SMOOTH",
"177 7 OFFCURVE",
"169 0 OFFCURVE",
"155 0 CURVE SMOOTH",
"3 0 LINE SMOOTH",
"-12 0 OFFCURVE",
"-19 15 OFFCURVE",
"-12 37 CURVE SMOOTH",
"222 719 LINE SMOOTH",
"227 735 OFFCURVE",
"234 742 OFFCURVE",
"251 742 CURVE SMOOTH"
);
},
{
closed = 1;
nodes = (
"337 505 LINE SMOOTH",
"335 512 OFFCURVE",
"329 512 OFFCURVE",
"326 505 CURVE SMOOTH",
"270 335 LINE SMOOTH",
"266 322 OFFCURVE",
"268 314 OFFCURVE",
"280 314 CURVE SMOOTH",
"383 314 LINE SMOOTH",
"394 314 OFFCURVE",
"396 321 OFFCURVE",
"392 334 CURVE SMOOTH"
);
}
);
};
layerId = "258ED206-D907-4350-8EBA-CBDDA1C16BF7";
name = Regular;
paths = (
{
closed = 1;
nodes = (
"457 742 LINE SMOOTH",
"474 742 OFFCURVE",
"487 731 OFFCURVE",
"492 715 CURVE SMOOTH",
"724 34 LINE SMOOTH",
"729 20 OFFCURVE",
"725 0 OFFCURVE",
"710 0 CURVE SMOOTH",
"514 0 LINE SMOOTH",
"504 0 OFFCURVE",
"496 4 OFFCURVE",
"492 17 CURVE SMOOTH",
"456 132 LINE SMOOTH",
"453 139 OFFCURVE",
"451 144 OFFCURVE",
"441 144 CURVE SMOOTH",
"240 144 LINE SMOOTH",
"232 144 OFFCURVE",
"227 140 OFFCURVE",
"225 133 CURVE SMOOTH",
"187 15 LINE SMOOTH",
"184 7 OFFCURVE",
"177 0 OFFCURVE",
"163 0 CURVE SMOOTH",
"11 0 LINE SMOOTH",
"-4 0 OFFCURVE",
"-12 15 OFFCURVE",
"-4 37 CURVE SMOOTH",
"230 719 LINE SMOOTH",
"235 735 OFFCURVE",
"242 742 OFFCURVE",
"259 742 CURVE SMOOTH"
);
},
{
closed = 1;
nodes = (
"345 505 LINE SMOOTH",
"342 512 OFFCURVE",
"336 512 OFFCURVE",
"334 505 CURVE SMOOTH",
"278 335 LINE SMOOTH",
"273 322 OFFCURVE",
"276 314 OFFCURVE",
"288 314 CURVE SMOOTH",
"391 314 LINE SMOOTH",
"402 314 OFFCURVE",
"404 321 OFFCURVE",
"400 334 CURVE SMOOTH"
);
}
);
width = 710;
}
);
unicode = 0041;
},
{
color = 5;
glyphname = AE;
lastChange = "2015-06-11 13:35:02 +0000";
layers = (
{
layerId = "258ED206-D907-4350-8EBA-CBDDA1C16BF7";
name = Regular;
paths = (
{
closed = 1;
nodes = (
"715 164 LINE SMOOTH",
"706 164 OFFCURVE",
"703 167 OFFCURVE",
"703 178 CURVE SMOOTH",
"703 278 LINE SMOOTH",
"703 286 OFFCURVE",
"709 292 OFFCURVE",
"719 292 CURVE SMOOTH",
"904 292 LINE SMOOTH",
"917 292 OFFCURVE",
"922 300 OFFCURVE",
"922 309 CURVE SMOOTH",
"922 433 LINE SMOOTH",
"922 446 OFFCURVE",
"915 453 OFFCURVE",
"901 453 CURVE SMOOTH",
"721 453 LINE SMOOTH",
"711 453 OFFCURVE",
"703 460 OFFCURVE",
"703 474 CURVE SMOOTH",
"703 559 LINE SMOOTH",
"703 572 OFFCURVE",
"711 578 OFFCURVE",
"726 578 CURVE SMOOTH",
"1026 578 LINE SMOOTH",
"1044 578 OFFCURVE",
"1052 589 OFFCURVE",
"1052 605 CURVE SMOOTH",
"1053 721 LINE SMOOTH",
"1053 734 OFFCURVE",
"1047 742 OFFCURVE",
"1035 742 CURVE SMOOTH",
"386 742 LINE SMOOTH",
"369 742 OFFCURVE",
"361 735 OFFCURVE",
"353 719 CURVE SMOOTH",
"-1 37 LINE SMOOTH",
"-13 15 OFFCURVE",
"-7 0 OFFCURVE",
"8 0 CURVE SMOOTH",
"160 0 LINE SMOOTH",
"174 0 OFFCURVE",
"182 7 OFFCURVE",
"186 15 CURVE SMOOTH",
"245 133 LINE",
"248 140 OFFCURVE",
"254 144 OFFCURVE",
"262 144 CURVE SMOOTH",
"463 144 LINE SMOOTH",
"473 144 OFFCURVE",
"476 139 OFFCURVE",
"476 130 CURVE SMOOTH",
"476 25 LINE SMOOTH",
"476 8 OFFCURVE",
"483 0 OFFCURVE",
"503 0 CURVE SMOOTH",
"1038 0 LINE SMOOTH",
"1055 0 OFFCURVE",
"1062 10 OFFCURVE",
"1062 22 CURVE SMOOTH",
"1062 145 LINE SMOOTH",
"1062 159 OFFCURVE",
"1054 164 OFFCURVE",
"1040 164 CURVE SMOOTH"
);
},
{
closed = 1;
nodes = (
"340 314 LINE SMOOTH",
"328 314 OFFCURVE",
"326 322 OFFCURVE",
"334 335 CURVE",
"436 537 LINE SMOOTH",
"452 567 OFFCURVE",
"476 565 OFFCURVE",
"476 535 CURVE SMOOTH",
"476 334 LINE SMOOTH",
"476 321 OFFCURVE",
"469 314 OFFCURVE",
"457 314 CURVE SMOOTH"
);
}
);
width = 1090;
}
);
unicode = 00C6;
},
{
glyphname = B;
lastChange = "2015-06-11 13:01:42 +0000";
layers = (
{
background = {
paths = (
{
closed = 1;
nodes = (
"51 0 OFFCURVE",
"42 10 OFFCURVE",
"42 22 CURVE SMOOTH",
"42 716 LINE SMOOTH",
"42 731 OFFCURVE",
"52 742 OFFCURVE",
"67 742 CURVE SMOOTH",
"383 742 LINE SMOOTH",
"590 742 OFFCURVE",
"700 675 OFFCURVE",
"700 549 CURVE SMOOTH",
"700 477 OFFCURVE",
"669 432 OFFCURVE",
"569 386 CURVE SMOOTH",
"566 385 OFFCURVE",
"566 380 OFFCURVE",
"569 379 CURVE SMOOTH",
"681 338 OFFCURVE",
"720 287 OFFCURVE",
"720 200 CURVE SMOOTH",
"720 65 OFFCURVE",
"617 0 OFFCURVE",
"399 0 CURVE SMOOTH",
"65 0 LINE SMOOTH"
);
},
{
closed = 1;
nodes = (
"266 461 OFFCURVE",
"270 454 OFFCURVE",
"283 454 CURVE SMOOTH",
"399 454 LINE SMOOTH",
"446 454 OFFCURVE",
"476 483 OFFCURVE",
"476 521 CURVE SMOOTH",
"476 564 OFFCURVE",
"439 592 OFFCURVE",
"392 592 CURVE SMOOTH",
"289 592 LINE SMOOTH",
"272 592 OFFCURVE",
"266 587 OFFCURVE",
"266 572 CURVE SMOOTH",
"266 476 LINE SMOOTH"
);
},
{
closed = 1;
nodes = (
"266 156 OFFCURVE",
"270 149 OFFCURVE",
"283 149 CURVE SMOOTH",
"394 149 LINE SMOOTH",
"453 149 OFFCURVE",
"482 188 OFFCURVE",
"482 226 CURVE SMOOTH",
"482 268 OFFCURVE",
"449 297 OFFCURVE",
"399 297 CURVE SMOOTH",
"289 297 LINE SMOOTH",
"272 297 OFFCURVE",
"266 291 OFFCURVE",
"266 276 CURVE SMOOTH",
"266 171 LINE SMOOTH"
);
}
);
};
layerId = "258ED206-D907-4350-8EBA-CBDDA1C16BF7";
name = Regular;
paths = (
{
closed = 1;
nodes = (
"55 0 OFFCURVE",
"46 10 OFFCURVE",
"46 22 CURVE SMOOTH",
"46 716 LINE SMOOTH",
"46 731 OFFCURVE",
"56 742 OFFCURVE",
"71 742 CURVE SMOOTH",
"387 742 LINE SMOOTH",
"594 742 OFFCURVE",
"704 675 OFFCURVE",
"704 546 CURVE SMOOTH",
"704 477 OFFCURVE",
"673 432 OFFCURVE",
"573 386 CURVE SMOOTH",
"570 385 OFFCURVE",
"570 380 OFFCURVE",
"573 379 CURVE SMOOTH",
"683 338 OFFCURVE",
"722 287 OFFCURVE",
"722 202 CURVE SMOOTH",
"722 65 OFFCURVE",
"619 0 OFFCURVE",
"403 0 CURVE SMOOTH",
"69 0 LINE SMOOTH"
);
},
{
closed = 1;
nodes = (
"273 459 OFFCURVE",
"277 452 OFFCURVE",
"290 452 CURVE SMOOTH",
"403 452 LINE SMOOTH",
"450 452 OFFCURVE",
"480 481 OFFCURVE",
"480 520 CURVE SMOOTH",
"480 564 OFFCURVE",
"443 592 OFFCURVE",
"396 592 CURVE SMOOTH",
"296 592 LINE SMOOTH",
"279 592 OFFCURVE",
"273 587 OFFCURVE",
"273 572 CURVE SMOOTH",
"273 474 LINE SMOOTH"
);
},
{
closed = 1;
nodes = (
"273 157 OFFCURVE",
"277 150 OFFCURVE",
"290 150 CURVE SMOOTH",
"398 150 LINE SMOOTH",
"456 150 OFFCURVE",
"486 188 OFFCURVE",
"486 227 CURVE SMOOTH",
"486 268 OFFCURVE",
"453 298 OFFCURVE",
"403 298 CURVE SMOOTH",
"296 298 LINE SMOOTH",
"279 298 OFFCURVE",
"273 292 OFFCURVE",
"273 277 CURVE SMOOTH",
"273 172 LINE SMOOTH"
);
}
);
width = 740;
}
);
leftMetricsKey = H;
unicode = 0042;
},
{
glyphname = C;
lastChange = "2015-06-11 13:01:42 +0000";
layers = (
{
background = {
paths = (
{
closed = 1;
nodes = (
"554 750 OFFCURVE",
"675 655 OFFCURVE",
"701 522 CURVE SMOOTH",
"707 494 OFFCURVE",
"703 489 OFFCURVE",
"688 487 CURVE",
"513 476 LINE",
"498 476 OFFCURVE",
"496 481 OFFCURVE",
"494 495 CURVE SMOOTH",
"483 550 OFFCURVE",
"457 595 OFFCURVE",
"391 595 CURVE SMOOTH",
"316 595 OFFCURVE",
"268 537 OFFCURVE",
"268 377 CURVE SMOOTH",
"268 215 OFFCURVE",
"317 157 OFFCURVE",
"398 157 CURVE SMOOTH",
"465 157 OFFCURVE",
"508 186 OFFCURVE",
"543 271 CURVE SMOOTH",
"547 279 OFFCURVE",
"555 282 OFFCURVE",
"571 279 CURVE SMOOTH",
"696 254 LINE SMOOTH",
"703 252 OFFCURVE",
"714 247 OFFCURVE",
"710 221 CURVE SMOOTH",
"700 167 OFFCURVE",
"614 -8 OFFCURVE",
"383 -8 CURVE SMOOTH",
"168 -8 OFFCURVE",
"29 145 OFFCURVE",
"29 371 CURVE SMOOTH",
"29 596 OFFCURVE",
"168 750 OFFCURVE",
"385 750 CURVE SMOOTH"
);
}
);
};
layerId = "258ED206-D907-4350-8EBA-CBDDA1C16BF7";
name = Regular;
paths = (
{
closed = 1;
nodes = (
"558 752 OFFCURVE",
"679 655 OFFCURVE",
"705 522 CURVE SMOOTH",
"711 494 OFFCURVE",
"707 489 OFFCURVE",
"692 487 CURVE",
"517 476 LINE",
"502 476 OFFCURVE",
"501 481 OFFCURVE",
"498 495 CURVE SMOOTH",
"487 553 OFFCURVE",
"461 598 OFFCURVE",
"395 598 CURVE SMOOTH",
"320 598 OFFCURVE",
"272 540 OFFCURVE",
"272 377 CURVE SMOOTH",
"272 212 OFFCURVE",
"313 154 OFFCURVE",
"394 154 CURVE SMOOTH",
"461 154 OFFCURVE",
"512 183 OFFCURVE",
"547 271 CURVE SMOOTH",
"550 279 OFFCURVE",
"559 282 OFFCURVE",
"575 279 CURVE SMOOTH",
"700 254 LINE SMOOTH",
"707 252 OFFCURVE",
"718 247 OFFCURVE",
"714 221 CURVE SMOOTH",
"704 167 OFFCURVE",
"618 -10 OFFCURVE",
"387 -10 CURVE SMOOTH",
"172 -10 OFFCURVE",
"34 155 OFFCURVE",
"34 381 CURVE SMOOTH",
"34 606 OFFCURVE",
"172 752 OFFCURVE",
"389 752 CURVE SMOOTH"
);
}
);
width = 736;
}
);
leftMetricsKey = O;
unicode = 0043;
},
{
glyphname = D;
lastChange = "2015-06-11 13:01:42 +0000";
layers = (
{
background = {
paths = (
{
closed = 1;
nodes = (
"100 742 OFFCURVE",
"288 736 OFFCURVE",
"346 734 CURVE SMOOTH",
"607 724 OFFCURVE",
"732 582 OFFCURVE",
"732 369 CURVE SMOOTH",
"732 155 OFFCURVE",
"600 0 OFFCURVE",
"344 0 CURVE SMOOTH",
"81 0 LINE SMOOTH",
"61 0 OFFCURVE",
"52 8 OFFCURVE",
"52 30 CURVE SMOOTH",
"52 717 LINE SMOOTH",
"52 734 OFFCURVE",
"59 742 OFFCURVE",
"74 742 CURVE SMOOTH"
);
},
{
closed = 1;
nodes = (
"279 585 OFFCURVE",
"276 582 OFFCURVE",
"276 571 CURVE SMOOTH",
"276 172 LINE SMOOTH",
"276 158 OFFCURVE",
"280 157 OFFCURVE",
"297 157 CURVE SMOOTH",
"425 157 OFFCURVE",
"500 215 OFFCURVE",
"500 374 CURVE SMOOTH",
"500 516 OFFCURVE",
"440 572 OFFCURVE",
"349 581 CURVE SMOOTH",
"325 583 OFFCURVE",
"292 585 OFFCURVE",
"286 585 CURVE SMOOTH"
);
}
);
};
layerId = "258ED206-D907-4350-8EBA-CBDDA1C16BF7";
name = Regular;
paths = (
{
closed = 1;
nodes = (
"92 742 OFFCURVE",
"281 743 OFFCURVE",
"339 741 CURVE SMOOTH",
"607 731 OFFCURVE",
"734 584 OFFCURVE",
"734 373 CURVE SMOOTH",
"734 157 OFFCURVE",
"601 0 OFFCURVE",
"338 0 CURVE SMOOTH",
"75 0 LINE SMOOTH",
"55 0 OFFCURVE",
"46 8 OFFCURVE",
"46 30 CURVE SMOOTH",
"46 717 LINE SMOOTH",
"46 736 OFFCURVE",
"53 742 OFFCURVE",
"73 742 CURVE SMOOTH"
);
},
{
closed = 1;
nodes = (
"276 585 OFFCURVE",
"273 582 OFFCURVE",
"273 571 CURVE SMOOTH",
"273 172 LINE SMOOTH",
"273 158 OFFCURVE",
"277 157 OFFCURVE",
"294 157 CURVE SMOOTH",
"420 157 OFFCURVE",
"496 215 OFFCURVE",
"496 376 CURVE SMOOTH",
"496 513 OFFCURVE",
"440 572 OFFCURVE",
"343 581 CURVE SMOOTH",
"319 583 OFFCURVE",
"289 585 OFFCURVE",
"283 585 CURVE SMOOTH"
);
}
);
width = 768;
}
);
leftMetricsKey = H;
rightMetricsKey = O;
unicode = 0044;
},
{
glyphname = E;
lastChange = "2015-06-11 13:01:42 +0000";
layers = (
{
background = {
paths = (
{
closed = 1;
nodes = (
"47 734 OFFCURVE",
"54 742 OFFCURVE",
"66 742 CURVE SMOOTH",
"605 742 LINE SMOOTH",
"617 742 OFFCURVE",
"623 734 OFFCURVE",
"623 721 CURVE SMOOTH",
"622 605 LINE SMOOTH",
"622 589 OFFCURVE",
"614 578 OFFCURVE",
"596 578 CURVE SMOOTH",
"293 578 LINE SMOOTH",
"278 578 OFFCURVE",
"270 572 OFFCURVE",
"270 559 CURVE SMOOTH",
"270 474 LINE SMOOTH",
"270 460 OFFCURVE",
"278 453 OFFCURVE",
"288 453 CURVE SMOOTH",
"471 453 LINE SMOOTH",
"485 453 OFFCURVE",
"492 446 OFFCURVE",
"492 433 CURVE SMOOTH",
"492 309 LINE SMOOTH",
"492 300 OFFCURVE",
"487 292 OFFCURVE",
"474 292 CURVE SMOOTH",
"286 292 LINE SMOOTH",
"276 292 OFFCURVE",
"270 286 OFFCURVE",
"270 278 CURVE SMOOTH",
"270 178 LINE SMOOTH",
"270 167 OFFCURVE",
"273 164 OFFCURVE",
"282 164 CURVE SMOOTH",
"610 164 LINE SMOOTH",
"624 164 OFFCURVE",
"632 159 OFFCURVE",
"632 145 CURVE SMOOTH",
"632 22 LINE SMOOTH",
"632 10 OFFCURVE",
"625 0 OFFCURVE",
"608 0 CURVE SMOOTH",
"69 0 LINE SMOOTH",
"49 0 OFFCURVE",
"42 8 OFFCURVE",
"42 25 CURVE SMOOTH",
"47 719 LINE SMOOTH"
);
}
);
};
layerId = "258ED206-D907-4350-8EBA-CBDDA1C16BF7";
name = Regular;
paths = (
{
closed = 1;
nodes = (
"46 734 OFFCURVE",
"53 742 OFFCURVE",
"65 742 CURVE SMOOTH",
"605 742 LINE SMOOTH",
"617 742 OFFCURVE",
"623 734 OFFCURVE",
"623 721 CURVE SMOOTH",
"622 605 LINE SMOOTH",
"622 589 OFFCURVE",
"614 578 OFFCURVE",
"596 578 CURVE SMOOTH",
"296 578 LINE SMOOTH",
"281 578 OFFCURVE",
"273 572 OFFCURVE",
"273 559 CURVE SMOOTH",
"273 474 LINE SMOOTH",
"273 460 OFFCURVE",
"281 453 OFFCURVE",
"291 453 CURVE SMOOTH",
"471 453 LINE SMOOTH",
"485 453 OFFCURVE",
"492 446 OFFCURVE",
"492 433 CURVE SMOOTH",
"492 309 LINE SMOOTH",
"492 300 OFFCURVE",
"487 292 OFFCURVE",
"474 292 CURVE SMOOTH",
"289 292 LINE SMOOTH",
"279 292 OFFCURVE",
"273 286 OFFCURVE",
"273 278 CURVE SMOOTH",
"273 178 LINE SMOOTH",
"273 167 OFFCURVE",
"276 164 OFFCURVE",
"285 164 CURVE SMOOTH",
"610 164 LINE SMOOTH",
"624 164 OFFCURVE",
"632 159 OFFCURVE",
"632 145 CURVE SMOOTH",
"632 22 LINE SMOOTH",
"632 10 OFFCURVE",
"625 0 OFFCURVE",
"608 0 CURVE SMOOTH",
"73 0 LINE SMOOTH",
"53 0 OFFCURVE",
"46 8 OFFCURVE",
"46 25 CURVE SMOOTH",
"46 719 LINE SMOOTH"
);
}
);
width = 660;
}
);
leftMetricsKey = H;
unicode = 0045;
},
{
glyphname = F;
lastChange = "2015-06-11 13:01:42 +0000";
layers = (
{
background = {
paths = (
{
closed = 1;
nodes = (
"46 734 OFFCURVE",
"54 742 OFFCURVE",
"65 742 CURVE SMOOTH",
"595 742 LINE SMOOTH",
"607 742 OFFCURVE",
"613 734 OFFCURVE",
"613 721 CURVE SMOOTH",
"612 605 LINE SMOOTH",
"612 589 OFFCURVE",
"605 578 OFFCURVE",
"587 578 CURVE SMOOTH",
"293 578 LINE SMOOTH",
"277 578 OFFCURVE",
"270 572 OFFCURVE",
"270 559 CURVE SMOOTH",
"270 465 LINE SMOOTH",
"270 451 OFFCURVE",
"277 445 OFFCURVE",
"288 445 CURVE SMOOTH",
"471 445 LINE SMOOTH",
"485 445 OFFCURVE",
"491 438 OFFCURVE",
"491 425 CURVE SMOOTH",
"491 303 LINE SMOOTH",
"491 293 OFFCURVE",
"487 286 OFFCURVE",
"473 286 CURVE SMOOTH",
"286 286 LINE SMOOTH",
"276 286 OFFCURVE",
"270 280 OFFCURVE",
"270 271 CURVE SMOOTH",
"270 29 LINE SMOOTH",
"270 8 OFFCURVE",
"260 0 OFFCURVE",
"237 0 CURVE SMOOTH",
"69 0 LINE",
"48 0 OFFCURVE",
"42 8 OFFCURVE",
"42 25 CURVE SMOOTH",
"46 719 LINE SMOOTH"
);
}
);
};
layerId = "258ED206-D907-4350-8EBA-CBDDA1C16BF7";
name = Regular;
paths = (
{
closed = 1;
nodes = (
"46 734 OFFCURVE",
"54 742 OFFCURVE",
"65 742 CURVE SMOOTH",
"598 742 LINE SMOOTH",
"610 742 OFFCURVE",
"616 734 OFFCURVE",
"616 721 CURVE SMOOTH",
"615 605 LINE SMOOTH",
"615 589 OFFCURVE",
"608 578 OFFCURVE",
"590 578 CURVE SMOOTH",
"296 578 LINE SMOOTH",
"280 578 OFFCURVE",
"273 572 OFFCURVE",
"273 559 CURVE SMOOTH",
"273 465 LINE SMOOTH",
"273 451 OFFCURVE",
"280 445 OFFCURVE",
"291 445 CURVE SMOOTH",
"474 445 LINE SMOOTH",
"488 445 OFFCURVE",
"494 438 OFFCURVE",
"494 425 CURVE SMOOTH",
"494 303 LINE SMOOTH",
"494 293 OFFCURVE",
"490 286 OFFCURVE",
"476 286 CURVE SMOOTH",
"289 286 LINE SMOOTH",
"279 286 OFFCURVE",
"273 280 OFFCURVE",
"273 271 CURVE SMOOTH",
"273 29 LINE SMOOTH",
"273 8 OFFCURVE",
"263 0 OFFCURVE",
"240 0 CURVE SMOOTH",
"73 0 LINE",
"52 0 OFFCURVE",
"46 8 OFFCURVE",
"46 25 CURVE SMOOTH",
"46 719 LINE SMOOTH"
);
}
);
width = 628;
}
);
leftMetricsKey = H;
unicode = 0046;
},
{
glyphname = G;
lastChange = "2015-06-11 13:01:42 +0000";
layers = (
{
background = {
paths = (
{
closed = 1;
nodes = (
"490 173 OFFCURVE",
"455 146 OFFCURVE",
"396 146 CURVE SMOOTH",
"320 146 OFFCURVE",
"268 193 OFFCURVE",
"268 374 CURVE SMOOTH",
"268 544 OFFCURVE",
"314 597 OFFCURVE",
"388 597 CURVE SMOOTH",
"460 597 OFFCURVE",
"495 547 OFFCURVE",
"505 492 CURVE SMOOTH",
"508 479 OFFCURVE",
"509 472 OFFCURVE",
"525 472 CURVE",
"696 498 LINE",
"712 500 OFFCURVE",
"716 505 OFFCURVE",
"710 533 CURVE SMOOTH",
"686 640 OFFCURVE",
"573 750 OFFCURVE",
"393 750 CURVE SMOOTH",
"181 750 OFFCURVE",
"32 599 OFFCURVE",
"32 368 CURVE SMOOTH",
"32 145 OFFCURVE",
"171 -8 OFFCURVE",
"380 -8 CURVE SMOOTH",
"498 -8 OFFCURVE",
"549 40 OFFCURVE",
"585 75 CURVE SMOOTH",
"590 81 OFFCURVE",
"593 81 OFFCURVE",
"596 77 CURVE SMOOTH",
"636 19 LINE SMOOTH",
"645 5 OFFCURVE",
"656 0 OFFCURVE",
"668 0 CURVE SMOOTH",
"706 0 LINE SMOOTH",
"716 0 OFFCURVE",
"723 8 OFFCURVE",
"723 17 CURVE SMOOTH",
"723 344 LINE SMOOTH",
"723 362 OFFCURVE",
"710 375 OFFCURVE",
"685 375 CURVE SMOOTH",
"405 377 LINE SMOOTH",
"390 377 OFFCURVE",
"384 370 OFFCURVE",
"384 360 CURVE SMOOTH",
"384 264 LINE SMOOTH",
"384 247 OFFCURVE",
"390 242 OFFCURVE",
"404 242 CURVE SMOOTH",
"498 242 LINE SMOOTH",
"508 242 OFFCURVE",
"511 236 OFFCURVE",
"507 225 CURVE SMOOTH"
);
}
);
};
layerId = "258ED206-D907-4350-8EBA-CBDDA1C16BF7";
name = Regular;
paths = (
{
closed = 1;
nodes = (
"494 173 OFFCURVE",
"459 146 OFFCURVE",
"400 146 CURVE SMOOTH",
"324 146 OFFCURVE",
"272 193 OFFCURVE",
"272 374 CURVE SMOOTH",
"272 544 OFFCURVE",
"318 597 OFFCURVE",
"392 597 CURVE SMOOTH",
"464 597 OFFCURVE",
"499 547 OFFCURVE",
"509 492 CURVE SMOOTH",
"512 479 OFFCURVE",
"513 472 OFFCURVE",
"529 472 CURVE SMOOTH",
"700 498 LINE SMOOTH",
"716 500 OFFCURVE",
"720 505 OFFCURVE",
"714 533 CURVE SMOOTH",
"690 640 OFFCURVE",
"577 752 OFFCURVE",
"397 752 CURVE SMOOTH",
"183 752 OFFCURVE",
"34 599 OFFCURVE",
"34 368 CURVE SMOOTH",
"34 145 OFFCURVE",
"173 -10 OFFCURVE",
"384 -10 CURVE SMOOTH",
"502 -10 OFFCURVE",
"553 40 OFFCURVE",
"589 75 CURVE SMOOTH",
"594 81 OFFCURVE",
"597 81 OFFCURVE",
"600 77 CURVE SMOOTH",
"640 19 LINE SMOOTH",
"649 5 OFFCURVE",
"660 0 OFFCURVE",
"672 0 CURVE SMOOTH",
"710 0 LINE SMOOTH",
"720 0 OFFCURVE",
"727 8 OFFCURVE",
"727 17 CURVE SMOOTH",
"727 344 LINE SMOOTH",
"727 362 OFFCURVE",
"714 375 OFFCURVE",
"689 375 CURVE SMOOTH",
"409 377 LINE SMOOTH",
"394 377 OFFCURVE",
"388 370 OFFCURVE",
"388 360 CURVE SMOOTH",
"388 264 LINE SMOOTH",
"388 247 OFFCURVE",
"394 242 OFFCURVE",
"408 242 CURVE SMOOTH",
"502 242 LINE SMOOTH",
"512 242 OFFCURVE",
"515 236 OFFCURVE",
"511 225 CURVE SMOOTH"
);
}
);
width = 772;
}
);
leftMetricsKey = O;
unicode = 0047;
},
{
glyphname = H;
lastChange = "2015-06-11 13:01:42 +0000";
layers = (
{
background = {
paths = (
{
closed = 1;
nodes = (
"285 297 LINE SMOOTH",
"275 297 OFFCURVE",
"269 290 OFFCURVE",
"269 282 CURVE SMOOTH",
"269 29 LINE SMOOTH",
"269 8 OFFCURVE",
"259 0 OFFCURVE",
"236 0 CURVE SMOOTH",
"68 0 LINE",
"47 0 OFFCURVE",
"41 8 OFFCURVE",
"41 25 CURVE SMOOTH",
"45 719 LINE SMOOTH",
"45 734 OFFCURVE",
"53 742 OFFCURVE",
"64 742 CURVE SMOOTH",
"251 742 LINE SMOOTH",
"262 742 OFFCURVE",
"269 734 OFFCURVE",
"269 721 CURVE SMOOTH",
"269 489 LINE SMOOTH",
"269 476 OFFCURVE",
"276 469 OFFCURVE",
"287 469 CURVE SMOOTH",
"454 469 LINE SMOOTH",
"465 469 OFFCURVE",
"472 476 OFFCURVE",
"472 489 CURVE SMOOTH",
"472 721 LINE SMOOTH",
"472 734 OFFCURVE",
"479 742 OFFCURVE",
"490 742 CURVE SMOOTH",
"677 742 LINE SMOOTH",
"688 742 OFFCURVE",
"696 734 OFFCURVE",
"696 719 CURVE SMOOTH",
"700 25 LINE SMOOTH",
"700 8 OFFCURVE",
"694 0 OFFCURVE",
"673 0 CURVE",
"505 0 LINE SMOOTH",
"482 0 OFFCURVE",
"472 8 OFFCURVE",
"472 29 CURVE SMOOTH",
"472 282 LINE SMOOTH",
"472 290 OFFCURVE",
"466 297 OFFCURVE",
"456 297 CURVE SMOOTH"
);
}
);
};
layerId = "258ED206-D907-4350-8EBA-CBDDA1C16BF7";
name = Regular;
paths = (
{
closed = 1;
nodes = (
"289 297 LINE SMOOTH",
"279 297 OFFCURVE",
"273 290 OFFCURVE",
"273 282 CURVE SMOOTH",
"273 29 LINE SMOOTH",
"273 8 OFFCURVE",
"263 0 OFFCURVE",
"240 0 CURVE SMOOTH",
"73 0 LINE SMOOTH",
"52 0 OFFCURVE",
"46 8 OFFCURVE",
"46 25 CURVE SMOOTH",
"46 719 LINE SMOOTH",
"46 734 OFFCURVE",
"54 742 OFFCURVE",
"65 742 CURVE SMOOTH",
"255 742 LINE SMOOTH",
"266 742 OFFCURVE",
"273 734 OFFCURVE",
"273 721 CURVE SMOOTH",
"273 489 LINE SMOOTH",
"273 476 OFFCURVE",
"280 469 OFFCURVE",
"291 469 CURVE SMOOTH",
"459 469 LINE SMOOTH",
"470 469 OFFCURVE",
"477 476 OFFCURVE",
"477 489 CURVE SMOOTH",
"477 721 LINE SMOOTH",
"477 734 OFFCURVE",
"484 742 OFFCURVE",
"495 742 CURVE SMOOTH",
"685 742 LINE SMOOTH",
"696 742 OFFCURVE",
"704 734 OFFCURVE",
"704 719 CURVE SMOOTH",
"704 25 LINE SMOOTH",
"704 8 OFFCURVE",
"698 0 OFFCURVE",
"677 0 CURVE SMOOTH",
"510 0 LINE SMOOTH",
"487 0 OFFCURVE",
"477 8 OFFCURVE",
"477 29 CURVE SMOOTH",
"477 282 LINE SMOOTH",
"477 290 OFFCURVE",
"471 297 OFFCURVE",
"461 297 CURVE SMOOTH"
);
}
);
width = 750;
}
);
unicode = 0048;
},
{
glyphname = I;
lastChange = "2015-06-11 13:01:42 +0000";
layers = (
{
background = {
paths = (
{
closed = 1;
nodes = (
"274 734 OFFCURVE",
"268 742 OFFCURVE",
"256 742 CURVE SMOOTH",
"65 742 LINE SMOOTH",
"54 742 OFFCURVE",
"46 734 OFFCURVE",
"46 719 CURVE SMOOTH",
"42 25 LINE SMOOTH",
"42 8 OFFCURVE",
"48 0 OFFCURVE",
"69 0 CURVE SMOOTH",
"241 0 LINE SMOOTH",
"264 0 OFFCURVE",
"274 8 OFFCURVE",
"274 29 CURVE SMOOTH",
"274 721 LINE SMOOTH"
);
}
);
};
layerId = "258ED206-D907-4350-8EBA-CBDDA1C16BF7";
name = Regular;
paths = (
{
closed = 1;
nodes = (
"273 734 OFFCURVE",
"267 742 OFFCURVE",
"255 742 CURVE SMOOTH",
"65 742 LINE SMOOTH",
"54 742 OFFCURVE",
"46 734 OFFCURVE",
"46 719 CURVE SMOOTH",
"46 25 LINE SMOOTH",
"46 8 OFFCURVE",
"52 0 OFFCURVE",
"73 0 CURVE SMOOTH",
"240 0 LINE SMOOTH",
"263 0 OFFCURVE",
"273 8 OFFCURVE",
"273 29 CURVE SMOOTH",
"273 721 LINE SMOOTH"
);
}
);
width = 319;
}
);
leftMetricsKey = H;
rightMetricsKey = H;
unicode = 0049;
},
{
glyphname = J;
lastChange = "2015-06-11 13:01:42 +0000";
layers = (
{
background = {
paths = (
{
closed = 1;
nodes = (
"417 721 LINE SMOOTH",
"417 734 OFFCURVE",
"411 742 OFFCURVE",
"399 742 CURVE SMOOTH",
"209 742 LINE SMOOTH",
"197 742 OFFCURVE",
"189 734 OFFCURVE",
"189 719 CURVE SMOOTH",
"186 263 LINE SMOOTH",
"185 195 OFFCURVE",
"157 171 OFFCURVE",
"100 171 CURVE SMOOTH",
"85 171 OFFCURVE",
"69 175 OFFCURVE",
"53 177 CURVE SMOOTH",
"37 179 OFFCURVE",
"31 169 OFFCURVE",
"29 154 CURVE SMOOTH",
"20 38 LINE SMOOTH",
"18 10 OFFCURVE",
"28 -2 OFFCURVE",
"51 -5 CURVE SMOOTH",
"105 -14 OFFCURVE",
"125 -15 OFFCURVE",
"165 -15 CURVE SMOOTH",
"335 -15 OFFCURVE",
"417 43 OFFCURVE",
"417 207 CURVE SMOOTH"
);
}
);
};
layerId = "258ED206-D907-4350-8EBA-CBDDA1C16BF7";
name = Regular;
paths = (
{
closed = 1;
nodes = (
"417 721 LINE SMOOTH",
"417 734 OFFCURVE",
"411 742 OFFCURVE",
"399 742 CURVE SMOOTH",
"210 742 LINE SMOOTH",
"198 742 OFFCURVE",
"190 734 OFFCURVE",
"190 719 CURVE SMOOTH",
"190 268 LINE SMOOTH",
"190 200 OFFCURVE",
"161 175 OFFCURVE",
"112 175 CURVE SMOOTH",
"90 175 OFFCURVE",
"73 180 OFFCURVE",
"57 182 CURVE SMOOTH",
"41 184 OFFCURVE",
"34 174 OFFCURVE",
"33 159 CURVE SMOOTH",
"24 45 LINE SMOOTH",
"22 17 OFFCURVE",
"32 6 OFFCURVE",
"55 2 CURVE SMOOTH",
"100 -6 OFFCURVE",
"138 -10 OFFCURVE",
"179 -10 CURVE SMOOTH",
"335 -10 OFFCURVE",
"417 48 OFFCURVE",
"417 212 CURVE SMOOTH"
);
}
);
width = 480;
}
);
unicode = 004A;
},
{
glyphname = K;
lastChange = "2015-06-11 13:01:42 +0000";
layers = (
{
background = {
paths = (
{
closed = 1;
nodes = (
"517 480 LINE SMOOTH",
"511 494 OFFCURVE",
"512 501 OFFCURVE",
"520 512 CURVE SMOOTH",
"684 713 LINE SMOOTH",
"697 728 OFFCURVE",
"685 742 OFFCURVE",
"663 742 CURVE SMOOTH",
"511 742 LINE SMOOTH",
"487 742 OFFCURVE",
"479 736 OFFCURVE",
"468 721 CURVE SMOOTH",
"284 463 LINE",
"276 453 OFFCURVE",
"269 452 OFFCURVE",
"269 468 CURVE SMOOTH",
"269 721 LINE SMOOTH",
"269 734 OFFCURVE",
"263 742 OFFCURVE",
"251 742 CURVE SMOOTH",
"60 742 LINE SMOOTH",
"49 742 OFFCURVE",
"41 734 OFFCURVE",
"41 719 CURVE SMOOTH",
"37 25 LINE SMOOTH",
"37 8 OFFCURVE",
"43 0 OFFCURVE",
"64 0 CURVE SMOOTH",
"236 0 LINE SMOOTH",
"259 0 OFFCURVE",
"269 8 OFFCURVE",
"269 29 CURVE SMOOTH",
"269 180 LINE SMOOTH",
"269 190 OFFCURVE",
"270 196 OFFCURVE",
"275 202 CURVE SMOOTH",
"346 293 LINE SMOOTH",
"356 306 OFFCURVE",
"362 308 OFFCURVE",
"368 298 CURVE SMOOTH",
"490 20 LINE SMOOTH",
"497 5 OFFCURVE",
"509 0 OFFCURVE",
"526 0 CURVE SMOOTH",
"721 0 LINE SMOOTH",
"741 0 OFFCURVE",
"743 15 OFFCURVE",
"735 31 CURVE SMOOTH"
);
}
);
};
layerId = "258ED206-D907-4350-8EBA-CBDDA1C16BF7";
name = Regular;
paths = (
{
closed = 1;
nodes = (
"521 480 LINE SMOOTH",
"515 494 OFFCURVE",
"516 501 OFFCURVE",
"524 512 CURVE SMOOTH",
"688 713 LINE SMOOTH",
"701 728 OFFCURVE",
"689 742 OFFCURVE",
"667 742 CURVE SMOOTH",
"515 742 LINE SMOOTH",
"491 742 OFFCURVE",
"483 736 OFFCURVE",
"472 721 CURVE SMOOTH",
"288 463 LINE",
"280 453 OFFCURVE",
"273 452 OFFCURVE",
"273 468 CURVE SMOOTH",
"273 721 LINE SMOOTH",
"273 734 OFFCURVE",
"267 742 OFFCURVE",
"255 742 CURVE SMOOTH",
"65 742 LINE SMOOTH",
"54 742 OFFCURVE",
"46 734 OFFCURVE",
"46 719 CURVE SMOOTH",
"46 25 LINE SMOOTH",
"46 8 OFFCURVE",
"52 0 OFFCURVE",
"73 0 CURVE SMOOTH",
"240 0 LINE SMOOTH",
"263 0 OFFCURVE",
"273 8 OFFCURVE",
"273 29 CURVE SMOOTH",
"273 180 LINE SMOOTH",
"273 190 OFFCURVE",
"274 196 OFFCURVE",
"279 202 CURVE SMOOTH",
"350 293 LINE SMOOTH",
"360 306 OFFCURVE",
"366 308 OFFCURVE",
"372 298 CURVE SMOOTH",
"494 20 LINE SMOOTH",
"501 5 OFFCURVE",
"513 0 OFFCURVE",
"530 0 CURVE SMOOTH",
"725 0 LINE SMOOTH",
"745 0 OFFCURVE",
"747 15 OFFCURVE",
"739 31 CURVE SMOOTH"
);
}
);
width = 730;
}
);
leftMetricsKey = H;
unicode = 004B;
},
{
glyphname = L;
lastChange = "2015-06-11 13:01:42 +0000";
layers = (
{
background = {
paths = (
{
closed = 1;
nodes = (
"46 734 OFFCURVE",
"54 742 OFFCURVE",
"65 742 CURVE SMOOTH",
"252 742 LINE SMOOTH",
"264 742 OFFCURVE",
"270 734 OFFCURVE",
"270 721 CURVE SMOOTH",
"270 175 LINE SMOOTH",
"270 164 OFFCURVE",
"273 161 OFFCURVE",
"282 161 CURVE SMOOTH",
"583 161 LINE SMOOTH",
"597 161 OFFCURVE",
"606 156 OFFCURVE",
"606 142 CURVE SMOOTH",
"606 22 LINE SMOOTH",
"606 10 OFFCURVE",
"598 0 OFFCURVE",
"581 0 CURVE SMOOTH",
"69 0 LINE SMOOTH",
"48 0 OFFCURVE",
"42 8 OFFCURVE",
"42 25 CURVE SMOOTH",
"46 719 LINE SMOOTH"
);
}
);
};
layerId = "258ED206-D907-4350-8EBA-CBDDA1C16BF7";
name = Regular;
paths = (
{
closed = 1;
nodes = (
"46 734 OFFCURVE",
"54 742 OFFCURVE",
"65 742 CURVE SMOOTH",
"255 742 LINE SMOOTH",
"267 742 OFFCURVE",
"273 734 OFFCURVE",
"273 721 CURVE SMOOTH",
"273 178 LINE SMOOTH",
"273 167 OFFCURVE",
"276 164 OFFCURVE",
"285 164 CURVE SMOOTH",
"586 164 LINE SMOOTH",
"600 164 OFFCURVE",
"609 159 OFFCURVE",
"609 145 CURVE SMOOTH",
"609 22 LINE SMOOTH",
"609 10 OFFCURVE",
"601 0 OFFCURVE",
"584 0 CURVE SMOOTH",
"73 0 LINE SMOOTH",
"52 0 OFFCURVE",
"46 8 OFFCURVE",
"46 25 CURVE SMOOTH",
"46 719 LINE SMOOTH"
);
}
);
width = 616;
}
);
leftMetricsKey = H;
unicode = 004C;
},
{
glyphname = M;
lastChange = "2015-06-11 13:01:42 +0000";
layers = (
{
background = {
paths = (
{
closed = 1;
nodes = (
"535 18 LINE SMOOTH",
"532 7 OFFCURVE",
"522 0 OFFCURVE",
"511 0 CURVE SMOOTH",
"403 0 LINE SMOOTH",
"391 0 OFFCURVE",
"383 5 OFFCURVE",
"378 18 CURVE SMOOTH",
"232 476 LINE SMOOTH",
"227 492 OFFCURVE",
"224 488 OFFCURVE",
"224 475 CURVE SMOOTH",
"231 22 LINE SMOOTH",
"231 4 OFFCURVE",
"227 0 OFFCURVE",
"209 0 CURVE SMOOTH",
"68 0 LINE SMOOTH",
"52 0 OFFCURVE",
"42 11 OFFCURVE",
"42 28 CURVE SMOOTH",
"42 719 LINE SMOOTH",
"42 735 OFFCURVE",
"48 742 OFFCURVE",
"63 742 CURVE SMOOTH",
"342 742 LINE SMOOTH",
"359 742 OFFCURVE",
"365 738 OFFCURVE",
"370 724 CURVE SMOOTH",
"475 414 LINE SMOOTH",
"479 400 OFFCURVE",
"482 398 OFFCURVE",
"488 414 CURVE SMOOTH",
"580 713 LINE SMOOTH",
"585 731 OFFCURVE",
"593 742 OFFCURVE",
"607 742 CURVE SMOOTH",
"895 742 LINE SMOOTH",
"907 742 OFFCURVE",
"913 734 OFFCURVE",
"913 721 CURVE SMOOTH",
"913 29 LINE SMOOTH",
"913 8 OFFCURVE",
"904 0 OFFCURVE",
"881 0 CURVE SMOOTH",
"714 0 LINE SMOOTH",
"694 0 OFFCURVE",
"688 8 OFFCURVE",
"688 25 CURVE SMOOTH",
"692 474 LINE SMOOTH",
"692 485 OFFCURVE",
"687 489 OFFCURVE",
"682 477 CURVE SMOOTH"
);
}
);
};
layerId = "258ED206-D907-4350-8EBA-CBDDA1C16BF7";
name = Regular;
paths = (
{
closed = 1;
nodes = (
"536 18 LINE SMOOTH",
"532 7 OFFCURVE",
"523 0 OFFCURVE",
"512 0 CURVE SMOOTH",
"407 0 LINE SMOOTH",
"395 0 OFFCURVE",
"387 6 OFFCURVE",
"383 18 CURVE SMOOTH",
"239 465 LINE SMOOTH",
"234 481 OFFCURVE",
"227 477 OFFCURVE",
"227 464 CURVE SMOOTH",
"227 22 LINE SMOOTH",
"227 4 OFFCURVE",
"223 0 OFFCURVE",
"205 0 CURVE SMOOTH",
"72 0 LINE SMOOTH",
"56 0 OFFCURVE",
"46 11 OFFCURVE",
"46 28 CURVE SMOOTH",
"46 719 LINE SMOOTH",
"46 735 OFFCURVE",
"52 742 OFFCURVE",
"67 742 CURVE SMOOTH",
"347 742 LINE SMOOTH",
"364 742 OFFCURVE",
"370 738 OFFCURVE",
"375 724 CURVE SMOOTH",
"479 406 LINE SMOOTH",
"483 395 OFFCURVE",
"489 397 OFFCURVE",
"492 406 CURVE SMOOTH",
"585 713 LINE SMOOTH",
"590 731 OFFCURVE",
"598 742 OFFCURVE",
"612 742 CURVE SMOOTH",
"901 742 LINE SMOOTH",
"913 742 OFFCURVE",
"919 734 OFFCURVE",
"919 721 CURVE SMOOTH",
"919 29 LINE SMOOTH",
"919 8 OFFCURVE",
"910 0 OFFCURVE",
"887 0 CURVE SMOOTH",
"718 0 LINE SMOOTH",
"698 0 OFFCURVE",
"692 8 OFFCURVE",
"692 25 CURVE SMOOTH",
"692 474 LINE SMOOTH",
"692 485 OFFCURVE",
"684 485 OFFCURVE",
"680 473 CURVE SMOOTH"
);
}
);
width = 965;
}
);
leftMetricsKey = H;
rightMetricsKey = H;
unicode = 004D;
},
{
glyphname = N;
lastChange = "2015-06-11 13:01:42 +0000";
layers = (
{
background = {
paths = (
{
closed = 1;
nodes = (
"526 742 OFFCURVE",
"519 734 OFFCURVE",
"519 721 CURVE SMOOTH",
"519 398 LINE",
"519 382 OFFCURVE",
"514 379 OFFCURVE",
"503 394 CURVE SMOOTH",
"264 724 LINE SMOOTH",
"253 738 OFFCURVE",
"247 742 OFFCURVE",
"230 742 CURVE SMOOTH",
"67 742 LINE SMOOTH",
"52 742 OFFCURVE",
"45 735 OFFCURVE",
"45 719 CURVE SMOOTH",
"45 20 LINE SMOOTH",
"45 5 OFFCURVE",
"55 0 OFFCURVE",
"70 0 CURVE SMOOTH",
"208 0 LINE SMOOTH",
"226 0 OFFCURVE",
"233 6 OFFCURVE",
"233 22 CURVE SMOOTH",
"229 388 LINE SMOOTH",
"229 396 OFFCURVE",
"233 397 OFFCURVE",
"239 389 CURVE SMOOTH",
"514 18 LINE SMOOTH",
"522 6 OFFCURVE",
"526 0 OFFCURVE",
"538 0 CURVE SMOOTH",
"676 0 LINE SMOOTH",
"689 0 OFFCURVE",
"699 7 OFFCURVE",
"699 18 CURVE",
"699 725 LINE SMOOTH",
"699 736 OFFCURVE",
"694 742 OFFCURVE",
"684 742 CURVE SMOOTH",
"541 742 LINE SMOOTH"
);
}
);
};
layerId = "258ED206-D907-4350-8EBA-CBDDA1C16BF7";
name = Regular;
paths = (
{
closed = 1;
nodes = (
"528 742 OFFCURVE",
"521 734 OFFCURVE",
"521 721 CURVE SMOOTH",
"521 394 LINE SMOOTH",
"521 378 OFFCURVE",
"514 378 OFFCURVE",
"505 390 CURVE SMOOTH",
"265 724 LINE SMOOTH",
"254 739 OFFCURVE",
"248 742 OFFCURVE",
"231 742 CURVE SMOOTH",
"68 742 LINE SMOOTH",
"53 742 OFFCURVE",
"46 735 OFFCURVE",
"46 719 CURVE SMOOTH",
"46 20 LINE SMOOTH",
"46 5 OFFCURVE",
"56 0 OFFCURVE",
"71 0 CURVE SMOOTH",
"207 0 LINE SMOOTH",
"225 0 OFFCURVE",
"232 6 OFFCURVE",
"232 22 CURVE SMOOTH",
"231 386 LINE SMOOTH",
"231 393 OFFCURVE",
"236 395 OFFCURVE",
"241 388 CURVE SMOOTH",
"516 15 LINE SMOOTH",
"526 2 OFFCURVE",
"532 0 OFFCURVE",
"543 0 CURVE SMOOTH",
"680 0 LINE SMOOTH",
"693 0 OFFCURVE",
"703 7 OFFCURVE",
"703 18 CURVE SMOOTH",
"703 725 LINE SMOOTH",
"703 736 OFFCURVE",
"698 742 OFFCURVE",
"688 742 CURVE SMOOTH",
"543 742 LINE SMOOTH"
);
}
);
width = 749;
}
);
leftMetricsKey = H;
rightMetricsKey = H;
unicode = 004E;
},
{
color = 5;
glyphname = Eng;
lastChange = "2015-06-11 13:35:59 +0000";
layers = (
{
layerId = "258ED206-D907-4350-8EBA-CBDDA1C16BF7";
name = Regular;
paths = (
{
closed = 1;
nodes = (
"543 742 LINE SMOOTH",
"528 742 OFFCURVE",
"521 734 OFFCURVE",
"521 721 CURVE SMOOTH",
"521 434 LINE SMOOTH",
"521 418 OFFCURVE",
"514 418 OFFCURVE",
"505 430 CURVE",
"265 724 LINE SMOOTH",
"253 739 OFFCURVE",
"248 742 OFFCURVE",
"231 742 CURVE SMOOTH",
"68 742 LINE SMOOTH",
"53 742 OFFCURVE",
"46 735 OFFCURVE",
"46 719 CURVE SMOOTH",
"46 20 LINE SMOOTH",
"46 5 OFFCURVE",
"56 0 OFFCURVE",
"71 0 CURVE SMOOTH",
"207 0 LINE SMOOTH",
"225 0 OFFCURVE",
"232 6 OFFCURVE",
"232 22 CURVE",
"231 386 LINE",
"231 393 OFFCURVE",
"235 395 OFFCURVE",
"241 388 CURVE SMOOTH",
"480.934 97.462 LINE",
"479.382 33.638 OFFCURVE",
"450.646 10 OFFCURVE",
"403 10 CURVE SMOOTH",
"381 10 OFFCURVE",
"358 15 OFFCURVE",
"342 17 CURVE SMOOTH",
"326 19 OFFCURVE",
"319 9 OFFCURVE",
"318 -6 CURVE SMOOTH",
"309 -120 LINE SMOOTH",
"307 -148 OFFCURVE",
"317 -159 OFFCURVE",
"340 -163 CURVE SMOOTH",
"385 -171 OFFCURVE",
"429 -175 OFFCURVE",
"470 -175 CURVE SMOOTH",
"622 -175 OFFCURVE",
"703 -114 OFFCURVE",
"703 47 CURVE SMOOTH",
"703 725 LINE SMOOTH",
"703 736 OFFCURVE",
"698 742 OFFCURVE",
"688 742 CURVE SMOOTH"
);
}
);
width = 766;
}
);
unicode = 014A;
},
{
color = 5;
glyphname = O;
lastChange = "2015-06-11 13:39:47 +0000";
layers = (
{
guideLines = (
{
angle = 90;
position = "{-603, 431}";
}
);
layerId = "258ED206-D907-4350-8EBA-CBDDA1C16BF7";
name = Regular;
paths = (
{
closed = 1;
nodes = (
"177 752 OFFCURVE",
"34 601 OFFCURVE",
"34 369 CURVE SMOOTH",
"34 138 OFFCURVE",
"173 -10 OFFCURVE",
"394 -10 CURVE SMOOTH",
"612 -10 OFFCURVE",
"752 139 OFFCURVE",
"752 369 CURVE SMOOTH",
"752 601 OFFCURVE",
"609 752 OFFCURVE",
"394 752 CURVE SMOOTH"
);
},
{
closed = 1;
nodes = (
"305 146 OFFCURVE",
"272 206 OFFCURVE",
"272 366 CURVE SMOOTH",
"272 531 OFFCURVE",
"307 598 OFFCURVE",
"394 598 CURVE SMOOTH",
"479 598 OFFCURVE",
"514 531 OFFCURVE",
"514 366 CURVE SMOOTH",
"514 206 OFFCURVE",
"481 146 OFFCURVE",
"394 146 CURVE SMOOTH"
);
}
);
width = 786;
}
);
unicode = 004F;
},
{
color = 5;
glyphname = Oslash;
lastChange = "2015-06-11 13:40:03 +0000";
layers = (
{
background = {
paths = (
{
closed = 1;
nodes = (
"177 752 OFFCURVE",
"34 601 OFFCURVE",
"34 369 CURVE SMOOTH",
"34 138 OFFCURVE",
"173 -10 OFFCURVE",
"394 -10 CURVE SMOOTH",
"612 -10 OFFCURVE",
"752 139 OFFCURVE",
"752 369 CURVE SMOOTH",
"752 601 OFFCURVE",
"609 752 OFFCURVE",
"394 752 CURVE SMOOTH"
);
},
{
closed = 1;
nodes = (
"305 146 OFFCURVE",
"272 206 OFFCURVE",
"272 366 CURVE SMOOTH",
"272 531 OFFCURVE",
"307 598 OFFCURVE",
"394 598 CURVE SMOOTH",
"479 598 OFFCURVE",
"514 531 OFFCURVE",
"514 366 CURVE SMOOTH",
"514 206 OFFCURVE",
"481 146 OFFCURVE",
"394 146 CURVE SMOOTH"
);
},
{
closed = 1;
nodes = (
"785 668 OFFCURVE",
"784 678 OFFCURVE",
"776 686 CURVE SMOOTH",
"722 742 LINE SMOOTH",
"714 750 OFFCURVE",
"702 748 OFFCURVE",
"691 737 CURVE SMOOTH",
"21 84 LINE SMOOTH",
"9 72 OFFCURVE",
"10 62 OFFCURVE",
"25 47 CURVE SMOOTH",
"64 7 LINE SMOOTH",
"80 -9 OFFCURVE",
"92 -8 OFFCURVE",
"107 7 CURVE SMOOTH",
"775 659 LINE SMOOTH"
);
}
);
};
layerId = "258ED206-D907-4350-8EBA-CBDDA1C16BF7";
name = Regular;
paths = (
{
closed = 1;
nodes = (
"722 742 LINE SMOOTH",
"714 750 OFFCURVE",
"702 748 OFFCURVE",
"691 737 CURVE SMOOTH",
"625.978 673.628 LINE",
"565.773 724.014 OFFCURVE",
"486.559 752 OFFCURVE",
"394 752 CURVE SMOOTH",
"177 752 OFFCURVE",
"34 601 OFFCURVE",
"34 369 CURVE SMOOTH",
"34 283.385 OFFCURVE",
"53.094 209.172 OFFCURVE",
"88.379 149.669 CURVE",
"21 84 LINE SMOOTH",
"9 72 OFFCURVE",
"10 62 OFFCURVE",
"25 47 CURVE SMOOTH",
"64 7 LINE SMOOTH",
"80 -9 OFFCURVE",
"92 -8 OFFCURVE",
"107 7 CURVE SMOOTH",
"164.116 62.748 LINE",
"223.663 15.829 OFFCURVE",
"301.676 -10 OFFCURVE",
"394 -10 CURVE SMOOTH",
"612 -10 OFFCURVE",
"752 139 OFFCURVE",
"752 369 CURVE SMOOTH",
"752 452.736 OFFCURVE",
"733.371 525.92 OFFCURVE",
"699.451 585.261 CURVE",
"775 659 LINE",
"785 668 OFFCURVE",
"784 678 OFFCURVE",
"776 686 CURVE SMOOTH"
);
},
{
closed = 1;
nodes = (
"272 531 OFFCURVE",
"307 598 OFFCURVE",
"394 598 CURVE SMOOTH",
"438.199 598 OFFCURVE",
"468.878 579.884 OFFCURVE",
"488.147 539.294 CURVE",
"272.654 329.269 LINE",
"272 366 LINE"
);
},
{
closed = 1;
nodes = (
"514 206 OFFCURVE",
"481 146 OFFCURVE",
"394 146 CURVE SMOOTH",
"349.772 146 OFFCURVE",
"319.374 160.817 OFFCURVE",
"299.982 195.36 CURVE",
"513.326 403.593 LINE",
"514 366 LINE SMOOTH"
);
}
);
width = 786;
}
);
unicode = 00D8;
},
{
color = 5;
glyphname = OE;
lastChange = "2015-06-11 13:41:37 +0000";
layers = (
{
layerId = "258ED206-D907-4350-8EBA-CBDDA1C16BF7";
name = Regular;
paths = (
{
closed = 1;
nodes = (
"753 164 LINE SMOOTH",
"744 164 OFFCURVE",
"741 167 OFFCURVE",
"741 178 CURVE SMOOTH",
"741 278 LINE SMOOTH",
"741 286 OFFCURVE",
"747 292 OFFCURVE",
"757 292 CURVE SMOOTH",
"942 292 LINE SMOOTH",
"955 292 OFFCURVE",
"960 300 OFFCURVE",
"960 309 CURVE SMOOTH",
"960 433 LINE SMOOTH",
"960 446 OFFCURVE",
"953 453 OFFCURVE",
"939 453 CURVE SMOOTH",
"759 453 LINE SMOOTH",
"749 453 OFFCURVE",
"741 460 OFFCURVE",
"741 474 CURVE SMOOTH",
"741 559 LINE SMOOTH",
"741 572 OFFCURVE",
"749 578 OFFCURVE",
"764 578 CURVE SMOOTH",
"1064 578 LINE SMOOTH",
"1082 578 OFFCURVE",
"1090 589 OFFCURVE",
"1090 605 CURVE SMOOTH",
"1091 721 LINE SMOOTH",
"1091 734 OFFCURVE",
"1085 742 OFFCURVE",
"1073 742 CURVE SMOOTH",
"546.962 742 LINE",
"511.758 748.587 OFFCURVE",
"469.264 752 OFFCURVE",
"418 752 CURVE SMOOTH",
"177 752 OFFCURVE",
"34 601 OFFCURVE",
"34 369 CURVE SMOOTH",
"34 138 OFFCURVE",
"173 -10 OFFCURVE",
"406 -10 CURVE SMOOTH",
"462.443 -10 OFFCURVE",
"508.811 -6.588 OFFCURVE",
"546.861 0 CURVE",
"1076 0 LINE SMOOTH",
"1093 0 OFFCURVE",
"1100 10 OFFCURVE",
"1100 22 CURVE SMOOTH",
"1100 145 LINE SMOOTH",
"1100 159 OFFCURVE",
"1092 164 OFFCURVE",
"1078 164 CURVE SMOOTH"
);
},
{
closed = 1;
nodes = (
"305 146 OFFCURVE",
"272 206 OFFCURVE",
"272 366 CURVE SMOOTH",
"272 531 OFFCURVE",
"307 598 OFFCURVE",
"394 598 CURVE SMOOTH",
"479 598 OFFCURVE",
"514 531 OFFCURVE",
"514 366 CURVE SMOOTH",
"514 206 OFFCURVE",
"481 146 OFFCURVE",
"394 146 CURVE SMOOTH"
);
}
);
width = 1128;
}
);
unicode = 0152;
},
{
glyphname = P;
lastChange = "2015-06-11 13:01:42 +0000";
layers = (
{
background = {
paths = (
{
closed = 1;
nodes = (
"717 664 OFFCURVE",
"580 742 OFFCURVE",
"410 742 CURVE SMOOTH",
"65 742 LINE SMOOTH",
"53 742 OFFCURVE",
"46 734 OFFCURVE",
"46 719 CURVE SMOOTH",
"42 25 LINE SMOOTH",
"42 8 OFFCURVE",
"48 0 OFFCURVE",
"68 0 CURVE SMOOTH",
"241 0 LINE SMOOTH",
"264 0 OFFCURVE",
"274 8 OFFCURVE",
"274 29 CURVE SMOOTH",
"274 265 LINE SMOOTH",
"274 272 OFFCURVE",
"277 276 OFFCURVE",
"286 276 CURVE SMOOTH",
"436 276 LINE SMOOTH",
"605 276 OFFCURVE",
"717 363 OFFCURVE",
"717 506 CURVE SMOOTH"
);
},
{
closed = 1;
nodes = (
"274 561 LINE SMOOTH",
"274 576 OFFCURVE",
"280 582 OFFCURVE",
"297 582 CURVE SMOOTH",
"396 582 LINE SMOOTH",
"442 582 OFFCURVE",
"479 554 OFFCURVE",
"479 507 CURVE SMOOTH",
"479 469 OFFCURVE",
"450 436 OFFCURVE",
"402 436 CURVE SMOOTH",
"291 436 LINE SMOOTH",
"278 436 OFFCURVE",
"274 443 OFFCURVE",
"274 458 CURVE SMOOTH"
);
}
);
};
layerId = "258ED206-D907-4350-8EBA-CBDDA1C16BF7";
name = Regular;
paths = (
{
closed = 1;
nodes = (
"710 664 OFFCURVE",
"573 742 OFFCURVE",
"409 742 CURVE SMOOTH",
"65 742 LINE SMOOTH",
"53 742 OFFCURVE",
"46 734 OFFCURVE",
"46 719 CURVE SMOOTH",
"46 25 LINE SMOOTH",
"46 8 OFFCURVE",
"52 0 OFFCURVE",
"72 0 CURVE SMOOTH",
"240 0 LINE SMOOTH",
"263 0 OFFCURVE",
"273 8 OFFCURVE",
"273 29 CURVE SMOOTH",
"273 265 LINE SMOOTH",
"273 272 OFFCURVE",
"276 276 OFFCURVE",
"285 276 CURVE SMOOTH",
"435 276 LINE SMOOTH",
"598 276 OFFCURVE",
"710 363 OFFCURVE",
"710 506 CURVE SMOOTH"
);
},
{
closed = 1;
nodes = (
"273 561 LINE SMOOTH",
"273 576 OFFCURVE",
"279 582 OFFCURVE",
"296 582 CURVE SMOOTH",
"395 582 LINE SMOOTH",
"441 582 OFFCURVE",
"478 554 OFFCURVE",
"478 509 CURVE SMOOTH",
"478 469 OFFCURVE",
"449 436 OFFCURVE",
"401 436 CURVE SMOOTH",
"290 436 LINE SMOOTH",
"277 436 OFFCURVE",
"273 443 OFFCURVE",
"273 458 CURVE SMOOTH"
);
}
);
width = 720;
}
);
leftMetricsKey = H;
unicode = 0050;
},
{
color = 5;
glyphname = Thorn;
lastChange = "2015-06-11 13:42:25 +0000";
layers = (
{
layerId = "258ED206-D907-4350-8EBA-CBDDA1C16BF7";
name = Regular;
paths = (
{
closed = 1;
nodes = (
"283 608 LINE SMOOTH",
"276 608 OFFCURVE",
"273 612 OFFCURVE",
"273 620 CURVE SMOOTH",
"273 721 LINE SMOOTH",
"273 734 OFFCURVE",
"267 742 OFFCURVE",
"255 742 CURVE SMOOTH",
"65 742 LINE SMOOTH",
"54 742 OFFCURVE",
"46 734 OFFCURVE",
"46 719 CURVE SMOOTH",
"46 25 LINE SMOOTH",
"46.191 7.752 OFFCURVE",
"52.313 0 OFFCURVE",
"72 0 CURVE SMOOTH",
"240 0 LINE SMOOTH",
"263 0 OFFCURVE",
"273 8 OFFCURVE",
"273 29 CURVE SMOOTH",
"273 131 LINE SMOOTH",
"273 138 OFFCURVE",
"276 142 OFFCURVE",
"285 142 CURVE SMOOTH",
"435 142 LINE SMOOTH",
"598 142 OFFCURVE",
"710 229 OFFCURVE",
"710 372 CURVE SMOOTH",
"710 530 OFFCURVE",
"573 608 OFFCURVE",
"409 608 CURVE SMOOTH"
);
},
{
closed = 1;
nodes = (
"290 302 LINE SMOOTH",
"277 302 OFFCURVE",
"273 309 OFFCURVE",
"273 324 CURVE SMOOTH",
"273 427 LINE SMOOTH",
"273 442 OFFCURVE",
"279 448 OFFCURVE",
"296 448 CURVE SMOOTH",
"395 448 LINE SMOOTH",
"441 448 OFFCURVE",
"478 420 OFFCURVE",
"478 375 CURVE SMOOTH",
"478 335 OFFCURVE",
"449 302 OFFCURVE",
"401 302 CURVE SMOOTH"
);
}
);
width = 720;
}
);
unicode = 00DE;
},
{
glyphname = Q;
lastChange = "2015-06-11 13:01:42 +0000";
layers = (
{
background = {
paths = (
{
closed = 1;
nodes = (
"30 138 OFFCURVE",
"169 -8 OFFCURVE",
"390 -8 CURVE SMOOTH",
"416 -8 OFFCURVE",
"437 -7 OFFCURVE",
"461 -4 CURVE SMOOTH",
"468 -3 OFFCURVE",
"473 -4 OFFCURVE",
"477 -8 CURVE SMOOTH",
"500 -39 OFFCURVE",
"520 -60 OFFCURVE",
"550 -83 CURVE SMOOTH",
"587 -110 OFFCURVE",
"658 -128 OFFCURVE",
"705 -128 CURVE SMOOTH",
"737 -128 OFFCURVE",
"749 -122 OFFCURVE",
"749 -97 CURVE SMOOTH",
"749 13 LINE SMOOTH",
"749 20 OFFCURVE",
"746 28 OFFCURVE",
"732 30 CURVE SMOOTH",
"689 36 OFFCURVE",
"642 61 OFFCURVE",
"642 78 CURVE SMOOTH",
"642 82 OFFCURVE",
"642 84 OFFCURVE",
"644 86 CURVE",
"711 152 OFFCURVE",
"749 249 OFFCURVE",
"749 369 CURVE SMOOTH",
"749 601 OFFCURVE",
"606 753 OFFCURVE",
"390 753 CURVE SMOOTH",
"173 753 OFFCURVE",
"30 601 OFFCURVE",
"30 369 CURVE SMOOTH"
);
},
{
closed = 1;
nodes = (
"268 532 OFFCURVE",
"303 599 OFFCURVE",
"390 599 CURVE SMOOTH",
"476 599 OFFCURVE",
"511 532 OFFCURVE",
"511 367 CURVE SMOOTH",
"511 207 OFFCURVE",
"478 147 OFFCURVE",
"390 147 CURVE SMOOTH",
"301 147 OFFCURVE",
"268 207 OFFCURVE",
"268 367 CURVE SMOOTH"
);
}
);
};
layerId = "258ED206-D907-4350-8EBA-CBDDA1C16BF7";
name = Regular;
paths = (
{
closed = 1;
nodes = (
"34 138 OFFCURVE",
"173 -10 OFFCURVE",
"394 -10 CURVE SMOOTH",
"420 -10 OFFCURVE",
"441 -9 OFFCURVE",
"465 -6 CURVE SMOOTH",
"472 -5 OFFCURVE",
"477 -6 OFFCURVE",
"480 -10 CURVE SMOOTH",
"504 -41 OFFCURVE",
"524 -62 OFFCURVE",
"554 -83 CURVE SMOOTH",
"592 -109 OFFCURVE",
"662 -128 OFFCURVE",
"709 -128 CURVE SMOOTH",
"741 -128 OFFCURVE",
"753 -122 OFFCURVE",
"753 -97 CURVE SMOOTH",
"753 13 LINE SMOOTH",
"753 20 OFFCURVE",
"750 28 OFFCURVE",
"736 30 CURVE SMOOTH",
"693 36 OFFCURVE",
"646 61 OFFCURVE",
"646 78 CURVE SMOOTH",
"646 82 OFFCURVE",
"646 84 OFFCURVE",
"648 86 CURVE",
"715 152 OFFCURVE",
"753 249 OFFCURVE",
"753 369 CURVE SMOOTH",
"753 601 OFFCURVE",
"610 752 OFFCURVE",
"394 752 CURVE SMOOTH",
"177 752 OFFCURVE",
"34 601 OFFCURVE",
"34 369 CURVE SMOOTH"
);
},
{
closed = 1;
nodes = (
"272 532 OFFCURVE",
"307 598 OFFCURVE",
"394 598 CURVE SMOOTH",
"480 598 OFFCURVE",
"515 532 OFFCURVE",
"515 367 CURVE SMOOTH",
"515 206 OFFCURVE",
"482 146 OFFCURVE",
"394 146 CURVE SMOOTH",
"305 146 OFFCURVE",
"272 206 OFFCURVE",
"272 367 CURVE SMOOTH"
);
}
);
width = 787;
}
);
leftMetricsKey = O;
rightMetricsKey = O;
unicode = 0051;
},
{
glyphname = R;
lastChange = "2015-06-11 13:01:42 +0000";
layers = (
{
background = {
paths = (
{
closed = 1;
nodes = (
"580 324 LINE SMOOTH",
"577 332 OFFCURVE",
"577 340 OFFCURVE",
"584 343 CURVE SMOOTH",
"663 373 OFFCURVE",
"718 443 OFFCURVE",
"718 528 CURVE SMOOTH",
"718 664 OFFCURVE",
"605 742 OFFCURVE",
"410 742 CURVE SMOOTH",
"65 742 LINE SMOOTH",
"53 742 OFFCURVE",
"46 734 OFFCURVE",
"46 719 CURVE SMOOTH",
"42 25 LINE SMOOTH",
"42 8 OFFCURVE",
"48 0 OFFCURVE",
"68 0 CURVE SMOOTH",
"241 0 LINE SMOOTH",
"264 0 OFFCURVE",
"274 8 OFFCURVE",
"274 29 CURVE SMOOTH",
"274 296 LINE SMOOTH",
"274 299 OFFCURVE",
"277 307 OFFCURVE",
"286 307 CURVE SMOOTH",
"333 307 LINE SMOOTH",
"352 307 OFFCURVE",
"360 302 OFFCURVE",
"364 291 CURVE SMOOTH",
"458 21 LINE",
"462 7 OFFCURVE",
"471 0 OFFCURVE",
"485 0 CURVE SMOOTH",
"688 0 LINE SMOOTH",
"704 0 OFFCURVE",
"713 15 OFFCURVE",
"706 32 CURVE SMOOTH"
);
},
{
closed = 1;
nodes = (
"291 456 LINE SMOOTH",
"278 456 OFFCURVE",
"274 462 OFFCURVE",
"274 477 CURVE SMOOTH",
"274 574 LINE SMOOTH",
"274 589 OFFCURVE",
"280 594 OFFCURVE",
"297 594 CURVE SMOOTH",
"396 594 LINE SMOOTH",
"442 594 OFFCURVE",
"481 567 OFFCURVE",
"481 523 CURVE SMOOTH",
"481 485 OFFCURVE",
"453 456 OFFCURVE",
"402 456 CURVE SMOOTH"
);
}
);
};
layerId = "258ED206-D907-4350-8EBA-CBDDA1C16BF7";
name = Regular;
paths = (
{
closed = 1;
nodes = (
"579 324 LINE SMOOTH",
"576 332 OFFCURVE",
"576 340 OFFCURVE",
"583 343 CURVE SMOOTH",
"659 373 OFFCURVE",
"714 444 OFFCURVE",
"714 535 CURVE SMOOTH",
"714 665 OFFCURVE",
"601 742 OFFCURVE",
"409 742 CURVE SMOOTH",
"65 742 LINE SMOOTH",
"53 742 OFFCURVE",
"46 734 OFFCURVE",
"46 719 CURVE SMOOTH",
"46 25 LINE SMOOTH",
"46 8 OFFCURVE",
"52 0 OFFCURVE",
"72 0 CURVE SMOOTH",
"240 0 LINE SMOOTH",
"263 0 OFFCURVE",
"273 8 OFFCURVE",
"273 29 CURVE SMOOTH",
"273 296 LINE SMOOTH",
"273 299 OFFCURVE",
"276 307 OFFCURVE",
"285 307 CURVE SMOOTH",
"341 307 LINE SMOOTH",
"360 307 OFFCURVE",
"368 302 OFFCURVE",
"372 291 CURVE SMOOTH",
"466 21 LINE SMOOTH",
"470 7 OFFCURVE",
"479 0 OFFCURVE",
"493 0 CURVE SMOOTH",
"687 0 LINE SMOOTH",
"703 0 OFFCURVE",
"712 15 OFFCURVE",
"705 32 CURVE SMOOTH"
);
},
{
closed = 1;
nodes = (
"290 456 LINE SMOOTH",
"277 456 OFFCURVE",
"273 462 OFFCURVE",
"273 477 CURVE SMOOTH",
"273 574 LINE SMOOTH",
"273 589 OFFCURVE",
"279 594 OFFCURVE",
"296 594 CURVE SMOOTH",
"394 594 LINE SMOOTH",
"440 594 OFFCURVE",
"479 567 OFFCURVE",
"479 523 CURVE SMOOTH",
"479 485 OFFCURVE",
"451 456 OFFCURVE",
"400 456 CURVE SMOOTH"
);
}
);
width = 724;
}
);
leftMetricsKey = H;
unicode = 0052;
},
{
glyphname = S;
lastChange = "2015-06-11 13:01:42 +0000";
layers = (
{
background = {
paths = (
{
closed = 1;
nodes = (
"501 529 OFFCURVE",
"507 528 OFFCURVE",
"517 535 CURVE SMOOTH",
"626 614 LINE SMOOTH",
"639 624 OFFCURVE",
"632 635 OFFCURVE",
"626 644 CURVE SMOOTH",
"580 709 OFFCURVE",
"467 754 OFFCURVE",
"346 754 CURVE SMOOTH",
"159 754 OFFCURVE",
"40 645 OFFCURVE",
"40 515 CURVE SMOOTH",
"40 410 OFFCURVE",
"116 323 OFFCURVE",
"236 293 CURVE SMOOTH",
"388 256 LINE SMOOTH",
"431 246 OFFCURVE",
"451 226 OFFCURVE",
"451 202 CURVE SMOOTH",
"451 166 OFFCURVE",
"403 144 OFFCURVE",
"340 144 CURVE SMOOTH",
"251 144 OFFCURVE",
"212 167 OFFCURVE",
"168 224 CURVE SMOOTH",
"160 234 OFFCURVE",
"148 238 OFFCURVE",
"130 226 CURVE SMOOTH",
"27 155 LINE SMOOTH",
"13 144 OFFCURVE",
"13 136 OFFCURVE",
"21 122 CURVE SMOOTH",
"68 43 OFFCURVE",
"201 -10 OFFCURVE",
"347 -10 CURVE SMOOTH",
"544 -10 OFFCURVE",
"667 86 OFFCURVE",
"667 234 CURVE SMOOTH",
"667 337 OFFCURVE",
"609 421 OFFCURVE",
"484 452 CURVE SMOOTH",
"318 495 LINE SMOOTH",
"268 507 OFFCURVE",
"254 528 OFFCURVE",
"254 546 CURVE SMOOTH",
"254 571 OFFCURVE",
"281 597 OFFCURVE",
"356 597 CURVE SMOOTH",
"434 597 OFFCURVE",
"463 569 OFFCURVE",
"487 543 CURVE SMOOTH"
);
}
);
};
layerId = "258ED206-D907-4350-8EBA-CBDDA1C16BF7";
name = Regular;
paths = (
{
closed = 1;
nodes = (
"496 529 OFFCURVE",
"502 528 OFFCURVE",
"512 535 CURVE SMOOTH",
"621 614 LINE SMOOTH",
"634 624 OFFCURVE",
"627 635 OFFCURVE",
"621 644 CURVE SMOOTH",
"575 709 OFFCURVE",
"462 752 OFFCURVE",
"343 752 CURVE SMOOTH",
"154 752 OFFCURVE",
"35 645 OFFCURVE",
"35 515 CURVE SMOOTH",
"35 410 OFFCURVE",
"111 323 OFFCURVE",
"231 293 CURVE SMOOTH",
"383 256 LINE SMOOTH",
"426 246 OFFCURVE",
"446 226 OFFCURVE",
"446 202 CURVE SMOOTH",
"446 165 OFFCURVE",
"398 144 OFFCURVE",
"325 144 CURVE SMOOTH",
"246 144 OFFCURVE",
"207 167 OFFCURVE",
"163 224 CURVE SMOOTH",
"155 234 OFFCURVE",
"143 238 OFFCURVE",
"125 226 CURVE SMOOTH",
"22 155 LINE SMOOTH",
"8 144 OFFCURVE",
"8 136 OFFCURVE",
"16 122 CURVE SMOOTH",
"63 43 OFFCURVE",
"196 -10 OFFCURVE",
"342 -10 CURVE SMOOTH",
"539 -10 OFFCURVE",
"662 86 OFFCURVE",
"662 234 CURVE SMOOTH",
"662 337 OFFCURVE",
"604 421 OFFCURVE",
"479 452 CURVE SMOOTH",
"313 495 LINE SMOOTH",
"263 507 OFFCURVE",
"249 528 OFFCURVE",
"249 546 CURVE SMOOTH",
"249 571 OFFCURVE",
"276 597 OFFCURVE",
"351 597 CURVE SMOOTH",
"429 597 OFFCURVE",
"458 569 OFFCURVE",
"482 543 CURVE SMOOTH"
);
}
);
width = 686;
}
);
unicode = 0053;
},
{
color = 5;
glyphname = Schwa;
lastChange = "2015-06-11 13:51:49 +0000";
layers = (
{
layerId = "258ED206-D907-4350-8EBA-CBDDA1C16BF7";
name = Regular;
paths = (
{
closed = 1;
nodes = (
"510 431 OFFCURVE",
"503 425 OFFCURVE",
"490 425 CURVE SMOOTH",
"57 425 LINE SMOOTH",
"35 425 OFFCURVE",
"34 414 OFFCURVE",
"34 392 CURVE SMOOTH",
"34 136 OFFCURVE",
"155 -10 OFFCURVE",
"388 -10 CURVE SMOOTH",
"581 -10 OFFCURVE",
"750 158 OFFCURVE",
"750 380 CURVE SMOOTH",
"750 599 OFFCURVE",
"613 752 OFFCURVE",
"391 752 CURVE SMOOTH",
"245 752 OFFCURVE",
"139 689 OFFCURVE",
"77 567 CURVE SMOOTH",
"69 551 OFFCURVE",
"70 542 OFFCURVE",
"82 536 CURVE SMOOTH",
"220 468 LINE SMOOTH",
"237 459 OFFCURVE",
"243 462 OFFCURVE",
"247 469 CURVE SMOOTH",
"293 544 OFFCURVE",
"331 578 OFFCURVE",
"393 578 CURVE SMOOTH",
"491 578 OFFCURVE",
"510 506 OFFCURVE",
"510 447 CURVE SMOOTH"
);
},
{
closed = 1;
nodes = (
"496 192 OFFCURVE",
"467 146 OFFCURVE",
"386 146 CURVE SMOOTH",
"318 146 OFFCURVE",
"277 201 OFFCURVE",
"277 267 CURVE SMOOTH",
"277 282 OFFCURVE",
"282 285 OFFCURVE",
"299 285 CURVE SMOOTH",
"508 284 LINE"
);
}
);
width = 784;
}
);
unicode = 018F;
},
{
glyphname = T;
lastChange = "2015-06-11 13:01:42 +0000";
layers = (
{
background = {
paths = (
{
closed = 1;
nodes = (
"39 742 LINE SMOOTH",
"22 742 OFFCURVE",
"14 732 OFFCURVE",
"14 719 CURVE SMOOTH",
"14 600 LINE SMOOTH",
"14 586 OFFCURVE",
"23 581 OFFCURVE",
"37 581 CURVE SMOOTH",
"215 581 LINE SMOOTH",
"223 581 OFFCURVE",
"226 577 OFFCURVE",
"226 567 CURVE SMOOTH",
"226 20 LINE SMOOTH",
"226 7 OFFCURVE",
"233 0 OFFCURVE",
"244 0 CURVE SMOOTH",
"431 0 LINE SMOOTH",
"442 0 OFFCURVE",
"450 7 OFFCURVE",
"450 22 CURVE SMOOTH",
"453 571 LINE",
"454 578 OFFCURVE",
"457 581 OFFCURVE",
"465 581 CURVE SMOOTH",
"644 581 LINE SMOOTH",
"657 581 OFFCURVE",
"666 586 OFFCURVE",
"666 600 CURVE SMOOTH",
"666 719 LINE SMOOTH",
"666 732 OFFCURVE",
"658 742 OFFCURVE",
"641 742 CURVE SMOOTH"
);
}
);
};
layerId = "258ED206-D907-4350-8EBA-CBDDA1C16BF7";
name = Regular;
paths = (
{
closed = 1;
nodes = (
"45 742 LINE SMOOTH",
"28 742 OFFCURVE",
"20 732 OFFCURVE",
"20 719 CURVE SMOOTH",
"20 600 LINE SMOOTH",
"20 586 OFFCURVE",
"29 581 OFFCURVE",
"43 581 CURVE SMOOTH",
"219 581 LINE SMOOTH",
"227 581 OFFCURVE",
"230 577 OFFCURVE",
"230 567 CURVE SMOOTH",
"230 20 LINE SMOOTH",
"230 7 OFFCURVE",
"237 0 OFFCURVE",
"248 0 CURVE SMOOTH",
"438 0 LINE SMOOTH",
"449 0 OFFCURVE",
"457 7 OFFCURVE",
"457 22 CURVE SMOOTH",
"457 571 LINE SMOOTH",
"457 578 OFFCURVE",
"461 581 OFFCURVE",
"469 581 CURVE SMOOTH",
"646 581 LINE SMOOTH",
"659 581 OFFCURVE",
"668 586 OFFCURVE",
"668 600 CURVE SMOOTH",
"668 719 LINE SMOOTH",
"668 732 OFFCURVE",
"660 742 OFFCURVE",
"643 742 CURVE SMOOTH"
);
}
);
width = 688;
}
);
unicode = 0054;
},
{
glyphname = U;
lastChange = "2015-06-11 13:01:42 +0000";
layers = (
{
background = {
paths = (
{
closed = 1;
nodes = (
"684 721 LINE SMOOTH",
"684 734 OFFCURVE",
"678 742 OFFCURVE",
"666 742 CURVE SMOOTH",
"520 742 LINE SMOOTH",
"508 742 OFFCURVE",
"501 734 OFFCURVE",
"501 719 CURVE SMOOTH",
"497 290 LINE SMOOTH",
"495 179 OFFCURVE",
"446 147 OFFCURVE",
"385 147 CURVE SMOOTH",
"320 147 OFFCURVE",
"271 185 OFFCURVE",
"271 287 CURVE SMOOTH",
"271 721 LINE SMOOTH",
"271 734 OFFCURVE",
"265 742 OFFCURVE",
"253 742 CURVE SMOOTH",
"62 742 LINE SMOOTH",
"51 742 OFFCURVE",
"43 734 OFFCURVE",
"43 719 CURVE SMOOTH",
"38 311 LINE SMOOTH",
"36 102 OFFCURVE",
"125 -12 OFFCURVE",
"364 -12 CURVE SMOOTH",
"555 -12 OFFCURVE",
"684 60 OFFCURVE",
"684 291 CURVE SMOOTH"
);
}
);
};
layerId = "258ED206-D907-4350-8EBA-CBDDA1C16BF7";
name = Regular;
paths = (
{
closed = 1;
nodes = (
"680 721 LINE SMOOTH",
"680 734 OFFCURVE",
"674 742 OFFCURVE",
"662 742 CURVE SMOOTH",
"512 742 LINE SMOOTH",
"500 742 OFFCURVE",
"493 734 OFFCURVE",
"493 719 CURVE SMOOTH",
"493 292 LINE SMOOTH",
"493 181 OFFCURVE",
"439 149 OFFCURVE",
"377 149 CURVE SMOOTH",
"309 149 OFFCURVE",
"267 187 OFFCURVE",
"267 289 CURVE SMOOTH",
"267 721 LINE SMOOTH",
"267 734 OFFCURVE",
"261 742 OFFCURVE",
"249 742 CURVE SMOOTH",
"59 742 LINE SMOOTH",
"48 742 OFFCURVE",
"40 734 OFFCURVE",
"40 719 CURVE SMOOTH",
"40 313 LINE SMOOTH",
"40 104 OFFCURVE",
"121 -10 OFFCURVE",
"360 -10 CURVE SMOOTH",
"551 -10 OFFCURVE",
"680 62 OFFCURVE",
"680 293 CURVE SMOOTH"
);
}
);
width = 720;
}
);
unicode = 0055;
},
{
glyphname = V;
lastChange = "2015-06-11 13:01:42 +0000";
layers = (
{
background = {
paths = (
{
closed = 1;
nodes = (
"528 742 LINE SMOOTH",
"516 742 OFFCURVE",
"507 734 OFFCURVE",
"502 721 CURVE SMOOTH",
"364 273 LINE SMOOTH",
"360 263 OFFCURVE",
"357 263 OFFCURVE",
"354 272 CURVE SMOOTH",
"218 721 LINE SMOOTH",
"214 734 OFFCURVE",
"205 742 OFFCURVE",
"193 742 CURVE SMOOTH",
"10 742 LINE SMOOTH",
"-6 742 OFFCURVE",
"-15 728 OFFCURVE",
"-9 713 CURVE SMOOTH",
"223 25 LINE SMOOTH",
"228 8 OFFCURVE",
"240 0 OFFCURVE",
"260 0 CURVE SMOOTH",
"422 0 LINE SMOOTH",
"442 0 OFFCURVE",
"454 8 OFFCURVE",
"459 25 CURVE SMOOTH",
"691 713 LINE SMOOTH",
"696 728 OFFCURVE",
"688 742 OFFCURVE",
"672 742 CURVE SMOOTH"
);
}
);
};
layerId = "258ED206-D907-4350-8EBA-CBDDA1C16BF7";
name = Regular;
paths = (
{
closed = 1;
nodes = (
"527 742 LINE SMOOTH",
"515 742 OFFCURVE",
"504 734 OFFCURVE",
"501 721 CURVE SMOOTH",
"376 283 LINE SMOOTH",
"373 273 OFFCURVE",
"369 273 OFFCURVE",
"366 282 CURVE SMOOTH",
"232 721 LINE SMOOTH",
"228 734 OFFCURVE",
"219 742 OFFCURVE",
"207 742 CURVE SMOOTH",
"14 742 LINE SMOOTH",
"-2 742 OFFCURVE",
"-11 728 OFFCURVE",
"-5 713 CURVE SMOOTH",
"227 25 LINE SMOOTH",
"232 8 OFFCURVE",
"244 0 OFFCURVE",
"264 0 CURVE SMOOTH",
"426 0 LINE SMOOTH",
"446 0 OFFCURVE",
"458 8 OFFCURVE",
"463 25 CURVE SMOOTH",
"695 713 LINE SMOOTH",
"700 728 OFFCURVE",
"692 742 OFFCURVE",
"676 742 CURVE SMOOTH"
);
}
);
width = 690;
}
);
unicode = 0056;
},
{
glyphname = W;
lastChange = "2015-06-11 13:01:42 +0000";
layers = (
{
background = {
paths = (
{
closed = 1;
nodes = (
"897 742 LINE SMOOTH",
"876 742 OFFCURVE",
"868 734 OFFCURVE",
"865 721 CURVE SMOOTH",
"763 339 LINE SMOOTH",
"761 331 OFFCURVE",
"754 333 OFFCURVE",
"752 341 CURVE SMOOTH",
"642 721 LINE SMOOTH",
"638 734 OFFCURVE",
"631 742 OFFCURVE",
"610 742 CURVE SMOOTH",
"470 742 LINE SMOOTH",
"449 742 OFFCURVE",
"441 734 OFFCURVE",
"438 721 CURVE SMOOTH",
"333 346 LINE SMOOTH",
"330 335 OFFCURVE",
"325 335 OFFCURVE",
"321 350 CURVE SMOOTH",
"215 721 LINE SMOOTH",
"211 734 OFFCURVE",
"204 742 OFFCURVE",
"183 742 CURVE SMOOTH",
"18 742 LINE SMOOTH",
"-8 742 OFFCURVE",
"-18 725 OFFCURVE",
"-12 702 CURVE SMOOTH",
"192 25 LINE SMOOTH",
"198 8 OFFCURVE",
"208 0 OFFCURVE",
"228 0 CURVE SMOOTH",
"371 0 LINE SMOOTH",
"392 0 OFFCURVE",
"402 8 OFFCURVE",
"407 25 CURVE SMOOTH",
"510 375 LINE SMOOTH",
"517 395 OFFCURVE",
"522 393 OFFCURVE",
"526 377 CURVE SMOOTH",
"630 25 LINE SMOOTH",
"635 8 OFFCURVE",
"646 0 OFFCURVE",
"666 0 CURVE SMOOTH",
"804 0 LINE SMOOTH",
"824 0 OFFCURVE",
"834 8 OFFCURVE",
"840 25 CURVE SMOOTH",
"1043 702 LINE SMOOTH",
"1049 725 OFFCURVE",
"1039 742 OFFCURVE",
"1013 742 CURVE SMOOTH"
);
}
);
};
layerId = "258ED206-D907-4350-8EBA-CBDDA1C16BF7";
name = Regular;
paths = (
{
closed = 1;
nodes = (
"900 742 LINE SMOOTH",
"879 742 OFFCURVE",
"871 734 OFFCURVE",
"868 721 CURVE SMOOTH",
"766 339 LINE SMOOTH",
"764 331 OFFCURVE",
"757 333 OFFCURVE",
"755 341 CURVE SMOOTH",
"645 721 LINE SMOOTH",
"641 734 OFFCURVE",
"634 742 OFFCURVE",
"613 742 CURVE SMOOTH",
"473 742 LINE SMOOTH",
"452 742 OFFCURVE",
"444 734 OFFCURVE",
"441 721 CURVE SMOOTH",
"336 346 LINE SMOOTH",
"333 335 OFFCURVE",
"328 335 OFFCURVE",
"324 350 CURVE SMOOTH",
"218 721 LINE SMOOTH",
"214 734 OFFCURVE",
"207 742 OFFCURVE",
"186 742 CURVE SMOOTH",
"21 742 LINE SMOOTH",
"-5 742 OFFCURVE",
"-15 725 OFFCURVE",
"-9 702 CURVE SMOOTH",
"195 25 LINE SMOOTH",
"201 8 OFFCURVE",
"211 0 OFFCURVE",
"231 0 CURVE SMOOTH",
"374 0 LINE SMOOTH",
"395 0 OFFCURVE",
"405 8 OFFCURVE",
"410 25 CURVE SMOOTH",
"513 375 LINE SMOOTH",
"520 395 OFFCURVE",
"525 393 OFFCURVE",
"529 377 CURVE SMOOTH",
"633 25 LINE SMOOTH",
"638 8 OFFCURVE",
"649 0 OFFCURVE",
"669 0 CURVE SMOOTH",
"807 0 LINE SMOOTH",
"827 0 OFFCURVE",
"837 8 OFFCURVE",
"843 25 CURVE SMOOTH",
"1046 702 LINE SMOOTH",
"1052 725 OFFCURVE",
"1042 742 OFFCURVE",
"1016 742 CURVE SMOOTH"
);
}
);
width = 1040;
}
);
unicode = 0057;
},
{
glyphname = X;
lastChange = "2015-06-11 13:01:42 +0000";
layers = (
{
background = {
paths = (
{
closed = 1;
nodes = (
"477 383 LINE SMOOTH",
"466 398 OFFCURVE",
"465 405 OFFCURVE",
"475 419 CURVE SMOOTH",
"677 709 LINE SMOOTH",
"687 724 OFFCURVE",
"688 742 OFFCURVE",
"664 742 CURVE SMOOTH",
"511 742 LINE SMOOTH",
"489 742 OFFCURVE",
"480 735 OFFCURVE",
"471 721 CURVE SMOOTH",
"376 560 LINE SMOOTH",
"370 549 OFFCURVE",
"360 549 OFFCURVE",
"354 560 CURVE SMOOTH",
"257 721 LINE SMOOTH",
"249 735 OFFCURVE",
"239 742 OFFCURVE",
"217 742 CURVE SMOOTH",
"20 742 LINE SMOOTH",
"-3 742 OFFCURVE",
"-10 721 OFFCURVE",
"1 707 CURVE SMOOTH",
"220 390 LINE SMOOTH",
"231 375 OFFCURVE",
"231 369 OFFCURVE",
"221 354 CURVE SMOOTH",
"13 51 LINE SMOOTH",
"-15 12 OFFCURVE",
"-2 0 OFFCURVE",
"26 0 CURVE SMOOTH",
"167 0 LINE SMOOTH",
"187 0 OFFCURVE",
"201 5 OFFCURVE",
"210 20 CURVE SMOOTH",
"321 210 LINE SMOOTH",
"331 229 OFFCURVE",
"338 228 OFFCURVE",
"349 209 CURVE SMOOTH",
"463 20 LINE SMOOTH",
"471 6 OFFCURVE",
"485 0 OFFCURVE",
"505 0 CURVE SMOOTH",
"693 0 LINE SMOOTH",
"721 0 OFFCURVE",
"736 12 OFFCURVE",
"709 51 CURVE SMOOTH"
);
}
);
};
layerId = "258ED206-D907-4350-8EBA-CBDDA1C16BF7";
name = Regular;
paths = (
{
closed = 1;
nodes = (
"493 383 LINE SMOOTH",
"482 398 OFFCURVE",
"481 405 OFFCURVE",
"491 419 CURVE SMOOTH",
"693 709 LINE SMOOTH",
"703 724 OFFCURVE",
"704 742 OFFCURVE",
"680 742 CURVE SMOOTH",
"527 742 LINE SMOOTH",
"505 742 OFFCURVE",
"496 735 OFFCURVE",
"487 721 CURVE SMOOTH",
"392 560 LINE SMOOTH",
"386 549 OFFCURVE",
"376 549 OFFCURVE",
"370 560 CURVE SMOOTH",
"273 721 LINE SMOOTH",
"265 735 OFFCURVE",
"255 742 OFFCURVE",
"233 742 CURVE SMOOTH",
"36 742 LINE SMOOTH",
"13 742 OFFCURVE",
"6 721 OFFCURVE",
"17 707 CURVE SMOOTH",
"236 390 LINE SMOOTH",
"247 375 OFFCURVE",
"247 369 OFFCURVE",
"237 354 CURVE SMOOTH",
"29 51 LINE SMOOTH",
"1 12 OFFCURVE",
"14 0 OFFCURVE",
"42 0 CURVE SMOOTH",
"183 0 LINE SMOOTH",
"203 0 OFFCURVE",
"217 5 OFFCURVE",
"226 20 CURVE SMOOTH",
"337 210 LINE SMOOTH",
"347 229 OFFCURVE",
"354 228 OFFCURVE",
"365 209 CURVE SMOOTH",
"479 20 LINE SMOOTH",
"487 6 OFFCURVE",
"501 0 OFFCURVE",
"521 0 CURVE SMOOTH",
"709 0 LINE SMOOTH",
"737 0 OFFCURVE",
"752 12 OFFCURVE",
"725 51 CURVE SMOOTH"
);
}
);
width = 730;
}
);
unicode = 0058;
},
{
glyphname = Y;
lastChange = "2015-06-11 13:01:42 +0000";
layers = (
{
background = {
paths = (
{
closed = 1;
nodes = (
"539 742 LINE SMOOTH",
"520 742 OFFCURVE",
"513 738 OFFCURVE",
"505 721 CURVE SMOOTH",
"384 498 LINE SMOOTH",
"377 486 OFFCURVE",
"373 487 OFFCURVE",
"367 499 CURVE SMOOTH",
"244 721 LINE SMOOTH",
"235 737 OFFCURVE",
"230 742 OFFCURVE",
"210 742 CURVE SMOOTH",
"9 742 LINE SMOOTH",
"-12 742 OFFCURVE",
"-19 730 OFFCURVE",
"-9 714 CURVE SMOOTH",
"228 332 LINE SMOOTH",
"238 317 OFFCURVE",
"241 309 OFFCURVE",
"242 288 CURVE SMOOTH",
"239 25 LINE SMOOTH",
"239 8 OFFCURVE",
"245 0 OFFCURVE",
"265 0 CURVE SMOOTH",
"438 0 LINE SMOOTH",
"461 0 OFFCURVE",
"471 8 OFFCURVE",
"471 29 CURVE SMOOTH",
"471 284 LINE SMOOTH",
"471 326 OFFCURVE",
"473 335 OFFCURVE",
"481 350 CURVE SMOOTH",
"710 719 LINE SMOOTH",
"717 732 OFFCURVE",
"713 742 OFFCURVE",
"696 742 CURVE SMOOTH"
);
}
);
};
layerId = "258ED206-D907-4350-8EBA-CBDDA1C16BF7";
name = Regular;
paths = (
{
closed = 1;
nodes = (
"539 742 LINE SMOOTH",
"520 742 OFFCURVE",
"513 738 OFFCURVE",
"505 721 CURVE SMOOTH",
"384 498 LINE SMOOTH",
"377 486 OFFCURVE",
"373 487 OFFCURVE",
"367 499 CURVE SMOOTH",
"244 721 LINE SMOOTH",
"235 737 OFFCURVE",
"230 742 OFFCURVE",
"210 742 CURVE SMOOTH",
"9 742 LINE SMOOTH",
"-12 742 OFFCURVE",
"-19 730 OFFCURVE",
"-9 714 CURVE SMOOTH",
"225 332 LINE SMOOTH",
"234 317 OFFCURVE",
"239 309 OFFCURVE",
"239 288 CURVE SMOOTH",
"239 25 LINE SMOOTH",
"239 8 OFFCURVE",
"245 0 OFFCURVE",
"265 0 CURVE SMOOTH",
"433 0 LINE SMOOTH",
"456 0 OFFCURVE",
"466 8 OFFCURVE",
"466 29 CURVE SMOOTH",
"466 275 LINE SMOOTH",
"466 317 OFFCURVE",
"467 327 OFFCURVE",
"476 341 CURVE SMOOTH",
"710 719 LINE SMOOTH",
"718 732 OFFCURVE",
"713 742 OFFCURVE",
"696 742 CURVE SMOOTH"
);
}
);
width = 690;
}
);
unicode = 0059;
},
{
glyphname = Z;
lastChange = "2015-06-11 13:01:42 +0000";
layers = (
{
background = {
paths = (
{
closed = 1;
nodes = (
"323 180 LINE SMOOTH",
"316 169 OFFCURVE",
"326 166 OFFCURVE",
"335 166 CURVE SMOOTH",
"632 166 LINE SMOOTH",
"646 166 OFFCURVE",
"654 161 OFFCURVE",
"654 147 CURVE SMOOTH",
"654 22 LINE SMOOTH",
"654 10 OFFCURVE",
"647 0 OFFCURVE",
"630 0 CURVE SMOOTH",
"29 0 LINE SMOOTH",
"9 0 OFFCURVE",
"3 5 OFFCURVE",
"3 25 CURVE SMOOTH",
"3 70 LINE SMOOTH",
"3 91 OFFCURVE",
"5 94 OFFCURVE",
"24 121 CURVE SMOOTH",
"332 561 LINE SMOOTH",
"339 572 OFFCURVE",
"337 577 OFFCURVE",
"323 577 CURVE SMOOTH",
"58 577 LINE SMOOTH",
"41 577 OFFCURVE",
"36 583 OFFCURVE",
"36 601 CURVE SMOOTH",
"36 721 LINE SMOOTH",
"36 734 OFFCURVE",
"43 742 OFFCURVE",
"54 742 CURVE SMOOTH",
"641 742 LINE SMOOTH",
"653 742 OFFCURVE",
"660 734 OFFCURVE",
"660 722 CURVE SMOOTH",
"660 671 LINE SMOOTH",
"660 656 OFFCURVE",
"656 648 OFFCURVE",
"643 630 CURVE SMOOTH"
);
}
);
};
layerId = "258ED206-D907-4350-8EBA-CBDDA1C16BF7";
name = Regular;
paths = (
{
closed = 1;
nodes = (
"328 180 LINE SMOOTH",
"321 169 OFFCURVE",
"331 166 OFFCURVE",
"340 166 CURVE SMOOTH",
"637 166 LINE SMOOTH",
"651 166 OFFCURVE",
"659 161 OFFCURVE",
"659 147 CURVE SMOOTH",
"659 22 LINE SMOOTH",
"659 10 OFFCURVE",
"652 0 OFFCURVE",
"635 0 CURVE SMOOTH",
"34 0 LINE SMOOTH",
"14 0 OFFCURVE",
"8 5 OFFCURVE",
"8 25 CURVE SMOOTH",
"8 70 LINE SMOOTH",
"8 91 OFFCURVE",
"10 94 OFFCURVE",
"29 121 CURVE SMOOTH",
"337 561 LINE SMOOTH",
"344 572 OFFCURVE",
"342 577 OFFCURVE",
"328 577 CURVE SMOOTH",
"63 577 LINE SMOOTH",
"46 577 OFFCURVE",
"41 583 OFFCURVE",
"41 601 CURVE SMOOTH",
"41 721 LINE SMOOTH",
"41 734 OFFCURVE",
"48 742 OFFCURVE",
"59 742 CURVE SMOOTH",
"646 742 LINE SMOOTH",
"658 742 OFFCURVE",
"665 734 OFFCURVE",
"665 722 CURVE SMOOTH",
"665 671 LINE SMOOTH",
"665 656 OFFCURVE",
"661 648 OFFCURVE",
"648 630 CURVE SMOOTH"
);
}
);
width = 680;
}
);
unicode = 005A;
},
{
glyphname = a;
lastChange = "2015-06-11 13:01:42 +0000";
layers = (
{
background = {
paths = (
{
closed = 1;
nodes = (
"330 46 OFFCURVE",
"333 47 OFFCURVE",
"337 25 CURVE SMOOTH",
"339 11 OFFCURVE",
"342 0 OFFCURVE",
"364 0 CURVE SMOOTH",
"481 0 LINE SMOOTH",
"513 0 OFFCURVE",
"541 5 OFFCURVE",
"533 29 CURVE SMOOTH",
"526 51 OFFCURVE",
"522 68 OFFCURVE",
"522 97 CURVE SMOOTH",
"522 373 LINE SMOOTH",
"522 478 OFFCURVE",
"467 537 OFFCURVE",
"278 537 CURVE SMOOTH",
"125 537 OFFCURVE",
"68 498 OFFCURVE",
"30 421 CURVE SMOOTH",
"25 410 OFFCURVE",
"28 391 OFFCURVE",
"37 389 CURVE SMOOTH",
"168 363 LINE SMOOTH",
"186 360 OFFCURVE",
"190 361 OFFCURVE",
"195 374 CURVE SMOOTH",
"212 411 OFFCURVE",
"245 421 OFFCURVE",
"273 421 CURVE SMOOTH",
"313 421 OFFCURVE",
"332 400 OFFCURVE",
"332 363 CURVE SMOOTH",
"332 346 LINE SMOOTH",
"332 334 OFFCURVE",
"322 332 OFFCURVE",
"314 332 CURVE SMOOTH",
"107 325 OFFCURVE",
"3 254 OFFCURVE",
"3 143 CURVE SMOOTH",
"3 52 OFFCURVE",
"63 -10 OFFCURVE",
"176 -10 CURVE SMOOTH",
"229 -10 OFFCURVE",
"259 4 OFFCURVE",
"307 32 CURVE SMOOTH"
);
},
{
closed = 1;
nodes = (
"332 160 LINE SMOOTH",
"332 143 OFFCURVE",
"326 135 OFFCURVE",
"316 127 CURVE SMOOTH",
"302 117 OFFCURVE",
"280 108 OFFCURVE",
"257 108 CURVE SMOOTH",
"218 108 OFFCURVE",
"197 127 OFFCURVE",
"197 156 CURVE SMOOTH",
"197 212 OFFCURVE",
"282 234 OFFCURVE",
"314 234 CURVE SMOOTH",
"326 234 OFFCURVE",
"332 228 OFFCURVE",
"332 216 CURVE SMOOTH"
);
}
);
};
layerId = "258ED206-D907-4350-8EBA-CBDDA1C16BF7";
name = Regular;
paths = (
{
closed = 1;
nodes = (
"352 46 OFFCURVE",
"355 47 OFFCURVE",
"359 25 CURVE SMOOTH",
"361 11 OFFCURVE",
"364 0 OFFCURVE",
"386 0 CURVE SMOOTH",
"503 0 LINE SMOOTH",
"535 0 OFFCURVE",
"563 5 OFFCURVE",
"555 29 CURVE SMOOTH",
"548 51 OFFCURVE",
"544 68 OFFCURVE",
"544 97 CURVE SMOOTH",
"544 375 LINE SMOOTH",
"544 478 OFFCURVE",
"489 538 OFFCURVE",
"300 540 CURVE SMOOTH",
"147 540 OFFCURVE",
"90 499 OFFCURVE",
"52 421 CURVE SMOOTH",
"47 410 OFFCURVE",
"50 391 OFFCURVE",
"59 389 CURVE SMOOTH",
"190 363 LINE SMOOTH",
"208 360 OFFCURVE",
"212 361 OFFCURVE",
"217 374 CURVE SMOOTH",
"234 411 OFFCURVE",
"267 421 OFFCURVE",
"295 421 CURVE SMOOTH",
"335 421 OFFCURVE",
"354 400 OFFCURVE",
"354 363 CURVE SMOOTH",
"354 346 LINE SMOOTH",
"354 334 OFFCURVE",
"344 332 OFFCURVE",
"336 332 CURVE SMOOTH",
"129 325 OFFCURVE",
"25 254 OFFCURVE",
"25 143 CURVE SMOOTH",
"25 52 OFFCURVE",
"85 -10 OFFCURVE",
"198 -10 CURVE SMOOTH",
"251 -10 OFFCURVE",
"281 4 OFFCURVE",
"329 32 CURVE SMOOTH"
);
},
{
closed = 1;
nodes = (
"354 160 LINE SMOOTH",
"354 143 OFFCURVE",
"348 135 OFFCURVE",
"338 127 CURVE SMOOTH",
"324 117 OFFCURVE",
"302 108 OFFCURVE",
"279 108 CURVE SMOOTH",
"240 108 OFFCURVE",
"219 127 OFFCURVE",
"219 156 CURVE SMOOTH",
"219 212 OFFCURVE",
"304 234 OFFCURVE",
"336 234 CURVE SMOOTH",
"348 234 OFFCURVE",
"354 228 OFFCURVE",
"354 216 CURVE SMOOTH"
);
}
);
width = 580;
}
);
unicode = 0061;
},
{
color = 5;
glyphname = ae;
lastChange = "2015-06-11 13:44:40 +0000";
layers = (
{
background = {
paths = (
{
closed = 1;
nodes = (
"352 46 OFFCURVE",
"355 47 OFFCURVE",
"359 25 CURVE SMOOTH",
"361 11 OFFCURVE",
"364 0 OFFCURVE",
"386 0 CURVE SMOOTH",
"503 0 LINE SMOOTH",
"535 0 OFFCURVE",
"563 5 OFFCURVE",
"555 29 CURVE SMOOTH",
"548 51 OFFCURVE",
"544 68 OFFCURVE",
"544 97 CURVE SMOOTH",
"544 375 LINE SMOOTH",
"544 478 OFFCURVE",
"489 538 OFFCURVE",
"300 540 CURVE SMOOTH",
"147 540 OFFCURVE",
"90 499 OFFCURVE",
"52 421 CURVE SMOOTH",
"47 410 OFFCURVE",
"50 391 OFFCURVE",
"59 389 CURVE SMOOTH",
"190 363 LINE SMOOTH",
"208 360 OFFCURVE",
"212 361 OFFCURVE",
"217 374 CURVE SMOOTH",
"234 411 OFFCURVE",
"267 421 OFFCURVE",
"295 421 CURVE SMOOTH",
"335 421 OFFCURVE",
"354 400 OFFCURVE",
"354 363 CURVE SMOOTH",
"354 346 LINE SMOOTH",
"354 334 OFFCURVE",
"344 332 OFFCURVE",
"336 332 CURVE SMOOTH",
"129 325 OFFCURVE",
"25 254 OFFCURVE",
"25 143 CURVE SMOOTH",
"25 52 OFFCURVE",
"85 -10 OFFCURVE",
"198 -10 CURVE SMOOTH",
"251 -10 OFFCURVE",
"281 4 OFFCURVE",
"329 32 CURVE SMOOTH"
);
}
);
};
layerId = "258ED206-D907-4350-8EBA-CBDDA1C16BF7";
name = Regular;
paths = (
{
closed = 1;
nodes = (
"885 229 LINE",
"902 230 OFFCURVE",
"903 237 OFFCURVE",
"903 254 CURVE SMOOTH",
"903 435 OFFCURVE",
"788 540 OFFCURVE",
"631 540 CURVE SMOOTH",
"578.866 540 OFFCURVE",
"528.966 525.854 OFFCURVE",
"486.195 500.098 CURVE",
"448.378 525.233 OFFCURVE",
"389.069 539.057 OFFCURVE",
"300 540 CURVE SMOOTH",
"147 540 OFFCURVE",
"90 499 OFFCURVE",
"52 421 CURVE SMOOTH",
"47 410 OFFCURVE",
"50 391 OFFCURVE",
"59 389 CURVE SMOOTH",
"190 363 LINE SMOOTH",
"208 360 OFFCURVE",
"212 361 OFFCURVE",
"217 374 CURVE",
"234 411 OFFCURVE",
"267 421 OFFCURVE",
"295 421 CURVE SMOOTH",
"335 421 OFFCURVE",
"354 400 OFFCURVE",
"354 363 CURVE SMOOTH",
"354 346 LINE SMOOTH",
"354 334 OFFCURVE",
"344 332 OFFCURVE",
"336 332 CURVE SMOOTH",
"129 325 OFFCURVE",
"25 254 OFFCURVE",
"25 143 CURVE SMOOTH",
"25 52 OFFCURVE",
"85 -10 OFFCURVE",
"198 -10 CURVE SMOOTH",
"290 -10 OFFCURVE",
"355 12 OFFCURVE",
"416 71 CURVE SMOOTH",
"420 75 OFFCURVE",
"423 75 OFFCURVE",
"427 71 CURVE SMOOTH",
"477 20 OFFCURVE",
"551 -10 OFFCURVE",
"635 -10 CURVE SMOOTH",
"747 -10 OFFCURVE",
"815 17 OFFCURVE",
"887 118 CURVE",
"896 129 OFFCURVE",
"893 138 OFFCURVE",
"883 142 CURVE SMOOTH",
"792 179 LINE SMOOTH",
"779 184 OFFCURVE",
"776 183 OFFCURVE",
"771 178 CURVE SMOOTH",
"727 135 OFFCURVE",
"696 122 OFFCURVE",
"662 122 CURVE SMOOTH",
"604 122 OFFCURVE",
"559 151 OFFCURVE",
"559 212 CURVE SMOOTH",
"559 224 OFFCURVE",
"564 229 OFFCURVE",
"574 229 CURVE SMOOTH"
);
},
{
closed = 1;
nodes = (
"690 423 OFFCURVE",
"709 372 OFFCURVE",
"709 346 CURVE SMOOTH",
"709 334 OFFCURVE",
"705 332 OFFCURVE",
"692 332 CURVE SMOOTH",
"562 333 LINE",
"561 395 OFFCURVE",
"599 423 OFFCURVE",
"640 423 CURVE SMOOTH"
);
},
{
closed = 1;
nodes = (
"354 160 LINE SMOOTH",
"354 143 OFFCURVE",
"348 135 OFFCURVE",
"338 127 CURVE",
"324 117 OFFCURVE",
"302 108 OFFCURVE",
"279 108 CURVE SMOOTH",
"240 108 OFFCURVE",
"219 127 OFFCURVE",
"219 156 CURVE SMOOTH",
"219 212 OFFCURVE",
"304 234 OFFCURVE",
"336 234 CURVE SMOOTH",
"348 234 OFFCURVE",
"354 228 OFFCURVE",
"354 216 CURVE SMOOTH"
);
}
);
width = 925;
}
);
unicode = 00E6;
},
{
glyphname = b;
lastChange = "2015-06-11 13:01:42 +0000";
layers = (
{
background = {
paths = (
{
closed = 1;
nodes = (
"166 0 OFFCURVE",
"174 7 OFFCURVE",
"179 23 CURVE SMOOTH",
"195 70 LINE SMOOTH",
"198 78 OFFCURVE",
"202 79 OFFCURVE",
"208 73 CURVE SMOOTH",
"247 26 OFFCURVE",
"301 -3 OFFCURVE",
"364 -3 CURVE SMOOTH",
"510 -3 OFFCURVE",
"590 103 OFFCURVE",
"590 269 CURVE SMOOTH",
"590 433 OFFCURVE",
"515 535 OFFCURVE",
"385 535 CURVE SMOOTH",
"340 535 OFFCURVE",
"299 523 OFFCURVE",
"258 488 CURVE SMOOTH",
"248 480 OFFCURVE",
"239 480 OFFCURVE",
"239 496 CURVE SMOOTH",
"239 721 LINE SMOOTH",
"239 734 OFFCURVE",
"233 742 OFFCURVE",
"221 742 CURVE SMOOTH",
"61 742 LINE SMOOTH",
"50 742 OFFCURVE",
"42 734 OFFCURVE",
"42 719 CURVE SMOOTH",
"38 25 LINE SMOOTH",
"38 8 OFFCURVE",
"44 0 OFFCURVE",
"65 0 CURVE SMOOTH",
"153 0 LINE SMOOTH"
);
},
{
closed = 1;
nodes = (
"260 403 OFFCURVE",
"282 418 OFFCURVE",
"313 418 CURVE SMOOTH",
"362 418 OFFCURVE",
"388 381 OFFCURVE",
"388 265 CURVE SMOOTH",
"388 148 OFFCURVE",
"362 107 OFFCURVE",
"310 107 CURVE SMOOTH",
"268 107 OFFCURVE",
"240 135 OFFCURVE",
"240 185 CURVE SMOOTH",
"240 378 LINE"
);
}
);
};
layerId = "258ED206-D907-4350-8EBA-CBDDA1C16BF7";
name = Regular;
paths = (
{
closed = 1;
nodes = (
"165 0 OFFCURVE",
"173 7 OFFCURVE",
"178 23 CURVE SMOOTH",
"194 70 LINE SMOOTH",
"197 78 OFFCURVE",
"201 79 OFFCURVE",
"207 73 CURVE SMOOTH",
"246 22 OFFCURVE",
"300 -10 OFFCURVE",
"363 -10 CURVE SMOOTH",
"509 -10 OFFCURVE",
"590 99 OFFCURVE",
"590 269 CURVE SMOOTH",
"590 436 OFFCURVE",
"514 540 OFFCURVE",
"384 540 CURVE SMOOTH",
"339 540 OFFCURVE",
"298 527 OFFCURVE",
"257 488 CURVE SMOOTH",
"247 480 OFFCURVE",
"238 480 OFFCURVE",
"238 496 CURVE SMOOTH",
"238 721 LINE SMOOTH",
"238 734 OFFCURVE",
"232 742 OFFCURVE",
"220 742 CURVE SMOOTH",
"57 742 LINE SMOOTH",
"46 742 OFFCURVE",
"38 734 OFFCURVE",
"38 719 CURVE SMOOTH",
"38 25 LINE SMOOTH",
"38 8 OFFCURVE",
"44 0 OFFCURVE",
"65 0 CURVE SMOOTH",
"152 0 LINE SMOOTH"
);
},
{
closed = 1;
nodes = (
"258 403 OFFCURVE",
"281 418 OFFCURVE",
"312 418 CURVE SMOOTH",
"361 418 OFFCURVE",
"388 381 OFFCURVE",
"388 265 CURVE SMOOTH",
"388 148 OFFCURVE",
"361 107 OFFCURVE",
"309 107 CURVE SMOOTH",
"267 107 OFFCURVE",
"238 135 OFFCURVE",
"238 185 CURVE SMOOTH",
"238 378 LINE"
);
}
);
width = 613;
}
);
leftMetricsKey = n;
rightMetricsKey = o;
unicode = 0062;
},
{
glyphname = c;
lastChange = "2015-06-11 13:01:42 +0000";
layers = (
{
background = {
paths = (
{
closed = 1;
nodes = (
"439 537 OFFCURVE",
"518 446 OFFCURVE",
"534 370 CURVE SMOOTH",
"539 353 OFFCURVE",
"533 345 OFFCURVE",
"516 344 CURVE SMOOTH",
"379 337 LINE SMOOTH",
"368 336 OFFCURVE",
"364 340 OFFCURVE",
"362 351 CURVE SMOOTH",
"358 376 OFFCURVE",
"349 414 OFFCURVE",
"301 414 CURVE SMOOTH",
"251 414 OFFCURVE",
"219 372 OFFCURVE",
"219 265 CURVE SMOOTH",
"219 154 OFFCURVE",
"254 114 OFFCURVE",
"312 114 CURVE SMOOTH",
"367 114 OFFCURVE",
"386 148 OFFCURVE",
"411 193 CURVE SMOOTH",
"414 198 OFFCURVE",
"418 200 OFFCURVE",
"431 198 CURVE SMOOTH",
"525 180 LINE SMOOTH",
"536 178 OFFCURVE",
"538 172 OFFCURVE",
"534 157 CURVE SMOOTH",
"524 106 OFFCURVE",
"458 -8 OFFCURVE",
"296 -8 CURVE SMOOTH",
"136 -8 OFFCURVE",
"19 102 OFFCURVE",
"19 263 CURVE SMOOTH",
"19 426 OFFCURVE",
"138 537 OFFCURVE",
"296 537 CURVE SMOOTH"
);
}
);
};
layerId = "258ED206-D907-4350-8EBA-CBDDA1C16BF7";
name = Regular;
paths = (
{
closed = 1;
nodes = (
"443 540 OFFCURVE",
"522 447 OFFCURVE",
"538 370 CURVE SMOOTH",
"543 353 OFFCURVE",
"537 345 OFFCURVE",
"520 344 CURVE SMOOTH",
"383 337 LINE SMOOTH",
"372 336 OFFCURVE",
"368 340 OFFCURVE",
"366 351 CURVE SMOOTH",
"362 376 OFFCURVE",
"353 414 OFFCURVE",
"305 414 CURVE SMOOTH",
"256 414 OFFCURVE",
"225 372 OFFCURVE",
"225 265 CURVE SMOOTH",
"225 154 OFFCURVE",
"259 114 OFFCURVE",
"316 114 CURVE SMOOTH",
"371 114 OFFCURVE",
"390 148 OFFCURVE",
"415 193 CURVE SMOOTH",
"418 198 OFFCURVE",
"422 200 OFFCURVE",
"435 198 CURVE SMOOTH",
"529 180 LINE SMOOTH",
"540 178 OFFCURVE",
"542 172 OFFCURVE",
"538 157 CURVE SMOOTH",
"528 105 OFFCURVE",
"462 -10 OFFCURVE",
"300 -10 CURVE SMOOTH",
"140 -10 OFFCURVE",
"23 101 OFFCURVE",
"23 263 CURVE SMOOTH",
"23 428 OFFCURVE",
"142 540 OFFCURVE",
"300 540 CURVE SMOOTH"
);
}
);
width = 558;
}
);
leftMetricsKey = o;
unicode = 0063;
},
{
glyphname = d;
lastChange = "2015-06-11 13:01:42 +0000";
layers = (
{
background = {
paths = (
{
closed = 1;
nodes = (
"541 0 LINE SMOOTH",
"562 0 OFFCURVE",
"568 8 OFFCURVE",
"568 25 CURVE SMOOTH",
"564 719 LINE SMOOTH",
"564 734 OFFCURVE",
"556 742 OFFCURVE",
"545 742 CURVE SMOOTH",
"385 742 LINE SMOOTH",
"373 742 OFFCURVE",
"367 734 OFFCURVE",
"367 721 CURVE SMOOTH",
"367 496 LINE SMOOTH",
"367 480 OFFCURVE",
"358 480 OFFCURVE",
"348 488 CURVE SMOOTH",
"307 523 OFFCURVE",
"269 533 OFFCURVE",
"224 533 CURVE SMOOTH",
"113 533 OFFCURVE",
"12 427 OFFCURVE",
"12 263 CURVE SMOOTH",
"12 85 OFFCURVE",
"95 -6 OFFCURVE",
"214 -6 CURVE SMOOTH",
"276 -6 OFFCURVE",
"315 13 OFFCURVE",
"354 46 CURVE SMOOTH",
"361 52 OFFCURVE",
"369 51 OFFCURVE",
"369 42 CURVE SMOOTH",
"369 23 LINE SMOOTH",
"369 6 OFFCURVE",
"381 0 OFFCURVE",
"394 0 CURVE SMOOTH"
);
},
{
closed = 1;
nodes = (
"366 174 LINE SMOOTH",
"366 135 OFFCURVE",
"335 110 OFFCURVE",
"296 110 CURVE SMOOTH",
"244 110 OFFCURVE",
"217 141 OFFCURVE",
"217 256 CURVE SMOOTH",
"217 373 OFFCURVE",
"248 416 OFFCURVE",
"296 416 CURVE SMOOTH",
"327 416 OFFCURVE",
"345 403 OFFCURVE",
"366 378 CURVE"
);
}
);
};
layerId = "258ED206-D907-4350-8EBA-CBDDA1C16BF7";
name = Regular;
paths = (
{
closed = 1;
nodes = (
"548 0 LINE SMOOTH",
"569 0 OFFCURVE",
"575 8 OFFCURVE",
"575 25 CURVE SMOOTH",
"575 719 LINE SMOOTH",
"575 734 OFFCURVE",
"567 742 OFFCURVE",
"556 742 CURVE SMOOTH",
"394 742 LINE SMOOTH",
"382 742 OFFCURVE",
"376 734 OFFCURVE",
"376 721 CURVE SMOOTH",
"376 496 LINE SMOOTH",
"376 480 OFFCURVE",
"367 480 OFFCURVE",
"357 488 CURVE SMOOTH",
"316 528 OFFCURVE",
"278 540 OFFCURVE",
"233 540 CURVE SMOOTH",
"123 540 OFFCURVE",
"23 431 OFFCURVE",
"23 263 CURVE SMOOTH",
"23 82 OFFCURVE",
"105 -10 OFFCURVE",
"223 -10 CURVE SMOOTH",
"285 -10 OFFCURVE",
"324 10 OFFCURVE",
"363 46 CURVE SMOOTH",
"370 52 OFFCURVE",
"378 51 OFFCURVE",
"378 42 CURVE SMOOTH",
"378 23 LINE SMOOTH",
"378 6 OFFCURVE",
"390 0 OFFCURVE",
"403 0 CURVE SMOOTH"
);
},
{
closed = 1;
nodes = (
"375 176 LINE SMOOTH",
"375 137 OFFCURVE",
"344 110 OFFCURVE",
"305 110 CURVE SMOOTH",
"254 110 OFFCURVE",
"225 149 OFFCURVE",
"225 264 CURVE SMOOTH",
"225 380 OFFCURVE",
"258 416 OFFCURVE",
"305 416 CURVE SMOOTH",
"336 416 OFFCURVE",
"354 403 OFFCURVE",
"375 378 CURVE"
);
}
);
width = 613;
}
);
leftMetricsKey = o;
rightMetricsKey = n;
unicode = 0064;
},
{
color = 5;
glyphname = eth;
lastChange = "2015-06-11 13:59:32 +0000";
layers = (
{
background = {
paths = (
{
closed = 1;
nodes = (
"144 520 OFFCURVE",
"23 409 OFFCURVE",
"23 252 CURVE SMOOTH",
"23 103 OFFCURVE",
"137 -10 OFFCURVE",
"301 -10 CURVE SMOOTH",
"466 -10 OFFCURVE",
"581 104 OFFCURVE",
"581 252 CURVE SMOOTH",
"581 403 OFFCURVE",
"469 520 OFFCURVE",
"302 520 CURVE SMOOTH"
);
},
{
closed = 1;
nodes = (
"249 118 OFFCURVE",
"225 162 OFFCURVE",
"225 256 CURVE SMOOTH",
"225 351 OFFCURVE",
"249 396 OFFCURVE",
"302 396 CURVE SMOOTH",
"356 396 OFFCURVE",
"379 351 OFFCURVE",
"379 256 CURVE SMOOTH",
"379 163 OFFCURVE",
"356 118 OFFCURVE",
"302 118 CURVE SMOOTH"
);
},
{
closed = 1;
nodes = (
"581 262 LINE",
"581 516 OFFCURVE",
"428 698 OFFCURVE",
"197 750 CURVE SMOOTH",
"185 753 OFFCURVE",
"183 752 OFFCURVE",
"176 746 CURVE SMOOTH",
"92 677 LINE SMOOTH",
"85 671 OFFCURVE",
"88 665 OFFCURVE",
"94 663 CURVE SMOOTH",
"285 597 OFFCURVE",
"379 480 OFFCURVE",
"379 266 CURVE"
);
},
{
closed = 1;
nodes = (
"434 699 OFFCURVE",
"435 704 OFFCURVE",
"432 709 CURVE SMOOTH",
"411 747 LINE SMOOTH",
"407 752 OFFCURVE",
"400 754 OFFCURVE",
"393 749 CURVE SMOOTH",
"105 589 LINE SMOOTH",
"98 586 OFFCURVE",
"95 578 OFFCURVE",
"103 567 CURVE SMOOTH",
"118 543 LINE SMOOTH",
"125 532 OFFCURVE",
"131 530 OFFCURVE",
"142 536 CURVE SMOOTH",
"428 695 LINE SMOOTH"
);
}
);
};
layerId = "258ED206-D907-4350-8EBA-CBDDA1C16BF7";
name = Regular;
paths = (
{
closed = 1;
nodes = (
"581 439.67 OFFCURVE",
"506.139 582.112 OFFCURVE",
"382.087 669.475 CURVE",
"428 695 LINE SMOOTH",
"434 699 OFFCURVE",
"435 704 OFFCURVE",
"432 709 CURVE SMOOTH",
"411 747 LINE SMOOTH",
"407 752 OFFCURVE",
"400 754 OFFCURVE",
"393 749 CURVE SMOOTH",
"318.186 707.437 LINE",
"280.861 725.937 OFFCURVE",
"240.301 740.253 OFFCURVE",
"197 750 CURVE SMOOTH",
"185 753 OFFCURVE",
"183 752 OFFCURVE",
"176 746 CURVE SMOOTH",
"92 677 LINE SMOOTH",
"85 671 OFFCURVE",
"88 665 OFFCURVE",
"94 663 CURVE SMOOTH",
"123.646 652.756 OFFCURVE",
"150.954 641.283 OFFCURVE",
"175.938 628.41 CURVE",
"105 589 LINE SMOOTH",
"98 586 OFFCURVE",
"95 578 OFFCURVE",
"103 567 CURVE SMOOTH",
"118 543 LINE SMOOTH",
"125 532 OFFCURVE",
"131 530 OFFCURVE",
"142 536 CURVE SMOOTH",
"238.433 589.611 LINE",
"265.65 569.197 OFFCURVE",
"285 551 OFFCURVE",
"304 525 CURVE SMOOTH",
"306 522 OFFCURVE",
"306 520 OFFCURVE",
"302 520 CURVE SMOOTH",
"144 520 OFFCURVE",
"23 409 OFFCURVE",
"23 252 CURVE SMOOTH",
"23 103 OFFCURVE",
"137 -10 OFFCURVE",
"301 -10 CURVE SMOOTH",
"468 -10 OFFCURVE",
"581 102 OFFCURVE",
"581 282 CURVE SMOOTH"
);
},
{
closed = 1;
nodes = (
"249 118 OFFCURVE",
"225 162 OFFCURVE",
"225 256 CURVE SMOOTH",
"225 351 OFFCURVE",
"249 396 OFFCURVE",
"302 396 CURVE SMOOTH",
"356 396 OFFCURVE",
"379 351 OFFCURVE",
"379 256 CURVE SMOOTH",
"379 163 OFFCURVE",
"356 118 OFFCURVE",
"302 118 CURVE SMOOTH"
);
}
);
width = 604;
}
);
unicode = 00F0;
},
{
glyphname = e;
lastChange = "2015-06-11 13:01:42 +0000";
layers = (
{
background = {
paths = (
{
closed = 1;
nodes = (
"225 224 OFFCURVE",
"230 229 OFFCURVE",
"240 229 CURVE SMOOTH",
"551 229 LINE SMOOTH",
"568 230 OFFCURVE",
"569 237 OFFCURVE",
"569 254 CURVE SMOOTH",
"569 433 OFFCURVE",
"454 537 OFFCURVE",
"297 537 CURVE SMOOTH",
"149 537 OFFCURVE",
"19 424 OFFCURVE",
"19 256 CURVE SMOOTH",
"19 100 OFFCURVE",
"141 -8 OFFCURVE",
"301 -8 CURVE SMOOTH",
"413 -8 OFFCURVE",
"481 19 OFFCURVE",
"553 118 CURVE SMOOTH",
"562 129 OFFCURVE",
"559 138 OFFCURVE",
"549 142 CURVE SMOOTH",
"458 179 LINE SMOOTH",
"445 184 OFFCURVE",
"442 183 OFFCURVE",
"437 178 CURVE SMOOTH",
"393 135 OFFCURVE",
"362 122 OFFCURVE",
"328 122 CURVE SMOOTH",
"270 122 OFFCURVE",
"225 151 OFFCURVE",
"225 212 CURVE SMOOTH"
);
},
{
closed = 1;
nodes = (
"227 395 OFFCURVE",
"265 423 OFFCURVE",
"306 423 CURVE SMOOTH",
"356 423 OFFCURVE",
"375 372 OFFCURVE",
"375 346 CURVE SMOOTH",
"375 334 OFFCURVE",
"371 332 OFFCURVE",
"358 332 CURVE SMOOTH",
"228 333 LINE"
);
}
);
};
layerId = "258ED206-D907-4350-8EBA-CBDDA1C16BF7";
name = Regular;
paths = (
{
closed = 1;
nodes = (
"229 224 OFFCURVE",
"234 229 OFFCURVE",
"244 229 CURVE SMOOTH",
"555 229 LINE SMOOTH",
"572 230 OFFCURVE",
"573 237 OFFCURVE",
"573 254 CURVE SMOOTH",
"573 435 OFFCURVE",
"458 540 OFFCURVE",
"301 540 CURVE SMOOTH",
"153 540 OFFCURVE",
"23 426 OFFCURVE",
"23 256 CURVE SMOOTH",
"23 99 OFFCURVE",
"145 -10 OFFCURVE",
"305 -10 CURVE SMOOTH",
"417 -10 OFFCURVE",
"485 17 OFFCURVE",
"557 118 CURVE SMOOTH",
"566 129 OFFCURVE",
"563 138 OFFCURVE",
"553 142 CURVE SMOOTH",
"462 179 LINE SMOOTH",
"449 184 OFFCURVE",
"446 183 OFFCURVE",
"441 178 CURVE SMOOTH",
"397 135 OFFCURVE",
"366 122 OFFCURVE",
"332 122 CURVE SMOOTH",
"274 122 OFFCURVE",
"229 151 OFFCURVE",
"229 212 CURVE SMOOTH"
);
},
{
closed = 1;
nodes = (
"231 395 OFFCURVE",
"269 423 OFFCURVE",
"310 423 CURVE SMOOTH",
"360 423 OFFCURVE",
"379 372 OFFCURVE",
"379 346 CURVE SMOOTH",
"379 334 OFFCURVE",
"375 332 OFFCURVE",
"362 332 CURVE SMOOTH",
"232 333 LINE"
);
}
);
width = 595;
}
);
leftMetricsKey = o;
unicode = 0065;
},
{
glyphname = f;
lastChange = "2015-06-11 13:01:42 +0000";
layers = (
{
background = {
paths = (
{
closed = 1;
nodes = (
"297 516 LINE SMOOTH",
"289 516 OFFCURVE",
"284 519 OFFCURVE",
"284 529 CURVE SMOOTH",
"284 559 LINE SMOOTH",
"284 588 OFFCURVE",
"306 612 OFFCURVE",
"329 612 CURVE SMOOTH",
"372 612 LINE SMOOTH",
"384 612 OFFCURVE",
"390 621 OFFCURVE",
"390 632 CURVE",
"389 716 LINE",
"389 732 OFFCURVE",
"379 742 OFFCURVE",
"360 742 CURVE SMOOTH",
"250 742 LINE SMOOTH",
"153 742 OFFCURVE",
"92 688 OFFCURVE",
"92 601 CURVE SMOOTH",
"92 535 LINE SMOOTH",
"92 522 OFFCURVE",
"89 517 OFFCURVE",
"78 517 CURVE SMOOTH",
"30 517 LINE SMOOTH",
"13 517 OFFCURVE",
"6 507 OFFCURVE",
"6 495 CURVE SMOOTH",
"6 411 LINE SMOOTH",
"6 397 OFFCURVE",
"14 392 OFFCURVE",
"28 392 CURVE SMOOTH",
"84 392 LINE SMOOTH",
"90 392 OFFCURVE",
"92 389 OFFCURVE",
"92 382 CURVE SMOOTH",
"92 20 LINE SMOOTH",
"92 7 OFFCURVE",
"99 0 OFFCURVE",
"110 0 CURVE SMOOTH",
"270 0 LINE SMOOTH",
"282 0 OFFCURVE",
"289 7 OFFCURVE",
"289 22 CURVE SMOOTH",
"289 379 LINE SMOOTH",
"289 387 OFFCURVE",
"294 391 OFFCURVE",
"301 391 CURVE SMOOTH",
"363 391 LINE SMOOTH",
"376 391 OFFCURVE",
"385 396 OFFCURVE",
"385 410 CURVE SMOOTH",
"385 494 LINE SMOOTH",
"385 506 OFFCURVE",
"377 516 OFFCURVE",
"360 516 CURVE SMOOTH"
);
}
);
};
layerId = "258ED206-D907-4350-8EBA-CBDDA1C16BF7";
name = Regular;
paths = (
{
closed = 1;
nodes = (
"303 530 LINE SMOOTH",
"295 530 OFFCURVE",
"290 533 OFFCURVE",
"290 543 CURVE SMOOTH",
"290 561 LINE SMOOTH",
"290 589 OFFCURVE",
"312 612 OFFCURVE",
"335 612 CURVE SMOOTH",
"378 612 LINE SMOOTH",
"390 612 OFFCURVE",
"396 621 OFFCURVE",
"396 632 CURVE",
"395 716 LINE",
"395 732 OFFCURVE",
"385 742 OFFCURVE",
"366 742 CURVE SMOOTH",
"253 742 LINE SMOOTH",
"156 742 OFFCURVE",
"95 688 OFFCURVE",
"95 601 CURVE SMOOTH",
"95 548 LINE SMOOTH",
"95 535 OFFCURVE",
"92 530 OFFCURVE",
"81 530 CURVE SMOOTH",
"33 530 LINE SMOOTH",
"16 530 OFFCURVE",
"9 520 OFFCURVE",
"9 508 CURVE SMOOTH",
"9 414 LINE SMOOTH",
"9 400 OFFCURVE",
"17 395 OFFCURVE",
"31 395 CURVE SMOOTH",
"87 395 LINE SMOOTH",
"93 395 OFFCURVE",
"95 392 OFFCURVE",
"95 385 CURVE SMOOTH",
"95 20 LINE SMOOTH",
"95 7 OFFCURVE",
"102 0 OFFCURVE",
"113 0 CURVE SMOOTH",
"276 0 LINE SMOOTH",
"288 0 OFFCURVE",
"295 7 OFFCURVE",
"295 22 CURVE SMOOTH",
"295 383 LINE SMOOTH",
"295 391 OFFCURVE",
"300 395 OFFCURVE",
"307 395 CURVE SMOOTH",
"369 395 LINE SMOOTH",
"382 395 OFFCURVE",
"391 400 OFFCURVE",
"391 414 CURVE SMOOTH",
"391 508 LINE SMOOTH",
"391 520 OFFCURVE",
"383 530 OFFCURVE",
"366 530 CURVE SMOOTH"
);
}
);
width = 400;
}
);
unicode = 0066;
},
{
glyphname = g;
lastChange = "2015-06-11 13:01:42 +0000";
layers = (
{
background = {
paths = (
{
closed = 1;
nodes = (
"564 550 OFFCURVE",
"522 516 OFFCURVE",
"503 494 CURVE SMOOTH",
"496 485 OFFCURVE",
"485 482 OFFCURVE",
"475 488 CURVE SMOOTH",
"436 517 OFFCURVE",
"378 538 OFFCURVE",
"304 538 CURVE SMOOTH",
"128 538 OFFCURVE",
"39 469 OFFCURVE",
"39 373 CURVE SMOOTH",
"39 312 OFFCURVE",
"75 265 OFFCURVE",
"138 237 CURVE SMOOTH",
"148 231 OFFCURVE",
"141 228 OFFCURVE",
"135 225 CURVE SMOOTH",
"83 202 OFFCURVE",
"31 169 OFFCURVE",
"31 122 CURVE SMOOTH",
"31 81 OFFCURVE",
"60 56 OFFCURVE",
"92 39 CURVE SMOOTH",
"100 35 OFFCURVE",
"102 31 OFFCURVE",
"92 28 CURVE SMOOTH",
"42 13 OFFCURVE",
"0 -8 OFFCURVE",
"0 -53 CURVE SMOOTH",
"0 -137 OFFCURVE",
"100 -175 OFFCURVE",
"306 -175 CURVE SMOOTH",
"504 -175 OFFCURVE",
"604 -99 OFFCURVE",
"604 3 CURVE SMOOTH",
"604 85 OFFCURVE",
"540 143 OFFCURVE",
"395 152 CURVE SMOOTH",
"243 161 LINE SMOOTH",
"214 163 OFFCURVE",
"199 167 OFFCURVE",
"199 182 CURVE SMOOTH",
"199 198 OFFCURVE",
"226 209 OFFCURVE",
"292 209 CURVE SMOOTH",
"457 209 OFFCURVE",
"544 284 OFFCURVE",
"544 374 CURVE SMOOTH",
"544 384 OFFCURVE",
"542 395 OFFCURVE",
"539 405 CURVE SMOOTH",
"535 419 OFFCURVE",
"540 430 OFFCURVE",
"559 430 CURVE SMOOTH",
"574 430 OFFCURVE",
"592 426 OFFCURVE",
"606 422 CURVE SMOOTH",
"621 418 OFFCURVE",
"633 419 OFFCURVE",
"633 443 CURVE SMOOTH",
"633 525 LINE SMOOTH",
"633 543 OFFCURVE",
"624 550 OFFCURVE",
"613 550 CURVE SMOOTH"
);
},
{
closed = 1;
nodes = (
"240 300 OFFCURVE",
"212 334 OFFCURVE",
"212 370 CURVE SMOOTH",
"212 411 OFFCURVE",
"240 445 OFFCURVE",
"290 445 CURVE SMOOTH",
"346 445 OFFCURVE",
"368 411 OFFCURVE",
"368 370 CURVE SMOOTH",
"368 335 OFFCURVE",
"346 300 OFFCURVE",
"290 300 CURVE SMOOTH"
);
},
{
closed = 1;
nodes = (
"413 0 OFFCURVE",
"436 -16 OFFCURVE",
"436 -35 CURVE SMOOTH",
"436 -64 OFFCURVE",
"394 -86 OFFCURVE",
"316 -86 CURVE SMOOTH",
"191 -86 OFFCURVE",
"156 -64 OFFCURVE",
"156 -27 CURVE SMOOTH",
"156 -6 OFFCURVE",
"182 10 OFFCURVE",
"225 8 CURVE SMOOTH",
"370 2 LINE SMOOTH"
);
}
);
};
layerId = "258ED206-D907-4350-8EBA-CBDDA1C16BF7";
name = Regular;
paths = (
{
closed = 1;
nodes = (
"569 550 OFFCURVE",
"527 516 OFFCURVE",
"508 494 CURVE SMOOTH",
"501 485 OFFCURVE",
"490 482 OFFCURVE",
"480 488 CURVE SMOOTH",
"440 517 OFFCURVE",
"380 538 OFFCURVE",
"304 538 CURVE SMOOTH",
"125 538 OFFCURVE",
"34 469 OFFCURVE",
"34 373 CURVE SMOOTH",
"34 312 OFFCURVE",
"72 265 OFFCURVE",
"138 237 CURVE SMOOTH",
"148 231 OFFCURVE",
"141 228 OFFCURVE",
"135 225 CURVE SMOOTH",
"81 202 OFFCURVE",
"26 169 OFFCURVE",
"26 122 CURVE SMOOTH",
"26 81 OFFCURVE",
"57 56 OFFCURVE",
"92 39 CURVE SMOOTH",
"100 35 OFFCURVE",
"102 31 OFFCURVE",
"92 28 CURVE SMOOTH",
"39 13 OFFCURVE",
"-5 -8 OFFCURVE",
"-5 -53 CURVE SMOOTH",
"-5 -137 OFFCURVE",
"97 -175 OFFCURVE",
"306 -175 CURVE SMOOTH",
"507 -175 OFFCURVE",
"609 -99 OFFCURVE",
"609 3 CURVE SMOOTH",
"609 85 OFFCURVE",
"543 143 OFFCURVE",
"395 152 CURVE SMOOTH",
"243 161 LINE SMOOTH",
"214 163 OFFCURVE",
"199 167 OFFCURVE",
"199 182 CURVE SMOOTH",
"199 198 OFFCURVE",
"226 209 OFFCURVE",
"292 209 CURVE SMOOTH",
"460 209 OFFCURVE",
"549 284 OFFCURVE",
"549 374 CURVE SMOOTH",
"549 384 OFFCURVE",
"547 395 OFFCURVE",
"544 405 CURVE SMOOTH",
"540 419 OFFCURVE",
"545 430 OFFCURVE",
"564 430 CURVE SMOOTH",
"579 430 OFFCURVE",
"597 426 OFFCURVE",
"611 422 CURVE SMOOTH",
"626 418 OFFCURVE",
"638 419 OFFCURVE",
"638 443 CURVE SMOOTH",
"638 525 LINE SMOOTH",
"638 543 OFFCURVE",
"629 550 OFFCURVE",
"618 550 CURVE SMOOTH"
);
},
{
closed = 1;
nodes = (
"240 300 OFFCURVE",
"212 334 OFFCURVE",
"212 370 CURVE SMOOTH",
"212 411 OFFCURVE",
"240 445 OFFCURVE",
"290 445 CURVE SMOOTH",
"346 445 OFFCURVE",
"368 411 OFFCURVE",
"368 370 CURVE SMOOTH",
"368 335 OFFCURVE",
"346 300 OFFCURVE",
"290 300 CURVE SMOOTH"
);
},
{
closed = 1;
nodes = (
"413 0 OFFCURVE",
"436 -16 OFFCURVE",
"436 -35 CURVE SMOOTH",
"436 -64 OFFCURVE",
"394 -86 OFFCURVE",
"316 -86 CURVE SMOOTH",
"191 -86 OFFCURVE",
"156 -64 OFFCURVE",
"156 -27 CURVE SMOOTH",
"156 -6 OFFCURVE",
"182 10 OFFCURVE",
"225 8 CURVE SMOOTH",
"370 2 LINE SMOOTH"
);
}
);
width = 626;
}
);
unicode = 0067;
},
{
glyphname = h;
lastChange = "2015-06-11 13:01:42 +0000";
layers = (
{
background = {
paths = (
{
closed = 1;
nodes = (
"231 721 LINE SMOOTH",
"231 734 OFFCURVE",
"225 742 OFFCURVE",
"213 742 CURVE SMOOTH",
"56 742 LINE SMOOTH",
"44 742 OFFCURVE",
"37 733 OFFCURVE",
"37 719 CURVE SMOOTH",
"33 25 LINE SMOOTH",
"33 7 OFFCURVE",
"40 0 OFFCURVE",
"59 0 CURVE SMOOTH",
"201 0 LINE SMOOTH",
"225 0 OFFCURVE",
"234 8 OFFCURVE",
"234 29 CURVE SMOOTH",
"234 349 LINE",
"253 383 OFFCURVE",
"276 399 OFFCURVE",
"307 399 CURVE SMOOTH",
"339 399 OFFCURVE",
"359 381 OFFCURVE",
"359 351 CURVE SMOOTH",
"359 25 LINE SMOOTH",
"359 6 OFFCURVE",
"365 0 OFFCURVE",
"382 0 CURVE SMOOTH",
"529 0 LINE SMOOTH",
"550 0 OFFCURVE",
"559 10 OFFCURVE",
"559 30 CURVE SMOOTH",
"559 375 LINE SMOOTH",
"559 479 OFFCURVE",
"502 537 OFFCURVE",
"404 537 CURVE SMOOTH",
"351 537 OFFCURVE",
"313 521 OFFCURVE",
"244 468 CURVE SMOOTH",
"235 462 OFFCURVE",
"231 464 OFFCURVE",
"231 472 CURVE SMOOTH"
);
}
);
};
layerId = "258ED206-D907-4350-8EBA-CBDDA1C16BF7";
name = Regular;
paths = (
{
closed = 1;
nodes = (
"235 721 LINE SMOOTH",
"235 734 OFFCURVE",
"229 742 OFFCURVE",
"217 742 CURVE SMOOTH",
"57 742 LINE SMOOTH",
"45 742 OFFCURVE",
"38 733 OFFCURVE",
"38 719 CURVE SMOOTH",
"38 25 LINE SMOOTH",
"38 7 OFFCURVE",
"45 0 OFFCURVE",
"64 0 CURVE SMOOTH",
"205 0 LINE SMOOTH",
"229 0 OFFCURVE",
"238 8 OFFCURVE",
"238 29 CURVE SMOOTH",
"238 349 LINE",
"257 383 OFFCURVE",
"281 399 OFFCURVE",
"312 399 CURVE SMOOTH",
"344 399 OFFCURVE",
"364 381 OFFCURVE",
"364 351 CURVE SMOOTH",
"364 25 LINE SMOOTH",
"364 6 OFFCURVE",
"370 0 OFFCURVE",
"387 0 CURVE SMOOTH",
"534 0 LINE SMOOTH",
"555 0 OFFCURVE",
"564 10 OFFCURVE",
"564 30 CURVE SMOOTH",
"564 375 LINE SMOOTH",
"564 481 OFFCURVE",
"507 540 OFFCURVE",
"408 540 CURVE SMOOTH",
"355 540 OFFCURVE",
"305 523 OFFCURVE",
"248 468 CURVE SMOOTH",
"240 461 OFFCURVE",
"235 464 OFFCURVE",
"235 472 CURVE SMOOTH"
);
}
);
width = 602;
}
);
leftMetricsKey = n;
rightMetricsKey = n;
unicode = 0068;
},
{
glyphname = i;
lastChange = "2015-06-11 13:01:42 +0000";
layers = (
{
background = {
paths = (
{
closed = 1;
nodes = (
"238 522 OFFCURVE",
"231 530 OFFCURVE",
"220 530 CURVE SMOOTH",
"62 530 LINE SMOOTH",
"50 530 OFFCURVE",
"43 522 OFFCURVE",
"43 507 CURVE SMOOTH",
"43 25 LINE SMOOTH",
"43 8 OFFCURVE",
"49 0 OFFCURVE",
"69 0 CURVE SMOOTH",
"205 0 LINE SMOOTH",
"228 0 OFFCURVE",
"238 8 OFFCURVE",
"238 29 CURVE SMOOTH",
"238 510 LINE SMOOTH"
);
},
{
closed = 1;
nodes = (
"238 734 OFFCURVE",
"231 742 OFFCURVE",
"220 742 CURVE SMOOTH",
"62 742 LINE SMOOTH",
"50 742 OFFCURVE",
"43 734 OFFCURVE",
"43 719 CURVE SMOOTH",
"43 600 LINE SMOOTH",
"43 583 OFFCURVE",
"49 574 OFFCURVE",
"69 574 CURVE SMOOTH",
"205 574 LINE SMOOTH",
"228 574 OFFCURVE",
"238 583 OFFCURVE",
"238 603 CURVE SMOOTH",
"238 721 LINE SMOOTH"
);
}
);
};
layerId = "258ED206-D907-4350-8EBA-CBDDA1C16BF7";
name = Regular;
paths = (
{
closed = 1;
nodes = (
"242 522 OFFCURVE",
"235 530 OFFCURVE",
"224 530 CURVE SMOOTH",
"61 530 LINE SMOOTH",
"49 530 OFFCURVE",
"42 522 OFFCURVE",
"42 507 CURVE SMOOTH",
"42 25 LINE SMOOTH",
"42 8 OFFCURVE",
"48 0 OFFCURVE",
"68 0 CURVE SMOOTH",
"209 0 LINE SMOOTH",
"232 0 OFFCURVE",
"242 8 OFFCURVE",
"242 29 CURVE SMOOTH",
"242 510 LINE SMOOTH"
);
},
{
closed = 1;
nodes = (
"242 734 OFFCURVE",
"235 742 OFFCURVE",
"224 742 CURVE SMOOTH",
"61 742 LINE SMOOTH",
"49 742 OFFCURVE",
"42 734 OFFCURVE",
"42 719 CURVE SMOOTH",
"42 600 LINE SMOOTH",
"42 583 OFFCURVE",
"48 574 OFFCURVE",
"68 574 CURVE SMOOTH",
"209 574 LINE SMOOTH",
"232 574 OFFCURVE",
"242 583 OFFCURVE",
"242 603 CURVE SMOOTH",
"242 721 LINE SMOOTH"
);
}
);
width = 284;
}
);
leftMetricsKey = "=n+4";
rightMetricsKey = "=n+4";
unicode = 0069;
},
{
color = 5;
glyphname = dotlessi;
lastChange = "2015-06-11 13:44:56 +0000";
layers = (
{
layerId = "258ED206-D907-4350-8EBA-CBDDA1C16BF7";
name = Regular;
paths = (
{
closed = 1;
nodes = (
"242 522 OFFCURVE",
"235 530 OFFCURVE",
"224 530 CURVE SMOOTH",
"61 530 LINE SMOOTH",
"49 530 OFFCURVE",
"42 522 OFFCURVE",
"42 507 CURVE SMOOTH",
"42 25 LINE SMOOTH",
"42 8 OFFCURVE",
"48 0 OFFCURVE",
"68 0 CURVE SMOOTH",
"209 0 LINE SMOOTH",
"232 0 OFFCURVE",
"242 8 OFFCURVE",
"242 29 CURVE SMOOTH",
"242 510 LINE SMOOTH"
);
}
);
width = 284;
}
);
unicode = 0131;
},
{
glyphname = j;
lastChange = "2015-06-11 13:01:42 +0000";
layers = (
{
background = {
paths = (
{
closed = 1;
nodes = (
"243 510 LINE SMOOTH",
"243 522 OFFCURVE",
"237 530 OFFCURVE",
"225 530 CURVE SMOOTH",
"66 530 LINE SMOOTH",
"54 530 OFFCURVE",
"46 522 OFFCURVE",
"46 507 CURVE SMOOTH",
"46 36 LINE SMOOTH",
"46 2 OFFCURVE",
"35 -6 OFFCURVE",
"22 -10 CURVE SMOOTH",
"-3 -16 LINE SMOOTH",
"-16 -19 OFFCURVE",
"-23 -32 OFFCURVE",
"-23 -43 CURVE SMOOTH",
"-22 -140 LINE SMOOTH",
"-22 -161 OFFCURVE",
"-13 -165 OFFCURVE",
"33 -165 CURVE SMOOTH",
"150 -165 OFFCURVE",
"243 -100 OFFCURVE",
"243 29 CURVE SMOOTH"
);
},
{
closed = 1;
nodes = (
"243 734 OFFCURVE",
"237 742 OFFCURVE",
"225 742 CURVE SMOOTH",
"66 742 LINE SMOOTH",
"54 742 OFFCURVE",
"46 734 OFFCURVE",
"46 719 CURVE SMOOTH",
"46 600 LINE SMOOTH",
"46 583 OFFCURVE",
"53 574 OFFCURVE",
"73 574 CURVE SMOOTH",
"211 574 LINE SMOOTH",
"234 574 OFFCURVE",
"243 583 OFFCURVE",
"243 603 CURVE SMOOTH",
"243 721 LINE SMOOTH"
);
}
);
};
layerId = "258ED206-D907-4350-8EBA-CBDDA1C16BF7";
name = Regular;
paths = (
{
closed = 1;
nodes = (
"244 510 LINE SMOOTH",
"244 522 OFFCURVE",
"238 530 OFFCURVE",
"226 530 CURVE SMOOTH",
"64 530 LINE SMOOTH",
"52 530 OFFCURVE",
"44 522 OFFCURVE",
"44 507 CURVE SMOOTH",
"44 36 LINE SMOOTH",
"44 2 OFFCURVE",
"33 -6 OFFCURVE",
"20 -10 CURVE SMOOTH",
"-5 -16 LINE SMOOTH",
"-18 -19 OFFCURVE",
"-25 -32 OFFCURVE",
"-25 -43 CURVE SMOOTH",
"-24 -145 LINE SMOOTH",
"-24 -166 OFFCURVE",
"-12 -170 OFFCURVE",
"34 -170 CURVE SMOOTH",
"151 -170 OFFCURVE",
"244 -103 OFFCURVE",
"244 29 CURVE SMOOTH"
);
},
{
closed = 1;
nodes = (
"244 734 OFFCURVE",
"238 742 OFFCURVE",
"226 742 CURVE SMOOTH",
"64 742 LINE SMOOTH",
"52 742 OFFCURVE",
"44 734 OFFCURVE",
"44 719 CURVE SMOOTH",
"44 600 LINE SMOOTH",
"44 583 OFFCURVE",
"51 574 OFFCURVE",
"71 574 CURVE SMOOTH",
"212 574 LINE SMOOTH",
"235 574 OFFCURVE",
"244 583 OFFCURVE",
"244 603 CURVE SMOOTH",
"244 721 LINE SMOOTH"
);
}
);
width = 284;
}
);
unicode = 006A;
},
{
color = 5;
glyphname = dotlessj;
lastChange = "2015-06-11 13:45:07 +0000";
layers = (
{
layerId = "258ED206-D907-4350-8EBA-CBDDA1C16BF7";
name = Regular;
paths = (
{
closed = 1;
nodes = (
"244 510 LINE SMOOTH",
"244 522 OFFCURVE",
"238 530 OFFCURVE",
"226 530 CURVE SMOOTH",
"64 530 LINE SMOOTH",
"52 530 OFFCURVE",
"44 522 OFFCURVE",
"44 507 CURVE SMOOTH",
"44 36 LINE SMOOTH",
"44 2 OFFCURVE",
"33 -6 OFFCURVE",
"20 -10 CURVE SMOOTH",
"-5 -16 LINE SMOOTH",
"-18 -19 OFFCURVE",
"-25 -32 OFFCURVE",
"-25 -43 CURVE SMOOTH",
"-24 -145 LINE SMOOTH",
"-24 -166 OFFCURVE",
"-12 -170 OFFCURVE",
"34 -170 CURVE SMOOTH",
"151 -170 OFFCURVE",
"244 -103 OFFCURVE",
"244 29 CURVE SMOOTH"
);
}
);
width = 284;
}
);
unicode = 0237;
},
{
glyphname = k;
lastChange = "2015-06-11 13:01:42 +0000";
layers = (
{
background = {
paths = (
{
closed = 1;
nodes = (
"447 337 LINE SMOOTH",
"438 355 OFFCURVE",
"440 361 OFFCURVE",
"449 372 CURVE SMOOTH",
"578 501 LINE SMOOTH",
"591 515 OFFCURVE",
"587 530 OFFCURVE",
"564 530 CURVE SMOOTH",
"427 530 LINE SMOOTH",
"417 530 OFFCURVE",
"406 523 OFFCURVE",
"396 513 CURVE SMOOTH",
"246 344 LINE SMOOTH",
"238 335 OFFCURVE",
"234 340 OFFCURVE",
"234 346 CURVE SMOOTH",
"234 721 LINE SMOOTH",
"234 734 OFFCURVE",
"228 742 OFFCURVE",
"216 742 CURVE SMOOTH",
"56 742 LINE SMOOTH",
"45 742 OFFCURVE",
"37 734 OFFCURVE",
"37 719 CURVE SMOOTH",
"33 25 LINE SMOOTH",
"33 8 OFFCURVE",
"39 0 OFFCURVE",
"60 0 CURVE SMOOTH",
"202 0 LINE SMOOTH",
"225 0 OFFCURVE",
"234 8 OFFCURVE",
"234 29 CURVE SMOOTH",
"234 130 LINE SMOOTH",
"234 146 OFFCURVE",
"237 153 OFFCURVE",
"243 158 CURVE SMOOTH",
"291 203 LINE SMOOTH",
"301 213 OFFCURVE",
"306 211 OFFCURVE",
"312 198 CURVE SMOOTH",
"384 26 LINE SMOOTH",
"391 10 OFFCURVE",
"400 0 OFFCURVE",
"417 0 CURVE SMOOTH",
"588 0 LINE SMOOTH",
"606 0 OFFCURVE",
"613 17 OFFCURVE",
"607 28 CURVE SMOOTH"
);
}
);
};
layerId = "258ED206-D907-4350-8EBA-CBDDA1C16BF7";
name = Regular;
paths = (
{
closed = 1;
nodes = (
"451 337 LINE SMOOTH",
"442 355 OFFCURVE",
"444 361 OFFCURVE",
"453 372 CURVE SMOOTH",
"582 501 LINE SMOOTH",
"595 515 OFFCURVE",
"591 530 OFFCURVE",
"568 530 CURVE SMOOTH",
"431 530 LINE SMOOTH",
"421 530 OFFCURVE",
"410 523 OFFCURVE",
"400 513 CURVE SMOOTH",
"250 344 LINE SMOOTH",
"242 335 OFFCURVE",
"238 340 OFFCURVE",
"238 346 CURVE SMOOTH",
"238 721 LINE SMOOTH",
"238 734 OFFCURVE",
"232 742 OFFCURVE",
"220 742 CURVE SMOOTH",
"57 742 LINE SMOOTH",
"46 742 OFFCURVE",
"38 734 OFFCURVE",
"38 719 CURVE SMOOTH",
"38 25 LINE SMOOTH",
"38 8 OFFCURVE",
"44 0 OFFCURVE",
"65 0 CURVE SMOOTH",
"206 0 LINE SMOOTH",
"229 0 OFFCURVE",
"238 8 OFFCURVE",
"238 29 CURVE SMOOTH",
"238 130 LINE SMOOTH",
"238 146 OFFCURVE",
"241 153 OFFCURVE",
"247 158 CURVE SMOOTH",
"295 203 LINE SMOOTH",
"305 213 OFFCURVE",
"310 211 OFFCURVE",
"316 198 CURVE SMOOTH",
"388 26 LINE SMOOTH",
"395 10 OFFCURVE",
"404 0 OFFCURVE",
"421 0 CURVE SMOOTH",
"592 0 LINE SMOOTH",
"610 0 OFFCURVE",
"617 17 OFFCURVE",
"611 28 CURVE SMOOTH"
);
}
);
width = 595;
}
);
leftMetricsKey = n;
unicode = 006B;
},
{
color = 5;
glyphname = kgreenlandic;
lastChange = "2015-06-11 13:45:56 +0000";
layers = (
{
layerId = "258ED206-D907-4350-8EBA-CBDDA1C16BF7";
name = Regular;
paths = (
{
closed = 1;
nodes = (
"451 337 LINE SMOOTH",
"442 355 OFFCURVE",
"444 361 OFFCURVE",
"453 372 CURVE SMOOTH",
"582 501 LINE SMOOTH",
"595 515 OFFCURVE",
"591 530 OFFCURVE",
"568 530 CURVE SMOOTH",
"431 530 LINE SMOOTH",
"421 530 OFFCURVE",
"410 523 OFFCURVE",
"400 513 CURVE SMOOTH",
"250 344 LINE SMOOTH",
"242 335 OFFCURVE",
"238 340 OFFCURVE",
"238 346 CURVE SMOOTH",
"238 509 LINE SMOOTH",
"238 522 OFFCURVE",
"232 530 OFFCURVE",
"220 530 CURVE SMOOTH",
"57 530 LINE SMOOTH",
"46 530 OFFCURVE",
"38 522 OFFCURVE",
"38 507 CURVE SMOOTH",
"38 25 LINE SMOOTH",
"38 8 OFFCURVE",
"44 0 OFFCURVE",
"65 0 CURVE SMOOTH",
"206 0 LINE SMOOTH",
"229 0 OFFCURVE",
"238 8 OFFCURVE",
"238 29 CURVE SMOOTH",
"238 130 LINE SMOOTH",
"238 146 OFFCURVE",
"241 153 OFFCURVE",
"247 158 CURVE SMOOTH",
"295 203 LINE SMOOTH",
"305 213 OFFCURVE",
"310 211 OFFCURVE",
"316 198 CURVE SMOOTH",
"388 26 LINE SMOOTH",
"395 10 OFFCURVE",
"404 0 OFFCURVE",
"421 0 CURVE SMOOTH",
"592 0 LINE SMOOTH",
"610 0 OFFCURVE",
"617 17 OFFCURVE",
"611 28 CURVE SMOOTH"
);
}
);
width = 595;
}
);
unicode = 0138;
},
{
glyphname = l;
lastChange = "2015-06-11 13:01:42 +0000";
layers = (
{
background = {
paths = (
{
closed = 1;
nodes = (
"238 734 OFFCURVE",
"231 742 OFFCURVE",
"220 742 CURVE SMOOTH",
"60 742 LINE SMOOTH",
"48 742 OFFCURVE",
"41 734 OFFCURVE",
"41 719 CURVE SMOOTH",
"36 25 LINE SMOOTH",
"36 8 OFFCURVE",
"43 0 OFFCURVE",
"63 0 CURVE SMOOTH",
"205 0 LINE SMOOTH",
"228 0 OFFCURVE",
"238 8 OFFCURVE",
"238 29 CURVE SMOOTH",
"238 721 LINE SMOOTH"
);
}
);
};
layerId = "258ED206-D907-4350-8EBA-CBDDA1C16BF7";
name = Regular;
paths = (
{
closed = 1;
nodes = (
"242 734 OFFCURVE",
"235 742 OFFCURVE",
"224 742 CURVE SMOOTH",
"61 742 LINE SMOOTH",
"49 742 OFFCURVE",
"42 734 OFFCURVE",
"42 719 CURVE SMOOTH",
"42 25 LINE SMOOTH",
"42 8 OFFCURVE",
"49 0 OFFCURVE",
"69 0 CURVE SMOOTH",
"209 0 LINE SMOOTH",
"232 0 OFFCURVE",
"242 8 OFFCURVE",
"242 29 CURVE SMOOTH",
"242 721 LINE SMOOTH"
);
}
);
width = 284;
}
);
leftMetricsKey = "=n+4";
rightMetricsKey = "=n+4";
unicode = 006C;
},
{
glyphname = m;
lastChange = "2015-06-11 13:01:42 +0000";
layers = (
{
background = {
paths = (
{
closed = 1;
nodes = (
"671 535 OFFCURVE",
"595 494 OFFCURVE",
"558 446 CURVE SMOOTH",
"553 440 OFFCURVE",
"548 440 OFFCURVE",
"546 445 CURVE SMOOTH",
"523 503 OFFCURVE",
"470 535 OFFCURVE",
"403 535 CURVE SMOOTH",
"342 535 OFFCURVE",
"286 504 OFFCURVE",
"243 461 CURVE SMOOTH",
"235 453 OFFCURVE",
"230 457 OFFCURVE",
"230 465 CURVE SMOOTH",
"230 510 LINE SMOOTH",
"230 522 OFFCURVE",
"224 530 OFFCURVE",
"212 530 CURVE SMOOTH",
"55 530 LINE SMOOTH",
"44 530 OFFCURVE",
"36 521 OFFCURVE",
"36 507 CURVE SMOOTH",
"32 25 LINE SMOOTH",
"32 7 OFFCURVE",
"39 0 OFFCURVE",
"58 0 CURVE SMOOTH",
"200 0 LINE SMOOTH",
"224 0 OFFCURVE",
"233 8 OFFCURVE",
"233 29 CURVE SMOOTH",
"233 349 LINE",
"252 383 OFFCURVE",
"276 399 OFFCURVE",
"306 399 CURVE SMOOTH",
"338 399 OFFCURVE",
"358 381 OFFCURVE",
"358 351 CURVE SMOOTH",
"358 25 LINE SMOOTH",
"358 6 OFFCURVE",
"365 0 OFFCURVE",
"381 0 CURVE SMOOTH",
"528 0 LINE SMOOTH",
"549 0 OFFCURVE",
"558 10 OFFCURVE",
"558 30 CURVE SMOOTH",
"558 333 LINE SMOOTH",
"558 342 OFFCURVE",
"558 351 OFFCURVE",
"566 360 CURVE SMOOTH",
"582 381 OFFCURVE",
"609 399 OFFCURVE",
"635 399 CURVE SMOOTH",
"666 399 OFFCURVE",
"687 381 OFFCURVE",
"687 351 CURVE SMOOTH",
"687 25 LINE SMOOTH",
"687 6 OFFCURVE",
"693 0 OFFCURVE",
"710 0 CURVE SMOOTH",
"853 0 LINE SMOOTH",
"874 0 OFFCURVE",
"884 10 OFFCURVE",
"884 30 CURVE SMOOTH",
"884 373 LINE SMOOTH",
"884 477 OFFCURVE",
"820 535 OFFCURVE",
"731 535 CURVE SMOOTH"
);
}
);
};
layerId = "258ED206-D907-4350-8EBA-CBDDA1C16BF7";
name = Regular;
paths = (
{
closed = 1;
nodes = (
"675 540 OFFCURVE",
"599 497 OFFCURVE",
"562 446 CURVE SMOOTH",
"557 440 OFFCURVE",
"552 440 OFFCURVE",
"550 445 CURVE SMOOTH",
"527 507 OFFCURVE",
"475 541 OFFCURVE",
"408 541 CURVE SMOOTH",
"347 541 OFFCURVE",
"291 507 OFFCURVE",
"248 461 CURVE SMOOTH",
"240 453 OFFCURVE",
"235 457 OFFCURVE",
"235 465 CURVE SMOOTH",
"235 510 LINE SMOOTH",
"235 522 OFFCURVE",
"229 530 OFFCURVE",
"217 530 CURVE SMOOTH",
"57 530 LINE SMOOTH",
"46 530 OFFCURVE",
"38 521 OFFCURVE",
"38 507 CURVE SMOOTH",
"38 25 LINE SMOOTH",
"38 7 OFFCURVE",
"45 0 OFFCURVE",
"64 0 CURVE SMOOTH",
"205 0 LINE SMOOTH",
"229 0 OFFCURVE",
"238 8 OFFCURVE",
"238 29 CURVE SMOOTH",
"238 349 LINE",
"257 383 OFFCURVE",
"282 399 OFFCURVE",
"312 399 CURVE SMOOTH",
"344 399 OFFCURVE",
"364 381 OFFCURVE",
"364 351 CURVE SMOOTH",
"364 25 LINE SMOOTH",
"364 6 OFFCURVE",
"371 0 OFFCURVE",
"387 0 CURVE SMOOTH",
"533 0 LINE SMOOTH",
"554 0 OFFCURVE",
"563 10 OFFCURVE",
"563 30 CURVE SMOOTH",
"563 333 LINE SMOOTH",
"563 342 OFFCURVE",
"563 351 OFFCURVE",
"571 360 CURVE SMOOTH",
"586 381 OFFCURVE",
"612 399 OFFCURVE",
"637 399 CURVE SMOOTH",
"668 399 OFFCURVE",
"689 381 OFFCURVE",
"689 351 CURVE SMOOTH",
"689 25 LINE SMOOTH",
"689 6 OFFCURVE",
"695 0 OFFCURVE",
"712 0 CURVE SMOOTH",
"858 0 LINE SMOOTH",
"879 0 OFFCURVE",
"889 10 OFFCURVE",
"889 30 CURVE SMOOTH",
"889 373 LINE SMOOTH",
"889 480 OFFCURVE",
"825 540 OFFCURVE",
"735 540 CURVE SMOOTH"
);
}
);
width = 927;
}
);
leftMetricsKey = n;
rightMetricsKey = n;
unicode = 006D;
},
{
color = 5;
glyphname = n;
lastChange = "2015-06-11 16:28:05 +0000";
layers = (
{
background = {
paths = (
{
closed = 1;
nodes = (
"226 510 LINE SMOOTH",
"226 522 OFFCURVE",
"220 530 OFFCURVE",
"208 530 CURVE SMOOTH",
"50 530 LINE SMOOTH",
"38 530 OFFCURVE",
"31 521 OFFCURVE",
"31 507 CURVE SMOOTH",
"27 25 LINE SMOOTH",
"27 7 OFFCURVE",
"34 0 OFFCURVE",
"53 0 CURVE SMOOTH",
"196 0 LINE SMOOTH",
"220 0 OFFCURVE",
"229 8 OFFCURVE",
"229 29 CURVE SMOOTH",
"229 349 LINE",
"248 383 OFFCURVE",
"271 399 OFFCURVE",
"302 399 CURVE SMOOTH",
"334 399 OFFCURVE",
"355 381 OFFCURVE",
"355 351 CURVE SMOOTH",
"355 25 LINE SMOOTH",
"355 6 OFFCURVE",
"361 0 OFFCURVE",
"378 0 CURVE SMOOTH",
"525 0 LINE SMOOTH",
"546 0 OFFCURVE",
"555 10 OFFCURVE",
"555 30 CURVE SMOOTH",
"555 373 LINE SMOOTH",
"555 477 OFFCURVE",
"491 535 OFFCURVE",
"398 535 CURVE SMOOTH",
"337 535 OFFCURVE",
"281 504 OFFCURVE",
"239 461 CURVE SMOOTH",
"231 453 OFFCURVE",
"226 457 OFFCURVE",
"226 465 CURVE SMOOTH"
);
}
);
};
layerId = "258ED206-D907-4350-8EBA-CBDDA1C16BF7";
name = Regular;
paths = (
{
closed = 1;
nodes = (
"237 510 LINE SMOOTH",
"237 522 OFFCURVE",
"231 530 OFFCURVE",
"219 530 CURVE SMOOTH",
"58 530 LINE SMOOTH",
"46 530 OFFCURVE",
"39 521 OFFCURVE",
"39 507 CURVE SMOOTH",
"38 25 LINE SMOOTH",
"38 7 OFFCURVE",
"45 0 OFFCURVE",
"64 0 CURVE SMOOTH",
"207 0 LINE SMOOTH",
"231 0 OFFCURVE",
"240 8 OFFCURVE",
"240 29 CURVE SMOOTH",
"240 349 LINE",
"259 383 OFFCURVE",
"282 399 OFFCURVE",
"313 399 CURVE SMOOTH",
"345 399 OFFCURVE",
"366 381 OFFCURVE",
"366 351 CURVE SMOOTH",
"366 25 LINE SMOOTH",
"366 6 OFFCURVE",
"372 0 OFFCURVE",
"389 0 CURVE SMOOTH",
"536 0 LINE SMOOTH",
"557 0 OFFCURVE",
"566 10 OFFCURVE",
"566 30 CURVE SMOOTH",
"566 378 LINE SMOOTH",
"566 477 OFFCURVE",
"502 540 OFFCURVE",
"409 540 CURVE SMOOTH",
"347 540 OFFCURVE",
"292 507 OFFCURVE",
"250 461 CURVE SMOOTH",
"242 453 OFFCURVE",
"237 457 OFFCURVE",
"237 465 CURVE SMOOTH"
);
}
);
width = 604;
}
);
unicode = 006E;
},
{
color = 5;
glyphname = eng;
lastChange = "2015-06-11 13:46:32 +0000";
layers = (
{
layerId = "258ED206-D907-4350-8EBA-CBDDA1C16BF7";
name = Regular;
paths = (
{
closed = 1;
nodes = (
"347 540 OFFCURVE",
"292 507 OFFCURVE",
"250 461 CURVE",
"242 453 OFFCURVE",
"237 457 OFFCURVE",
"237 465 CURVE SMOOTH",
"237 510 LINE SMOOTH",
"237 522 OFFCURVE",
"231 530 OFFCURVE",
"219 530 CURVE SMOOTH",
"61 530 LINE SMOOTH",
"49 530 OFFCURVE",
"42 521 OFFCURVE",
"42 507 CURVE SMOOTH",
"38 25 LINE SMOOTH",
"38 7 OFFCURVE",
"45 0 OFFCURVE",
"64 0 CURVE SMOOTH",
"207 0 LINE SMOOTH",
"231 0 OFFCURVE",
"240 8 OFFCURVE",
"240 29 CURVE SMOOTH",
"240 349 LINE",
"259 383 OFFCURVE",
"282 399 OFFCURVE",
"313 399 CURVE SMOOTH",
"345 399 OFFCURVE",
"366 381 OFFCURVE",
"366 351 CURVE SMOOTH",
"366 36 LINE SMOOTH",
"366 2 OFFCURVE",
"355 -6 OFFCURVE",
"342 -10 CURVE",
"317 -16 LINE SMOOTH",
"304 -19 OFFCURVE",
"297 -32 OFFCURVE",
"297 -43 CURVE SMOOTH",
"298 -145 LINE SMOOTH",
"298 -166 OFFCURVE",
"310 -170 OFFCURVE",
"356 -170 CURVE SMOOTH",
"473 -170 OFFCURVE",
"566 -103 OFFCURVE",
"566 29 CURVE SMOOTH",
"566 378 LINE SMOOTH",
"566 477 OFFCURVE",
"502 540 OFFCURVE",
"409 540 CURVE SMOOTH"
);
}
);
width = 606;
}
);
unicode = 014B;
},
{
glyphname = o;
lastChange = "2015-06-11 13:01:42 +0000";
layers = (
{
background = {
paths = (
{
closed = 1;
nodes = (
"142 538 OFFCURVE",
"20 429 OFFCURVE",
"20 262 CURVE SMOOTH",
"20 103 OFFCURVE",
"135 -8 OFFCURVE",
"299 -8 CURVE SMOOTH",
"464 -8 OFFCURVE",
"579 104 OFFCURVE",
"579 262 CURVE SMOOTH",
"579 423 OFFCURVE",
"467 538 OFFCURVE",
"300 538 CURVE SMOOTH"
);
},
{
closed = 1;
nodes = (
"247 118 OFFCURVE",
"223 162 OFFCURVE",
"223 266 CURVE SMOOTH",
"223 371 OFFCURVE",
"247 416 OFFCURVE",
"300 416 CURVE SMOOTH",
"354 416 OFFCURVE",
"377 371 OFFCURVE",
"377 266 CURVE SMOOTH",
"377 163 OFFCURVE",
"354 118 OFFCURVE",
"300 118 CURVE SMOOTH"
);
}
);
};
layerId = "258ED206-D907-4350-8EBA-CBDDA1C16BF7";
name = Regular;
paths = (
{
closed = 1;
nodes = (
"144 540 OFFCURVE",
"23 429 OFFCURVE",
"23 262 CURVE SMOOTH",
"23 103 OFFCURVE",
"137 -10 OFFCURVE",
"301 -10 CURVE SMOOTH",
"466 -10 OFFCURVE",
"581 104 OFFCURVE",
"581 262 CURVE SMOOTH",
"581 423 OFFCURVE",
"469 540 OFFCURVE",
"302 540 CURVE SMOOTH"
);
},
{
closed = 1;
nodes = (
"249 118 OFFCURVE",
"225 162 OFFCURVE",
"225 266 CURVE SMOOTH",
"225 371 OFFCURVE",
"249 416 OFFCURVE",
"302 416 CURVE SMOOTH",
"356 416 OFFCURVE",
"379 371 OFFCURVE",
"379 266 CURVE SMOOTH",
"379 163 OFFCURVE",
"356 118 OFFCURVE",
"302 118 CURVE SMOOTH"
);
}
);
width = 604;
}
);
unicode = 006F;
},
{
color = 5;
glyphname = oslash;
lastChange = "2015-06-11 13:53:24 +0000";
layers = (
{
background = {
paths = (
{
closed = 1;
nodes = (
"144 540 OFFCURVE",
"23 429 OFFCURVE",
"23 262 CURVE SMOOTH",
"23 103 OFFCURVE",
"137 -10 OFFCURVE",
"301 -10 CURVE SMOOTH",
"466 -10 OFFCURVE",
"581 104 OFFCURVE",
"581 262 CURVE SMOOTH",
"581 423 OFFCURVE",
"469 540 OFFCURVE",
"302 540 CURVE SMOOTH"
);
},
{
closed = 1;
nodes = (
"249 118 OFFCURVE",
"225 162 OFFCURVE",
"225 266 CURVE SMOOTH",
"225 371 OFFCURVE",
"249 416 OFFCURVE",
"302 416 CURVE SMOOTH",
"356 416 OFFCURVE",
"379 371 OFFCURVE",
"379 266 CURVE SMOOTH",
"379 163 OFFCURVE",
"356 118 OFFCURVE",
"302 118 CURVE SMOOTH"
);
},
{
closed = 1;
nodes = (
"597 461 OFFCURVE",
"596 471 OFFCURVE",
"588 479 CURVE SMOOTH",
"534 535 LINE SMOOTH",
"526 543 OFFCURVE",
"515 541 OFFCURVE",
"503 530 CURVE SMOOTH",
"18 79 LINE SMOOTH",
"6 68 OFFCURVE",
"7 57 OFFCURVE",
"22 42 CURVE SMOOTH",
"61 2 LINE SMOOTH",
"77 -14 OFFCURVE",
"88 -13 OFFCURVE",
"104 2 CURVE SMOOTH",
"587 452 LINE SMOOTH"
);
}
);
};
layerId = "258ED206-D907-4350-8EBA-CBDDA1C16BF7";
name = Regular;
paths = (
{
closed = 1;
nodes = (
"534 535 LINE SMOOTH",
"526 543 OFFCURVE",
"515 541 OFFCURVE",
"503 530 CURVE SMOOTH",
"464.337 494.047 LINE",
"420.072 523.38 OFFCURVE",
"364.943 540 OFFCURVE",
"302 540 CURVE SMOOTH",
"144 540 OFFCURVE",
"23 429 OFFCURVE",
"23 262 CURVE SMOOTH",
"23 207.845 OFFCURVE",
"36.225 159.026 OFFCURVE",
"60.146 118.191 CURVE",
"18 79 LINE SMOOTH",
"6 68 OFFCURVE",
"7 57 OFFCURVE",
"22 42 CURVE SMOOTH",
"61 2 LINE SMOOTH",
"77 -14 OFFCURVE",
"88 -13 OFFCURVE",
"104 2 CURVE SMOOTH",
"139.508 35.082 LINE",
"183.825 6.245 OFFCURVE",
"238.819 -10 OFFCURVE",
"301 -10 CURVE SMOOTH",
"466 -10 OFFCURVE",
"581 104 OFFCURVE",
"581 262 CURVE SMOOTH",
"581 317.947 OFFCURVE",
"567.475 368.58 OFFCURVE",
"542.819 410.838 CURVE",
"587 452 LINE SMOOTH",
"597 461 OFFCURVE",
"596 471 OFFCURVE",
"588 479 CURVE SMOOTH"
);
},
{
closed = 1;
nodes = (
"324.525 416 OFFCURVE",
"341.656 408.17 OFFCURVE",
"353.974 391.421 CURVE",
"225.023 271.51 LINE",
"225.857 372.576 OFFCURVE",
"249.936 416 OFFCURVE",
"302 416 CURVE SMOOTH"
);
},
{
closed = 1;
nodes = (
"280.868 118 OFFCURVE",
"264.347 124.995 OFFCURVE",
"252.118 139.999 CURVE",
"378.954 258.168 LINE",
"377.796 160.716 OFFCURVE",
"354.611 118 OFFCURVE",
"302 118 CURVE SMOOTH"
);
}
);
width = 604;
}
);
unicode = 00F8;
},
{
color = 5;
glyphname = oe;
lastChange = "2015-06-11 14:01:07 +0000";
layers = (
{
layerId = "258ED206-D907-4350-8EBA-CBDDA1C16BF7";
name = Regular;
paths = (
{
closed = 1;
nodes = (
"905 229 LINE",
"922 230 OFFCURVE",
"923 237 OFFCURVE",
"923 254 CURVE SMOOTH",
"923 435 OFFCURVE",
"808 540 OFFCURVE",
"651 540 CURVE SMOOTH",
"593 540 OFFCURVE",
"539 523 OFFCURVE",
"494 491 CURVE SMOOTH",
"484 484 OFFCURVE",
"479 484 OFFCURVE",
"469 491 CURVE SMOOTH",
"424 522 OFFCURVE",
"367 540 OFFCURVE",
"302 540 CURVE SMOOTH",
"144 540 OFFCURVE",
"23 429 OFFCURVE",
"23 262 CURVE SMOOTH",
"23 103 OFFCURVE",
"137 -10 OFFCURVE",
"301 -10 CURVE SMOOTH",
"366 -10 OFFCURVE",
"423 8 OFFCURVE",
"469 39 CURVE SMOOTH",
"475 43 OFFCURVE",
"480 44 OFFCURVE",
"486 40 CURVE SMOOTH",
"532 8 OFFCURVE",
"590 -10 OFFCURVE",
"655 -10 CURVE SMOOTH",
"767 -10 OFFCURVE",
"835 17 OFFCURVE",
"907 118 CURVE",
"916 129 OFFCURVE",
"913 138 OFFCURVE",
"903 142 CURVE SMOOTH",
"812 179 LINE SMOOTH",
"799 184 OFFCURVE",
"796 183 OFFCURVE",
"791 178 CURVE SMOOTH",
"747 135 OFFCURVE",
"716 122 OFFCURVE",
"682 122 CURVE SMOOTH",
"624 122 OFFCURVE",
"579 151 OFFCURVE",
"579 212 CURVE SMOOTH",
"579 224 OFFCURVE",
"584 229 OFFCURVE",
"594 229 CURVE SMOOTH"
);
},
{
closed = 1;
nodes = (
"710 423 OFFCURVE",
"729 372 OFFCURVE",
"729 346 CURVE SMOOTH",
"729 334 OFFCURVE",
"725 332 OFFCURVE",
"712 332 CURVE SMOOTH",
"582 333 LINE",
"581 395 OFFCURVE",
"619 423 OFFCURVE",
"660 423 CURVE SMOOTH"
);
},
{
closed = 1;
nodes = (
"249 118 OFFCURVE",
"225 162 OFFCURVE",
"225 266 CURVE SMOOTH",
"225 371 OFFCURVE",
"249 416 OFFCURVE",
"302 416 CURVE SMOOTH",
"356 416 OFFCURVE",
"379 371 OFFCURVE",
"379 266 CURVE SMOOTH",
"379 163 OFFCURVE",
"356 118 OFFCURVE",
"302 118 CURVE SMOOTH"
);
}
);
width = 945;
}
);
unicode = 0153;
},
{
glyphname = p;
lastChange = "2015-06-11 13:01:42 +0000";
layers = (
{
background = {
paths = (
{
closed = 1;
nodes = (
"65 530 LINE SMOOTH",
"44 530 OFFCURVE",
"38 521 OFFCURVE",
"38 504 CURVE SMOOTH",
"42 -143 LINE SMOOTH",
"42 -158 OFFCURVE",
"50 -165 OFFCURVE",
"61 -165 CURVE SMOOTH",
"216 -165 LINE SMOOTH",
"228 -165 OFFCURVE",
"234 -158 OFFCURVE",
"234 -145 CURVE SMOOTH",
"234 36 LINE SMOOTH",
"234 56 OFFCURVE",
"239 55 OFFCURVE",
"255 41 CURVE SMOOTH",
"297 5 OFFCURVE",
"338 -5 OFFCURVE",
"383 -5 CURVE SMOOTH",
"495 -5 OFFCURVE",
"587 69 OFFCURVE",
"587 267 CURVE SMOOTH",
"587 451 OFFCURVE",
"501 535 OFFCURVE",
"390 535 CURVE SMOOTH",
"328 535 OFFCURVE",
"289 516 OFFCURVE",
"250 483 CURVE SMOOTH",
"243 477 OFFCURVE",
"235 477 OFFCURVE",
"235 485 CURVE SMOOTH",
"235 506 LINE SMOOTH",
"235 523 OFFCURVE",
"228 530 OFFCURVE",
"209 530 CURVE SMOOTH"
);
},
{
closed = 1;
nodes = (
"237 363 LINE SMOOTH",
"237 395 OFFCURVE",
"268 419 OFFCURVE",
"307 419 CURVE SMOOTH",
"359 419 OFFCURVE",
"386 389 OFFCURVE",
"386 273 CURVE SMOOTH",
"386 145 OFFCURVE",
"357 111 OFFCURVE",
"307 111 CURVE SMOOTH",
"275 111 OFFCURVE",
"254 127 OFFCURVE",
"237 151 CURVE"
);
}
);
};
layerId = "258ED206-D907-4350-8EBA-CBDDA1C16BF7";
name = Regular;
paths = (
{
closed = 1;
nodes = (
"65 530 LINE SMOOTH",
"44 530 OFFCURVE",
"38 521 OFFCURVE",
"38 504 CURVE SMOOTH",
"38 -143 LINE SMOOTH",
"38 -158 OFFCURVE",
"46 -165 OFFCURVE",
"57 -165 CURVE SMOOTH",
"220 -165 LINE SMOOTH",
"232 -165 OFFCURVE",
"238 -158 OFFCURVE",
"238 -145 CURVE SMOOTH",
"238 36 LINE SMOOTH",
"238 56 OFFCURVE",
"243 55 OFFCURVE",
"259 41 CURVE SMOOTH",
"301 1 OFFCURVE",
"342 -10 OFFCURVE",
"387 -10 CURVE SMOOTH",
"499 -10 OFFCURVE",
"590 65 OFFCURVE",
"590 267 CURVE SMOOTH",
"590 454 OFFCURVE",
"505 540 OFFCURVE",
"394 540 CURVE SMOOTH",
"332 540 OFFCURVE",
"293 519 OFFCURVE",
"254 483 CURVE SMOOTH",
"247 477 OFFCURVE",
"239 477 OFFCURVE",
"239 485 CURVE SMOOTH",
"239 506 LINE SMOOTH",
"239 523 OFFCURVE",
"232 530 OFFCURVE",
"213 530 CURVE SMOOTH"
);
},
{
closed = 1;
nodes = (
"238 363 LINE SMOOTH",
"238 395 OFFCURVE",
"269 419 OFFCURVE",
"308 419 CURVE SMOOTH",
"360 419 OFFCURVE",
"388 389 OFFCURVE",
"388 273 CURVE SMOOTH",
"388 145 OFFCURVE",
"358 111 OFFCURVE",
"308 111 CURVE SMOOTH",
"276 111 OFFCURVE",
"255 127 OFFCURVE",
"238 151 CURVE"
);
}
);
width = 613;
}
);
leftMetricsKey = n;
rightMetricsKey = o;
unicode = 0070;
},
{
color = 5;
glyphname = thorn;
lastChange = "2015-06-11 13:46:48 +0000";
layers = (
{
layerId = "258ED206-D907-4350-8EBA-CBDDA1C16BF7";
name = Regular;
paths = (
{
closed = 1;
nodes = (
"65 742 LINE SMOOTH",
"44 742 OFFCURVE",
"38 733 OFFCURVE",
"38 716 CURVE SMOOTH",
"38 -143 LINE SMOOTH",
"38 -158 OFFCURVE",
"46 -165 OFFCURVE",
"57 -165 CURVE SMOOTH",
"220 -165 LINE SMOOTH",
"232 -165 OFFCURVE",
"238 -158 OFFCURVE",
"238 -145 CURVE SMOOTH",
"238 36 LINE SMOOTH",
"238 56 OFFCURVE",
"243 55 OFFCURVE",
"259 41 CURVE SMOOTH",
"301 1 OFFCURVE",
"342 -10 OFFCURVE",
"387 -10 CURVE SMOOTH",
"499 -10 OFFCURVE",
"590 65 OFFCURVE",
"590 267 CURVE SMOOTH",
"590 454 OFFCURVE",
"505 540 OFFCURVE",
"394 540 CURVE SMOOTH",
"332 540 OFFCURVE",
"293 519 OFFCURVE",
"254 483 CURVE SMOOTH",
"247 477 OFFCURVE",
"239 477 OFFCURVE",
"239 485 CURVE SMOOTH",
"239 718 LINE SMOOTH",
"239 735 OFFCURVE",
"232 742 OFFCURVE",
"213 742 CURVE SMOOTH"
);
},
{
closed = 1;
nodes = (
"238 363 LINE SMOOTH",
"238 395 OFFCURVE",
"269 419 OFFCURVE",
"308 419 CURVE SMOOTH",
"360 419 OFFCURVE",
"388 389 OFFCURVE",
"388 273 CURVE SMOOTH",
"388 145 OFFCURVE",
"358 111 OFFCURVE",
"308 111 CURVE SMOOTH",
"276 111 OFFCURVE",
"255 127 OFFCURVE",
"238 151 CURVE"
);
}
);
width = 613;
}
);
unicode = 00FE;
},
{
glyphname = q;
lastChange = "2015-06-11 13:01:42 +0000";
layers = (
{
background = {
paths = (
{
closed = 1;
nodes = (
"449 530 OFFCURVE",
"441 522 OFFCURVE",
"436 506 CURVE SMOOTH",
"420 460 LINE SMOOTH",
"417 451 OFFCURVE",
"413 450 OFFCURVE",
"407 457 CURVE SMOOTH",
"368 503 OFFCURVE",
"314 535 OFFCURVE",
"241 535 CURVE SMOOTH",
"104 535 OFFCURVE",
"20 427 OFFCURVE",
"20 250 CURVE SMOOTH",
"20 86 OFFCURVE",
"100 -10 OFFCURVE",
"229 -10 CURVE SMOOTH",
"274 -10 OFFCURVE",
"317 11 OFFCURVE",
"353 39 CURVE SMOOTH",
"364 48 OFFCURVE",
"371 47 OFFCURVE",
"371 28 CURVE SMOOTH",
"371 -146 LINE SMOOTH",
"371 -159 OFFCURVE",
"378 -166 OFFCURVE",
"389 -166 CURVE SMOOTH",
"554 -166 LINE SMOOTH",
"565 -166 OFFCURVE",
"573 -159 OFFCURVE",
"573 -144 CURVE SMOOTH",
"577 504 LINE SMOOTH",
"577 521 OFFCURVE",
"571 530 OFFCURVE",
"550 530 CURVE SMOOTH",
"461 530 LINE SMOOTH"
);
},
{
closed = 1;
nodes = (
"351 122 OFFCURVE",
"328 110 OFFCURVE",
"298 110 CURVE SMOOTH",
"250 110 OFFCURVE",
"225 148 OFFCURVE",
"225 265 CURVE SMOOTH",
"225 381 OFFCURVE",
"253 426 OFFCURVE",
"302 426 CURVE SMOOTH",
"344 426 OFFCURVE",
"371 393 OFFCURVE",
"371 344 CURVE SMOOTH",
"371 143 LINE"
);
}
);
};
layerId = "258ED206-D907-4350-8EBA-CBDDA1C16BF7";
name = Regular;
paths = (
{
closed = 1;
nodes = (
"453 530 OFFCURVE",
"445 522 OFFCURVE",
"440 506 CURVE SMOOTH",
"424 460 LINE SMOOTH",
"421 451 OFFCURVE",
"417 450 OFFCURVE",
"411 457 CURVE SMOOTH",
"372 507 OFFCURVE",
"318 541 OFFCURVE",
"245 541 CURVE SMOOTH",
"108 541 OFFCURVE",
"23 431 OFFCURVE",
"23 264 CURVE SMOOTH",
"23 86 OFFCURVE",
"104 -10 OFFCURVE",
"233 -10 CURVE SMOOTH",
"278 -10 OFFCURVE",
"321 11 OFFCURVE",
"357 39 CURVE SMOOTH",
"368 48 OFFCURVE",
"375 47 OFFCURVE",
"375 28 CURVE SMOOTH",
"375 -146 LINE SMOOTH",
"375 -159 OFFCURVE",
"382 -166 OFFCURVE",
"393 -166 CURVE SMOOTH",
"556 -166 LINE SMOOTH",
"567 -166 OFFCURVE",
"575 -159 OFFCURVE",
"575 -144 CURVE SMOOTH",
"575 504 LINE SMOOTH",
"575 521 OFFCURVE",
"569 530 OFFCURVE",
"548 530 CURVE SMOOTH",
"465 530 LINE SMOOTH"
);
},
{
closed = 1;
nodes = (
"355 122 OFFCURVE",
"332 110 OFFCURVE",
"302 110 CURVE SMOOTH",
"254 110 OFFCURVE",
"225 148 OFFCURVE",
"225 265 CURVE SMOOTH",
"225 381 OFFCURVE",
"257 426 OFFCURVE",
"306 426 CURVE SMOOTH",
"348 426 OFFCURVE",
"375 393 OFFCURVE",
"375 344 CURVE SMOOTH",
"375 143 LINE"
);
}
);
width = 613;
}
);
leftMetricsKey = o;
rightMetricsKey = n;
unicode = 0071;
},
{
glyphname = r;
lastChange = "2015-06-11 13:01:42 +0000";
layers = (
{
background = {
paths = (
{
closed = 1;
nodes = (
"227 510 LINE SMOOTH",
"227 522 OFFCURVE",
"220 530 OFFCURVE",
"209 530 CURVE SMOOTH",
"53 530 LINE SMOOTH",
"41 530 OFFCURVE",
"34 522 OFFCURVE",
"34 507 CURVE SMOOTH",
"34 25 LINE SMOOTH",
"34 8 OFFCURVE",
"40 0 OFFCURVE",
"60 0 CURVE SMOOTH",
"201 0 LINE SMOOTH",
"224 0 OFFCURVE",
"234 8 OFFCURVE",
"234 29 CURVE SMOOTH",
"234 300 LINE SMOOTH",
"234 335 OFFCURVE",
"268 367 OFFCURVE",
"321 367 CURVE SMOOTH",
"355 367 OFFCURVE",
"389 360 OFFCURVE",
"421 352 CURVE SMOOTH",
"432 349 OFFCURVE",
"441 360 OFFCURVE",
"441 368 CURVE SMOOTH",
"441 520 LINE SMOOTH",
"441 534 OFFCURVE",
"430 539 OFFCURVE",
"407 539 CURVE SMOOTH",
"360 539 OFFCURVE",
"276 500 OFFCURVE",
"244 451 CURVE SMOOTH",
"237 442 OFFCURVE",
"227 444 OFFCURVE",
"227 454 CURVE SMOOTH"
);
}
);
};
layerId = "258ED206-D907-4350-8EBA-CBDDA1C16BF7";
name = Regular;
paths = (
{
closed = 1;
nodes = (
"231 510 LINE SMOOTH",
"231 522 OFFCURVE",
"224 530 OFFCURVE",
"213 530 CURVE SMOOTH",
"57 530 LINE SMOOTH",
"45 530 OFFCURVE",
"38 522 OFFCURVE",
"38 507 CURVE SMOOTH",
"38 25 LINE SMOOTH",
"38 8 OFFCURVE",
"44 0 OFFCURVE",
"64 0 CURVE SMOOTH",
"205 0 LINE SMOOTH",
"228 0 OFFCURVE",
"238 8 OFFCURVE",
"238 29 CURVE SMOOTH",
"238 295 LINE SMOOTH",
"238 330 OFFCURVE",
"280 363 OFFCURVE",
"324 363 CURVE SMOOTH",
"343 363 OFFCURVE",
"379 360 OFFCURVE",
"410 352 CURVE SMOOTH",
"422 349 OFFCURVE",
"430 355 OFFCURVE",
"430 368 CURVE SMOOTH",
"430 520 LINE SMOOTH",
"430 534 OFFCURVE",
"416 540 OFFCURVE",
"393 540 CURVE SMOOTH",
"346 540 OFFCURVE",
"280 500 OFFCURVE",
"248 451 CURVE SMOOTH",
"241 442 OFFCURVE",
"231 444 OFFCURVE",
"231 454 CURVE SMOOTH"
);
}
);
width = 440;
}
);
leftMetricsKey = n;
unicode = 0072;
},
{
glyphname = s;
lastChange = "2015-06-11 14:17:59 +0000";
layers = (
{
background = {
paths = (
{
closed = 1;
nodes = (
"392 368 OFFCURVE",
"399 363 OFFCURVE",
"411 369 CURVE SMOOTH",
"503 412 LINE SMOOTH",
"517 418 OFFCURVE",
"507 436 OFFCURVE",
"504 442 CURVE SMOOTH",
"475 495 OFFCURVE",
"385 541 OFFCURVE",
"269 541 CURVE SMOOTH",
"118 541 OFFCURVE",
"35 463 OFFCURVE",
"35 359 CURVE SMOOTH",
"35 268 OFFCURVE",
"98 218 OFFCURVE",
"203 199 CURVE SMOOTH",
"307 180 LINE SMOOTH",
"348 173 OFFCURVE",
"357 161 OFFCURVE",
"357 148 CURVE SMOOTH",
"357 123 OFFCURVE",
"323 113 OFFCURVE",
"278 113 CURVE SMOOTH",
"198 113 OFFCURVE",
"167 145 OFFCURVE",
"143 171 CURVE SMOOTH",
"135 178 OFFCURVE",
"129 181 OFFCURVE",
"112 173 CURVE SMOOTH",
"25 130 LINE SMOOTH",
"14 125 OFFCURVE",
"16 113 OFFCURVE",
"22 101 CURVE SMOOTH",
"53 40 OFFCURVE",
"145 -10 OFFCURVE",
"278 -10 CURVE SMOOTH",
"428 -10 OFFCURVE",
"534 53 OFFCURVE",
"534 168 CURVE SMOOTH",
"534 245 OFFCURVE",
"487 313 OFFCURVE",
"362 340 CURVE SMOOTH",
"252 364 LINE SMOOTH",
"213 373 OFFCURVE",
"209 381 OFFCURVE",
"209 390 CURVE SMOOTH",
"209 412 OFFCURVE",
"240 424 OFFCURVE",
"278 424 CURVE SMOOTH",
"332 424 OFFCURVE",
"360 399 OFFCURVE",
"382 377 CURVE SMOOTH"
);
}
);
};
layerId = "258ED206-D907-4350-8EBA-CBDDA1C16BF7";
name = Regular;
paths = (
{
closed = 1;
nodes = (
"390 369 OFFCURVE",
"397 364 OFFCURVE",
"409 370 CURVE SMOOTH",
"501 414 LINE SMOOTH",
"515 420 OFFCURVE",
"504 438 OFFCURVE",
"501 444 CURVE SMOOTH",
"472 497 OFFCURVE",
"382 540 OFFCURVE",
"266 540 CURVE SMOOTH",
"115 540 OFFCURVE",
"32 461 OFFCURVE",
"33 357 CURVE SMOOTH",
"34 266 OFFCURVE",
"97 216 OFFCURVE",
"203 198 CURVE SMOOTH",
"307 180 LINE SMOOTH",
"348 174 OFFCURVE",
"357 162 OFFCURVE",
"357 149 CURVE SMOOTH",
"357 124 OFFCURVE",
"323 113 OFFCURVE",
"278 113 CURVE SMOOTH",
"198 112 OFFCURVE",
"167 144 OFFCURVE",
"143 170 CURVE SMOOTH",
"135 177 OFFCURVE",
"129 180 OFFCURVE",
"112 172 CURVE SMOOTH",
"25 128 LINE SMOOTH",
"14 123 OFFCURVE",
"16 111 OFFCURVE",
"22 99 CURVE SMOOTH",
"54 38 OFFCURVE",
"146 -10 OFFCURVE",
"279 -10 CURVE SMOOTH",
"429 -10 OFFCURVE",
"534 55 OFFCURVE",
"534 170 CURVE SMOOTH",
"534 247 OFFCURVE",
"486 315 OFFCURVE",
"360 341 CURVE SMOOTH",
"250 364 LINE SMOOTH",
"211 372 OFFCURVE",
"207 380 OFFCURVE",
"207 389 CURVE SMOOTH",
"207 411 OFFCURVE",
"238 424 OFFCURVE",
"276 424 CURVE SMOOTH",
"330 425 OFFCURVE",
"358 400 OFFCURVE",
"380 378 CURVE SMOOTH"
);
}
);
width = 550;
}
);
unicode = 0073;
},
{
color = 5;
glyphname = germandbls;
lastChange = "2015-06-11 15:10:46 +0000";
layers = (
{
layerId = "258ED206-D907-4350-8EBA-CBDDA1C16BF7";
name = Regular;
paths = (
{
closed = 1;
nodes = (
"133 742 OFFCURVE",
"70 625 OFFCURVE",
"65 514 CURVE SMOOTH",
"65 504 OFFCURVE",
"64 496 OFFCURVE",
"51 496 CURVE SMOOTH",
"33 496 LINE SMOOTH",
"16 496 OFFCURVE",
"9 486 OFFCURVE",
"9 474 CURVE SMOOTH",
"9 380 LINE SMOOTH",
"9 366 OFFCURVE",
"17 361 OFFCURVE",
"31 361 CURVE SMOOTH",
"57 361 LINE SMOOTH",
"63 361 OFFCURVE",
"65 358 OFFCURVE",
"65 351 CURVE SMOOTH",
"65 20 LINE SMOOTH",
"65 7 OFFCURVE",
"72 0 OFFCURVE",
"83 0 CURVE SMOOTH",
"246 0 LINE SMOOTH",
"258 0 OFFCURVE",
"265 7 OFFCURVE",
"265 22 CURVE SMOOTH",
"261 535 LINE SMOOTH",
"261 581 OFFCURVE",
"287 617 OFFCURVE",
"340 617 CURVE SMOOTH",
"382 617 OFFCURVE",
"403 595 OFFCURVE",
"403 568 CURVE SMOOTH",
"403 504 OFFCURVE",
"293 478 OFFCURVE",
"293 368 CURVE SMOOTH",
"293 295 OFFCURVE",
"341 249 OFFCURVE",
"404 221 CURVE SMOOTH",
"457 198 OFFCURVE",
"481 187 OFFCURVE",
"481 158 CURVE SMOOTH",
"481 126 OFFCURVE",
"453 113 OFFCURVE",
"423 113 CURVE SMOOTH",
"394 113 OFFCURVE",
"374 125 OFFCURVE",
"361 133 CURVE SMOOTH",
"353 138 OFFCURVE",
"345 136 OFFCURVE",
"340 127 CURVE SMOOTH",
"299 38 LINE SMOOTH",
"295 30 OFFCURVE",
"297 21 OFFCURVE",
"306 16 CURVE SMOOTH",
"334 1 OFFCURVE",
"371 -10 OFFCURVE",
"427 -10 CURVE SMOOTH",
"568 -10 OFFCURVE",
"658 55 OFFCURVE",
"658 179 CURVE SMOOTH",
"658 313 OFFCURVE",
"553 360 OFFCURVE",
"441 410 CURVE SMOOTH",
"431 414 OFFCURVE",
"432 422 OFFCURVE",
"439 425 CURVE SMOOTH",
"543 467 OFFCURVE",
"582 511 OFFCURVE",
"582 581 CURVE SMOOTH",
"582 687 OFFCURVE",
"493 742 OFFCURVE",
"347 742 CURVE SMOOTH"
);
}
);
width = 674;
}
);
unicode = 00DF;
},
{
glyphname = t;
lastChange = "2015-06-11 13:01:42 +0000";
layers = (
{
background = {
paths = (
{
closed = 1;
nodes = (
"411 404 OFFCURVE",
"419 413 OFFCURVE",
"419 426 CURVE SMOOTH",
"419 512 LINE SMOOTH",
"419 525 OFFCURVE",
"410 531 OFFCURVE",
"397 531 CURVE SMOOTH",
"305 531 LINE SMOOTH",
"298 531 OFFCURVE",
"294 535 OFFCURVE",
"294 542 CURVE SMOOTH",
"294 688 LINE SMOOTH",
"294 702 OFFCURVE",
"286 710 OFFCURVE",
"275 710 CURVE SMOOTH",
"137 710 LINE SMOOTH",
"125 710 OFFCURVE",
"120 703 OFFCURVE",
"119 690 CURVE SMOOTH",
"103 542 LINE SMOOTH",
"102 534 OFFCURVE",
"98 530 OFFCURVE",
"91 530 CURVE SMOOTH",
"32 530 LINE SMOOTH",
"18 530 OFFCURVE",
"10 524 OFFCURVE",
"10 511 CURVE SMOOTH",
"10 425 LINE SMOOTH",
"10 412 OFFCURVE",
"17 403 OFFCURVE",
"34 403 CURVE SMOOTH",
"82 403 LINE SMOOTH",
"94 403 OFFCURVE",
"97 397 OFFCURVE",
"97 385 CURVE SMOOTH",
"97 133 LINE SMOOTH",
"97 47 OFFCURVE",
"167 0 OFFCURVE",
"263 0 CURVE SMOOTH",
"308 0 OFFCURVE",
"345 1 OFFCURVE",
"389 7 CURVE SMOOTH",
"408 11 OFFCURVE",
"418 21 OFFCURVE",
"418 37 CURVE SMOOTH",
"419 117 LINE SMOOTH",
"419 128 OFFCURVE",
"412 137 OFFCURVE",
"401 137 CURVE SMOOTH",
"358 137 LINE SMOOTH",
"309 137 OFFCURVE",
"288 155 OFFCURVE",
"288 190 CURVE SMOOTH",
"288 391 LINE SMOOTH",
"288 400 OFFCURVE",
"294 404 OFFCURVE",
"301 404 CURVE SMOOTH",
"394 404 LINE SMOOTH"
);
}
);
};
layerId = "258ED206-D907-4350-8EBA-CBDDA1C16BF7";
name = Regular;
paths = (
{
closed = 1;
nodes = (
"415 395 OFFCURVE",
"423 404 OFFCURVE",
"423 417 CURVE SMOOTH",
"423 512 LINE SMOOTH",
"423 525 OFFCURVE",
"414 531 OFFCURVE",
"401 531 CURVE SMOOTH",
"309 531 LINE SMOOTH",
"302 531 OFFCURVE",
"298 535 OFFCURVE",
"298 542 CURVE SMOOTH",
"298 688 LINE SMOOTH",
"298 702 OFFCURVE",
"290 710 OFFCURVE",
"279 710 CURVE SMOOTH",
"132 710 LINE SMOOTH",
"120 710 OFFCURVE",
"115 703 OFFCURVE",
"114 690 CURVE SMOOTH",
"98 542 LINE SMOOTH",
"97 534 OFFCURVE",
"93 530 OFFCURVE",
"86 530 CURVE SMOOTH",
"27 530 LINE SMOOTH",
"13 530 OFFCURVE",
"5 524 OFFCURVE",
"5 511 CURVE SMOOTH",
"5 417 LINE SMOOTH",
"5 404 OFFCURVE",
"12 395 OFFCURVE",
"29 395 CURVE SMOOTH",
"77 395 LINE SMOOTH",
"89 395 OFFCURVE",
"92 389 OFFCURVE",
"92 377 CURVE SMOOTH",
"92 133 LINE SMOOTH",
"92 47 OFFCURVE",
"162 0 OFFCURVE",
"258 0 CURVE SMOOTH",
"303 0 OFFCURVE",
"349 1 OFFCURVE",
"393 7 CURVE SMOOTH",
"412 11 OFFCURVE",
"422 21 OFFCURVE",
"422 37 CURVE SMOOTH",
"423 117 LINE SMOOTH",
"423 128 OFFCURVE",
"416 137 OFFCURVE",
"405 137 CURVE SMOOTH",
"362 137 LINE SMOOTH",
"313 137 OFFCURVE",
"292 155 OFFCURVE",
"292 190 CURVE SMOOTH",
"292 382 LINE SMOOTH",
"292 391 OFFCURVE",
"298 395 OFFCURVE",
"305 395 CURVE SMOOTH",
"398 395 LINE SMOOTH"
);
}
);
width = 430;
}
);
unicode = 0074;
},
{
glyphname = u;
lastChange = "2015-06-11 13:01:42 +0000";
layers = (
{
background = {
paths = (
{
closed = 1;
nodes = (
"361 20 LINE SMOOTH",
"361 7 OFFCURVE",
"368 0 OFFCURVE",
"379 0 CURVE SMOOTH",
"536 0 LINE SMOOTH",
"548 0 OFFCURVE",
"555 8 OFFCURVE",
"555 22 CURVE SMOOTH",
"559 504 LINE SMOOTH",
"559 522 OFFCURVE",
"552 530 OFFCURVE",
"533 530 CURVE SMOOTH",
"391 530 LINE SMOOTH",
"368 530 OFFCURVE",
"358 521 OFFCURVE",
"358 501 CURVE SMOOTH",
"358 171 LINE",
"340 148 OFFCURVE",
"312 130 OFFCURVE",
"282 130 CURVE SMOOTH",
"253 130 OFFCURVE",
"233 148 OFFCURVE",
"233 179 CURVE SMOOTH",
"233 504 LINE SMOOTH",
"233 523 OFFCURVE",
"227 530 OFFCURVE",
"210 530 CURVE SMOOTH",
"64 530 LINE SMOOTH",
"42 530 OFFCURVE",
"33 520 OFFCURVE",
"33 500 CURVE SMOOTH",
"33 157 LINE SMOOTH",
"33 53 OFFCURVE",
"96 -5 OFFCURVE",
"182 -5 CURVE SMOOTH",
"249 -5 OFFCURVE",
"302 17 OFFCURVE",
"349 68 CURVE SMOOTH",
"356 75 OFFCURVE",
"361 72 OFFCURVE",
"361 64 CURVE SMOOTH"
);
}
);
};
layerId = "258ED206-D907-4350-8EBA-CBDDA1C16BF7";
name = Regular;
paths = (
{
closed = 1;
nodes = (
"365 20 LINE SMOOTH",
"365 7 OFFCURVE",
"372 0 OFFCURVE",
"383 0 CURVE SMOOTH",
"541 0 LINE SMOOTH",
"553 0 OFFCURVE",
"560 8 OFFCURVE",
"560 22 CURVE SMOOTH",
"564 504 LINE SMOOTH",
"564 522 OFFCURVE",
"557 530 OFFCURVE",
"538 530 CURVE SMOOTH",
"395 530 LINE SMOOTH",
"372 530 OFFCURVE",
"362 521 OFFCURVE",
"362 501 CURVE SMOOTH",
"362 171 LINE",
"344 148 OFFCURVE",
"317 130 OFFCURVE",
"287 130 CURVE SMOOTH",
"258 130 OFFCURVE",
"238 148 OFFCURVE",
"238 179 CURVE SMOOTH",
"238 504 LINE SMOOTH",
"238 523 OFFCURVE",
"232 530 OFFCURVE",
"215 530 CURVE SMOOTH",
"69 530 LINE SMOOTH",
"47 530 OFFCURVE",
"38 520 OFFCURVE",
"38 500 CURVE SMOOTH",
"38 157 LINE SMOOTH",
"38 50 OFFCURVE",
"101 -10 OFFCURVE",
"187 -10 CURVE SMOOTH",
"254 -10 OFFCURVE",
"307 14 OFFCURVE",
"353 68 CURVE SMOOTH",
"360 75 OFFCURVE",
"365 72 OFFCURVE",
"365 64 CURVE SMOOTH"
);
}
);
width = 602;
}
);
leftMetricsKey = n;
rightMetricsKey = n;
unicode = 0075;
},
{
glyphname = v;
lastChange = "2015-06-11 13:01:42 +0000";
layers = (
{
background = {
paths = (
{
closed = 1;
nodes = (
"429 530 LINE SMOOTH",
"417 530 OFFCURVE",
"408 521 OFFCURVE",
"403 510 CURVE SMOOTH",
"318 280 LINE SMOOTH",
"312 266 OFFCURVE",
"307 267 OFFCURVE",
"303 279 CURVE SMOOTH",
"215 510 LINE SMOOTH",
"211 521 OFFCURVE",
"201 530 OFFCURVE",
"189 530 CURVE SMOOTH",
"20 530 LINE SMOOTH",
"4 530 OFFCURVE",
"-4 515 OFFCURVE",
"1 501 CURVE SMOOTH",
"195 25 LINE SMOOTH",
"202 8 OFFCURVE",
"212 0 OFFCURVE",
"232 0 CURVE SMOOTH",
"326 0 LINE SMOOTH",
"346 0 OFFCURVE",
"356 8 OFFCURVE",
"363 25 CURVE SMOOTH",
"558 501 LINE SMOOTH",
"563 515 OFFCURVE",
"557 530 OFFCURVE",
"541 530 CURVE SMOOTH"
);
}
);
};
layerId = "258ED206-D907-4350-8EBA-CBDDA1C16BF7";
name = Regular;
paths = (
{
closed = 1;
nodes = (
"429 530 LINE SMOOTH",
"417 530 OFFCURVE",
"408 521 OFFCURVE",
"403 510 CURVE SMOOTH",
"318 280 LINE SMOOTH",
"312 266 OFFCURVE",
"307 267 OFFCURVE",
"303 279 CURVE SMOOTH",
"215 510 LINE SMOOTH",
"211 521 OFFCURVE",
"201 530 OFFCURVE",
"189 530 CURVE SMOOTH",
"20 530 LINE SMOOTH",
"4 530 OFFCURVE",
"-4 515 OFFCURVE",
"1 501 CURVE SMOOTH",
"195 25 LINE SMOOTH",
"202 8 OFFCURVE",
"212 0 OFFCURVE",
"232 0 CURVE SMOOTH",
"326 0 LINE SMOOTH",
"346 0 OFFCURVE",
"356 8 OFFCURVE",
"363 25 CURVE SMOOTH",
"558 501 LINE SMOOTH",
"563 515 OFFCURVE",
"557 530 OFFCURVE",
"541 530 CURVE SMOOTH"
);
}
);
width = 565;
}
);
unicode = 0076;
},
{
glyphname = w;
lastChange = "2015-06-11 13:01:42 +0000";
layers = (
{
background = {
paths = (
{
closed = 1;
nodes = (
"679 530 LINE SMOOTH",
"667 530 OFFCURVE",
"658 521 OFFCURVE",
"653 510 CURVE",
"585 297 LINE SMOOTH",
"580 283 OFFCURVE",
"573 284 OFFCURVE",
"570 296 CURVE SMOOTH",
"507 510 LINE SMOOTH",
"504 521 OFFCURVE",
"493 530 OFFCURVE",
"482 530 CURVE SMOOTH",
"373 530 LINE SMOOTH",
"361 530 OFFCURVE",
"350 521 OFFCURVE",
"347 510 CURVE SMOOTH",
"282 297 LINE SMOOTH",
"277 283 OFFCURVE",
"270 284 OFFCURVE",
"267 296 CURVE SMOOTH",
"198 510 LINE SMOOTH",
"195 521 OFFCURVE",
"184 530 OFFCURVE",
"172 530 CURVE SMOOTH",
"17 530 LINE SMOOTH",
"1 530 OFFCURVE",
"-7 515 OFFCURVE",
"-2 501 CURVE SMOOTH",
"161 22 LINE SMOOTH",
"166 6 OFFCURVE",
"174 0 OFFCURVE",
"189 0 CURVE SMOOTH",
"296 0 LINE SMOOTH",
"311 0 OFFCURVE",
"316 5 OFFCURVE",
"320 18 CURVE SMOOTH",
"390 232 LINE SMOOTH",
"394 246 OFFCURVE",
"401 246 OFFCURVE",
"406 232 CURVE SMOOTH",
"470 22 LINE SMOOTH",
"475 6 OFFCURVE",
"483 0 OFFCURVE",
"499 0 CURVE SMOOTH",
"603 0 LINE SMOOTH",
"617 0 OFFCURVE",
"622 5 OFFCURVE",
"626 18 CURVE SMOOTH",
"796 501 LINE SMOOTH",
"802 515 OFFCURVE",
"795 530 OFFCURVE",
"779 530 CURVE SMOOTH"
);
}
);
};
layerId = "258ED206-D907-4350-8EBA-CBDDA1C16BF7";
name = Regular;
paths = (
{
closed = 1;
nodes = (
"682 530 LINE SMOOTH",
"670 530 OFFCURVE",
"661 521 OFFCURVE",
"656 510 CURVE",
"588 297 LINE SMOOTH",
"583 283 OFFCURVE",
"576 284 OFFCURVE",
"573 296 CURVE SMOOTH",
"510 510 LINE SMOOTH",
"507 521 OFFCURVE",
"496 530 OFFCURVE",
"485 530 CURVE SMOOTH",
"376 530 LINE SMOOTH",
"364 530 OFFCURVE",
"353 521 OFFCURVE",
"350 510 CURVE SMOOTH",
"285 297 LINE SMOOTH",
"280 283 OFFCURVE",
"273 284 OFFCURVE",
"270 296 CURVE SMOOTH",
"201 510 LINE SMOOTH",
"198 521 OFFCURVE",
"187 530 OFFCURVE",
"175 530 CURVE SMOOTH",
"20 530 LINE SMOOTH",
"4 530 OFFCURVE",
"-4 515 OFFCURVE",
"1 501 CURVE SMOOTH",
"164 22 LINE SMOOTH",
"169 6 OFFCURVE",
"177 0 OFFCURVE",
"192 0 CURVE SMOOTH",
"299 0 LINE SMOOTH",
"314 0 OFFCURVE",
"319 5 OFFCURVE",
"323 18 CURVE SMOOTH",
"393 232 LINE SMOOTH",
"397 246 OFFCURVE",
"404 246 OFFCURVE",
"409 232 CURVE SMOOTH",
"473 22 LINE SMOOTH",
"478 6 OFFCURVE",
"486 0 OFFCURVE",
"502 0 CURVE SMOOTH",
"606 0 LINE SMOOTH",
"620 0 OFFCURVE",
"625 5 OFFCURVE",
"629 18 CURVE SMOOTH",
"799 501 LINE SMOOTH",
"805 515 OFFCURVE",
"798 530 OFFCURVE",
"782 530 CURVE SMOOTH"
);
}
);
width = 798;
}
);
unicode = 0077;
},
{
glyphname = x;
lastChange = "2015-06-11 13:01:42 +0000";
layers = (
{
background = {
paths = (
{
closed = 1;
nodes = (
"389 279 LINE SMOOTH",
"378 292 OFFCURVE",
"376 301 OFFCURVE",
"388 315 CURVE SMOOTH",
"538 501 LINE SMOOTH",
"550 515 OFFCURVE",
"549 530 OFFCURVE",
"524 530 CURVE SMOOTH",
"408 530 LINE SMOOTH",
"385 530 OFFCURVE",
"377 523 OFFCURVE",
"367 510 CURVE SMOOTH",
"303 418 LINE SMOOTH",
"294 407 OFFCURVE",
"291 408 OFFCURVE",
"285 418 CURVE SMOOTH",
"228 510 LINE SMOOTH",
"219 523 OFFCURVE",
"210 530 OFFCURVE",
"187 530 CURVE SMOOTH",
"24 530 LINE SMOOTH",
"1 530 OFFCURVE",
"-7 510 OFFCURVE",
"5 495 CURVE SMOOTH",
"169 285 LINE SMOOTH",
"181 270 OFFCURVE",
"181 263 OFFCURVE",
"170 249 CURVE SMOOTH",
"9 51 LINE SMOOTH",
"-22 13 OFFCURVE",
"-5 0 OFFCURVE",
"23 0 CURVE SMOOTH",
"128 0 LINE SMOOTH",
"148 0 OFFCURVE",
"161 5 OFFCURVE",
"170 20 CURVE SMOOTH",
"248 139 LINE SMOOTH",
"260 158 OFFCURVE",
"264 157 OFFCURVE",
"276 138 CURVE SMOOTH",
"354 20 LINE SMOOTH",
"363 6 OFFCURVE",
"376 0 OFFCURVE",
"396 0 CURVE SMOOTH",
"562 0 LINE SMOOTH",
"591 0 OFFCURVE",
"596 12 OFFCURVE",
"571 43 CURVE SMOOTH"
);
}
);
};
layerId = "258ED206-D907-4350-8EBA-CBDDA1C16BF7";
name = Regular;
paths = (
{
closed = 1;
nodes = (
"402 279 LINE SMOOTH",
"392 293 OFFCURVE",
"390 301 OFFCURVE",
"401 315 CURVE SMOOTH",
"542 501 LINE SMOOTH",
"553 515 OFFCURVE",
"553 530 OFFCURVE",
"528 530 CURVE SMOOTH",
"412 530 LINE SMOOTH",
"389 530 OFFCURVE",
"381 523 OFFCURVE",
"371 510 CURVE SMOOTH",
"307 418 LINE SMOOTH",
"298 407 OFFCURVE",
"295 408 OFFCURVE",
"289 418 CURVE SMOOTH",
"232 510 LINE SMOOTH",
"223 523 OFFCURVE",
"214 530 OFFCURVE",
"191 530 CURVE SMOOTH",
"28 530 LINE SMOOTH",
"5 530 OFFCURVE",
"-2 510 OFFCURVE",
"9 495 CURVE SMOOTH",
"162 285 LINE SMOOTH",
"173 270 OFFCURVE",
"174 263 OFFCURVE",
"163 249 CURVE SMOOTH",
"13 51 LINE SMOOTH",
"-16 13 OFFCURVE",
"-1 0 OFFCURVE",
"27 0 CURVE SMOOTH",
"132 0 LINE SMOOTH",
"152 0 OFFCURVE",
"165 5 OFFCURVE",
"174 20 CURVE SMOOTH",
"252 139 LINE SMOOTH",
"264 158 OFFCURVE",
"268 157 OFFCURVE",
"280 138 CURVE SMOOTH",
"358 20 LINE SMOOTH",
"367 6 OFFCURVE",
"380 0 OFFCURVE",
"400 0 CURVE SMOOTH",
"566 0 LINE SMOOTH",
"595 0 OFFCURVE",
"599 11 OFFCURVE",
"575 43 CURVE SMOOTH"
);
}
);
width = 575;
}
);
unicode = 0078;
},
{
glyphname = y;
lastChange = "2015-06-11 13:01:42 +0000";
layers = (
{
background = {
paths = (
{
closed = 1;
nodes = (
"1 501 LINE SMOOTH",
"-4 515 OFFCURVE",
"4 530 OFFCURVE",
"20 530 CURVE SMOOTH",
"189 530 LINE SMOOTH",
"201 530 OFFCURVE",
"211 521 OFFCURVE",
"215 510 CURVE SMOOTH",
"300 270 LINE SMOOTH",
"304 258 OFFCURVE",
"311 256 OFFCURVE",
"317 270 CURVE SMOOTH",
"403 510 LINE SMOOTH",
"408 521 OFFCURVE",
"417 530 OFFCURVE",
"429 530 CURVE SMOOTH",
"541 530 LINE SMOOTH",
"557 530 OFFCURVE",
"563 515 OFFCURVE",
"558 501 CURVE SMOOTH",
"363 25 LINE SMOOTH",
"291 -137 OFFCURVE",
"235 -168 OFFCURVE",
"87 -168 CURVE SMOOTH",
"45 -168 OFFCURVE",
"31 -165 OFFCURVE",
"31 -146 CURVE SMOOTH",
"31 -47 LINE SMOOTH",
"31 -39 OFFCURVE",
"37 -28 OFFCURVE",
"59 -28 CURVE SMOOTH",
"130 -28 LINE SMOOTH",
"176 -28 OFFCURVE",
"205 1 OFFCURVE",
"195 25 CURVE SMOOTH"
);
}
);
};
layerId = "258ED206-D907-4350-8EBA-CBDDA1C16BF7";
name = Regular;
paths = (
{
closed = 1;
nodes = (
"1 501 LINE SMOOTH",
"-4 515 OFFCURVE",
"4 530 OFFCURVE",
"20 530 CURVE SMOOTH",
"189 530 LINE SMOOTH",
"201 530 OFFCURVE",
"211 521 OFFCURVE",
"215 510 CURVE SMOOTH",
"300 270 LINE SMOOTH",
"304 258 OFFCURVE",
"311 256 OFFCURVE",
"317 270 CURVE SMOOTH",
"403 510 LINE SMOOTH",
"408 521 OFFCURVE",
"417 530 OFFCURVE",
"429 530 CURVE SMOOTH",
"541 530 LINE SMOOTH",
"557 530 OFFCURVE",
"563 515 OFFCURVE",
"558 501 CURVE SMOOTH",
"363 25 LINE SMOOTH",
"291 -140 OFFCURVE",
"235 -171 OFFCURVE",
"87 -171 CURVE SMOOTH",
"45 -171 OFFCURVE",
"31 -168 OFFCURVE",
"31 -149 CURVE SMOOTH",
"31 -47 LINE SMOOTH",
"31 -39 OFFCURVE",
"37 -28 OFFCURVE",
"59 -28 CURVE SMOOTH",
"130 -28 LINE SMOOTH",
"176 -28 OFFCURVE",
"205 1 OFFCURVE",
"195 25 CURVE SMOOTH"
);
}
);
width = 565;
}
);
unicode = 0079;
},
{
glyphname = z;
lastChange = "2015-06-11 13:01:42 +0000";
layers = (
{
background = {
paths = (
{
closed = 1;
nodes = (
"279 143 LINE SMOOTH",
"270 131 OFFCURVE",
"273 124 OFFCURVE",
"287 124 CURVE SMOOTH",
"492 124 LINE SMOOTH",
"506 124 OFFCURVE",
"515 119 OFFCURVE",
"515 105 CURVE SMOOTH",
"515 22 LINE SMOOTH",
"515 10 OFFCURVE",
"507 0 OFFCURVE",
"490 0 CURVE SMOOTH",
"40 0 LINE SMOOTH",
"20 0 OFFCURVE",
"14 5 OFFCURVE",
"14 25 CURVE SMOOTH",
"14 70 LINE SMOOTH",
"14 91 OFFCURVE",
"16 96 OFFCURVE",
"35 121 CURVE SMOOTH",
"248 392 LINE SMOOTH",
"256 403 OFFCURVE",
"252 408 OFFCURVE",
"238 408 CURVE SMOOTH",
"58 408 LINE SMOOTH",
"41 408 OFFCURVE",
"36 413 OFFCURVE",
"36 431 CURVE SMOOTH",
"36 510 LINE SMOOTH",
"36 522 OFFCURVE",
"43 530 OFFCURVE",
"54 530 CURVE SMOOTH",
"495 530 LINE SMOOTH",
"507 530 OFFCURVE",
"514 522 OFFCURVE",
"514 511 CURVE SMOOTH",
"514 459 LINE SMOOTH",
"514 444 OFFCURVE",
"509 435 OFFCURVE",
"497 418 CURVE SMOOTH"
);
}
);
};
layerId = "258ED206-D907-4350-8EBA-CBDDA1C16BF7";
name = Regular;
paths = (
{
closed = 1;
nodes = (
"283 143 LINE SMOOTH",
"274 131 OFFCURVE",
"277 124 OFFCURVE",
"291 124 CURVE SMOOTH",
"496 124 LINE SMOOTH",
"510 124 OFFCURVE",
"519 119 OFFCURVE",
"519 105 CURVE SMOOTH",
"519 22 LINE SMOOTH",
"519 10 OFFCURVE",
"511 0 OFFCURVE",
"494 0 CURVE SMOOTH",
"44 0 LINE SMOOTH",
"24 0 OFFCURVE",
"18 5 OFFCURVE",
"18 25 CURVE SMOOTH",
"18 70 LINE SMOOTH",
"18 91 OFFCURVE",
"20 96 OFFCURVE",
"39 121 CURVE SMOOTH",
"252 392 LINE SMOOTH",
"260 403 OFFCURVE",
"256 408 OFFCURVE",
"242 408 CURVE SMOOTH",
"62 408 LINE SMOOTH",
"45 408 OFFCURVE",
"40 413 OFFCURVE",
"40 431 CURVE SMOOTH",
"40 510 LINE SMOOTH",
"40 522 OFFCURVE",
"47 530 OFFCURVE",
"58 530 CURVE SMOOTH",
"499 530 LINE SMOOTH",
"511 530 OFFCURVE",
"518 522 OFFCURVE",
"518 511 CURVE SMOOTH",
"518 459 LINE SMOOTH",
"518 444 OFFCURVE",
"513 435 OFFCURVE",
"501 418 CURVE SMOOTH"
);
}
);
width = 544;
}
);
unicode = 007A;
},
{
color = 5;
glyphname = f_f;
lastChange = "2015-06-11 14:50:22 +0000";
layers = (
{
layerId = "258ED206-D907-4350-8EBA-CBDDA1C16BF7";
name = Regular;
paths = (
{
closed = 1;
nodes = (
"603 530 LINE SMOOTH",
"595 530 OFFCURVE",
"590 533 OFFCURVE",
"590 543 CURVE SMOOTH",
"590 561 LINE SMOOTH",
"590 589 OFFCURVE",
"612 612 OFFCURVE",
"635 612 CURVE SMOOTH",
"678 612 LINE SMOOTH",
"690 612 OFFCURVE",
"696 621 OFFCURVE",
"696 632 CURVE",
"695 716 LINE",
"695 732 OFFCURVE",
"685 742 OFFCURVE",
"666 742 CURVE SMOOTH",
"553 742 LINE SMOOTH",
"456 742 OFFCURVE",
"395 688 OFFCURVE",
"395 601 CURVE SMOOTH",
"395 548 LINE SMOOTH",
"395 535 OFFCURVE",
"392 530 OFFCURVE",
"381 530 CURVE SMOOTH",
"263 530 LINE SMOOTH",
"246 530 OFFCURVE",
"239 520 OFFCURVE",
"239 508 CURVE SMOOTH",
"239 414 LINE SMOOTH",
"239 400 OFFCURVE",
"247 395 OFFCURVE",
"261 395 CURVE SMOOTH",
"387 395 LINE SMOOTH",
"393 395 OFFCURVE",
"395 392 OFFCURVE",
"395 385 CURVE SMOOTH",
"395 20 LINE SMOOTH",
"395 7 OFFCURVE",
"402 0 OFFCURVE",
"413 0 CURVE SMOOTH",
"576 0 LINE SMOOTH",
"588 0 OFFCURVE",
"595 7 OFFCURVE",
"595 22 CURVE SMOOTH",
"595 383 LINE SMOOTH",
"595 391 OFFCURVE",
"600 395 OFFCURVE",
"607 395 CURVE SMOOTH",
"669 395 LINE SMOOTH",
"682 395 OFFCURVE",
"691 400 OFFCURVE",
"691 414 CURVE SMOOTH",
"691 508 LINE SMOOTH",
"691 520 OFFCURVE",
"683 530 OFFCURVE",
"666 530 CURVE SMOOTH"
);
},
{
closed = 1;
nodes = (
"294 561 LINE",
"294 589 OFFCURVE",
"316 612 OFFCURVE",
"339 612 CURVE SMOOTH",
"358 612 LINE SMOOTH",
"370 612 OFFCURVE",
"376 621 OFFCURVE",
"376 632 CURVE",
"375 716 LINE",
"375 732 OFFCURVE",
"365 742 OFFCURVE",
"346 742 CURVE SMOOTH",
"253 742 LINE SMOOTH",
"156 742 OFFCURVE",
"95 688 OFFCURVE",
"95 601 CURVE SMOOTH",
"95 548 LINE SMOOTH",
"95 535 OFFCURVE",
"92 530 OFFCURVE",
"81 530 CURVE SMOOTH",
"33 530 LINE SMOOTH",
"16 530 OFFCURVE",
"9 520 OFFCURVE",
"9 508 CURVE SMOOTH",
"9 414 LINE SMOOTH",
"9 400 OFFCURVE",
"17 395 OFFCURVE",
"31 395 CURVE SMOOTH",
"87 395 LINE SMOOTH",
"93 395 OFFCURVE",
"95 392 OFFCURVE",
"95 385 CURVE SMOOTH",
"95 20 LINE SMOOTH",
"95 7 OFFCURVE",
"102 0 OFFCURVE",
"113 0 CURVE SMOOTH",
"276 0 LINE SMOOTH",
"288 0 OFFCURVE",
"295 7 OFFCURVE",
"295 22 CURVE"
);
}
);
width = 700;
}
);
leftMetricsKey = f;
},
{
color = 5;
glyphname = f_f_i;
lastChange = "2015-06-11 15:05:41 +0000";
layers = (
{
layerId = "258ED206-D907-4350-8EBA-CBDDA1C16BF7";
name = Regular;
paths = (
{
closed = 1;
nodes = (
"603 530 LINE SMOOTH",
"595 530 OFFCURVE",
"590 533 OFFCURVE",
"590 543 CURVE SMOOTH",
"590 561 LINE SMOOTH",
"590 589 OFFCURVE",
"612 612 OFFCURVE",
"665 612 CURVE SMOOTH",
"728 612 LINE SMOOTH",
"740 612 OFFCURVE",
"746 621 OFFCURVE",
"746 632 CURVE SMOOTH",
"745 716 LINE SMOOTH",
"745 732 OFFCURVE",
"735 742 OFFCURVE",
"716 742 CURVE SMOOTH",
"583 742 LINE SMOOTH",
"456 742 OFFCURVE",
"395 688 OFFCURVE",
"395 571 CURVE SMOOTH",
"395 548 LINE SMOOTH",
"395 535 OFFCURVE",
"392 530 OFFCURVE",
"381 530 CURVE SMOOTH",
"263 530 LINE SMOOTH",
"246 530 OFFCURVE",
"239 520 OFFCURVE",
"239 508 CURVE SMOOTH",
"239 414 LINE SMOOTH",
"239 400 OFFCURVE",
"247 395 OFFCURVE",
"261 395 CURVE SMOOTH",
"387 395 LINE SMOOTH",
"393 395 OFFCURVE",
"395 392 OFFCURVE",
"395 385 CURVE SMOOTH",
"395 20 LINE SMOOTH",
"395 7 OFFCURVE",
"402 0 OFFCURVE",
"413 0 CURVE SMOOTH",
"576 0 LINE SMOOTH",
"588 0 OFFCURVE",
"595 7 OFFCURVE",
"595 22 CURVE SMOOTH",
"595 383 LINE SMOOTH",
"595 391 OFFCURVE",
"600 395 OFFCURVE",
"607 395 CURVE SMOOTH",
"729 395 LINE SMOOTH",
"742 395 OFFCURVE",
"751 400 OFFCURVE",
"751 414 CURVE SMOOTH",
"751 508 LINE SMOOTH",
"751 520 OFFCURVE",
"743 530 OFFCURVE",
"726 530 CURVE SMOOTH"
);
},
{
closed = 1;
nodes = (
"294 561 LINE SMOOTH",
"294 589 OFFCURVE",
"316 612 OFFCURVE",
"339 612 CURVE SMOOTH",
"358 612 LINE SMOOTH",
"370 612 OFFCURVE",
"376 621 OFFCURVE",
"376 632 CURVE SMOOTH",
"375 716 LINE SMOOTH",
"375 732 OFFCURVE",
"365 742 OFFCURVE",
"346 742 CURVE SMOOTH",
"253 742 LINE SMOOTH",
"156 742 OFFCURVE",
"95 688 OFFCURVE",
"95 601 CURVE SMOOTH",
"95 548 LINE SMOOTH",
"95 535 OFFCURVE",
"92 530 OFFCURVE",
"81 530 CURVE SMOOTH",
"33 530 LINE SMOOTH",
"16 530 OFFCURVE",
"9 520 OFFCURVE",
"9 508 CURVE SMOOTH",
"9 414 LINE SMOOTH",
"9 400 OFFCURVE",
"17 395 OFFCURVE",
"31 395 CURVE SMOOTH",
"87 395 LINE SMOOTH",
"93 395 OFFCURVE",
"95 392 OFFCURVE",
"95 385 CURVE SMOOTH",
"95 20 LINE SMOOTH",
"95 7 OFFCURVE",
"102 0 OFFCURVE",
"113 0 CURVE SMOOTH",
"276 0 LINE SMOOTH",
"288 0 OFFCURVE",
"295 7 OFFCURVE",
"295 22 CURVE"
);
},
{
closed = 1;
nodes = (
"895 522 OFFCURVE",
"888 530 OFFCURVE",
"877 530 CURVE SMOOTH",
"714 530 LINE SMOOTH",
"702 530 OFFCURVE",
"695 522 OFFCURVE",
"695 507 CURVE SMOOTH",
"695 25 LINE SMOOTH",
"695 8 OFFCURVE",
"701 0 OFFCURVE",
"721 0 CURVE SMOOTH",
"862 0 LINE SMOOTH",
"885 0 OFFCURVE",
"895 8 OFFCURVE",
"895 29 CURVE SMOOTH",
"895 510 LINE SMOOTH"
);
}
);
width = 937;
}
);
leftMetricsKey = f;
},
{
color = 5;
glyphname = f_f_l;
lastChange = "2015-06-11 15:06:58 +0000";
layers = (
{
layerId = "258ED206-D907-4350-8EBA-CBDDA1C16BF7";
name = Regular;
paths = (
{
closed = 1;
nodes = (
"603 530 LINE SMOOTH",
"595 530 OFFCURVE",
"590 533 OFFCURVE",
"590 543 CURVE SMOOTH",
"590 561 LINE SMOOTH",
"590 589 OFFCURVE",
"612 612 OFFCURVE",
"665 612 CURVE SMOOTH",
"728 612 LINE SMOOTH",
"740 612 OFFCURVE",
"746 621 OFFCURVE",
"746 632 CURVE SMOOTH",
"745 716 LINE SMOOTH",
"745 732 OFFCURVE",
"735 742 OFFCURVE",
"716 742 CURVE SMOOTH",
"583 742 LINE SMOOTH",
"456 742 OFFCURVE",
"395 688 OFFCURVE",
"395 571 CURVE SMOOTH",
"395 548 LINE SMOOTH",
"395 535 OFFCURVE",
"392 530 OFFCURVE",
"381 530 CURVE SMOOTH",
"263 530 LINE SMOOTH",
"246 530 OFFCURVE",
"239 520 OFFCURVE",
"239 508 CURVE SMOOTH",
"239 414 LINE SMOOTH",
"239 400 OFFCURVE",
"247 395 OFFCURVE",
"261 395 CURVE SMOOTH",
"387 395 LINE SMOOTH",
"393 395 OFFCURVE",
"395 392 OFFCURVE",
"395 385 CURVE SMOOTH",
"395 20 LINE SMOOTH",
"395 7 OFFCURVE",
"402 0 OFFCURVE",
"413 0 CURVE SMOOTH",
"576 0 LINE SMOOTH",
"588 0 OFFCURVE",
"595 7 OFFCURVE",
"595 22 CURVE SMOOTH",
"595 383 LINE SMOOTH",
"595 391 OFFCURVE",
"600 395 OFFCURVE",
"607 395 CURVE SMOOTH",
"629 395 LINE SMOOTH",
"642 395 OFFCURVE",
"651 400 OFFCURVE",
"651 414 CURVE SMOOTH",
"651 508 LINE SMOOTH",
"651 520 OFFCURVE",
"643 530 OFFCURVE",
"626 530 CURVE SMOOTH"
);
},
{
closed = 1;
nodes = (
"294 561 LINE SMOOTH",
"294 589 OFFCURVE",
"316 612 OFFCURVE",
"339 612 CURVE SMOOTH",
"358 612 LINE SMOOTH",
"370 612 OFFCURVE",
"376 621 OFFCURVE",
"376 632 CURVE SMOOTH",
"375 716 LINE SMOOTH",
"375 732 OFFCURVE",
"365 742 OFFCURVE",
"346 742 CURVE SMOOTH",
"253 742 LINE SMOOTH",
"156 742 OFFCURVE",
"95 688 OFFCURVE",
"95 601 CURVE SMOOTH",
"95 548 LINE SMOOTH",
"95 535 OFFCURVE",
"92 530 OFFCURVE",
"81 530 CURVE SMOOTH",
"33 530 LINE SMOOTH",
"16 530 OFFCURVE",
"9 520 OFFCURVE",
"9 508 CURVE SMOOTH",
"9 414 LINE SMOOTH",
"9 400 OFFCURVE",
"17 395 OFFCURVE",
"31 395 CURVE SMOOTH",
"87 395 LINE SMOOTH",
"93 395 OFFCURVE",
"95 392 OFFCURVE",
"95 385 CURVE SMOOTH",
"95 20 LINE SMOOTH",
"95 7 OFFCURVE",
"102 0 OFFCURVE",
"113 0 CURVE SMOOTH",
"276 0 LINE SMOOTH",
"288 0 OFFCURVE",
"295 7 OFFCURVE",
"295 22 CURVE"
);
},
{
closed = 1;
nodes = (
"895 734 OFFCURVE",
"888 742 OFFCURVE",
"877 742 CURVE SMOOTH",
"714 742 LINE SMOOTH",
"702 742 OFFCURVE",
"695 734 OFFCURVE",
"695 719 CURVE SMOOTH",
"695 25 LINE SMOOTH",
"695 8 OFFCURVE",
"701 0 OFFCURVE",
"721 0 CURVE SMOOTH",
"862 0 LINE SMOOTH",
"885 0 OFFCURVE",
"895 8 OFFCURVE",
"895 29 CURVE SMOOTH",
"895 722 LINE SMOOTH"
);
}
);
width = 937;
}
);
leftMetricsKey = f;
rightMetricsKey = l;
},
{
color = 5;
glyphname = fi;
lastChange = "2015-06-11 15:07:42 +0000";
layers = (
{
layerId = "258ED206-D907-4350-8EBA-CBDDA1C16BF7";
name = Regular;
paths = (
{
closed = 1;
nodes = (
"302 530 LINE SMOOTH",
"294 530 OFFCURVE",
"289 533 OFFCURVE",
"289 543 CURVE SMOOTH",
"289 561 LINE SMOOTH",
"289 589 OFFCURVE",
"311 612 OFFCURVE",
"364 612 CURVE SMOOTH",
"427 612 LINE SMOOTH",
"439 612 OFFCURVE",
"445 621 OFFCURVE",
"445 632 CURVE SMOOTH",
"444 716 LINE SMOOTH",
"444 732 OFFCURVE",
"434 742 OFFCURVE",
"415 742 CURVE SMOOTH",
"282 742 LINE SMOOTH",
"155 742 OFFCURVE",
"94 688 OFFCURVE",
"94 571 CURVE SMOOTH",
"94 548 LINE SMOOTH",
"94 535 OFFCURVE",
"91 530 OFFCURVE",
"80 530 CURVE SMOOTH",
"32 530 LINE SMOOTH",
"15 530 OFFCURVE",
"8 520 OFFCURVE",
"8 508 CURVE SMOOTH",
"8 414 LINE SMOOTH",
"8 400 OFFCURVE",
"16 395 OFFCURVE",
"30 395 CURVE SMOOTH",
"86 395 LINE SMOOTH",
"92 395 OFFCURVE",
"94 392 OFFCURVE",
"94 385 CURVE SMOOTH",
"94 20 LINE SMOOTH",
"94 7 OFFCURVE",
"101 0 OFFCURVE",
"112 0 CURVE SMOOTH",
"275 0 LINE SMOOTH",
"287 0 OFFCURVE",
"294 7 OFFCURVE",
"294 22 CURVE SMOOTH",
"294 383 LINE SMOOTH",
"294 391 OFFCURVE",
"299 395 OFFCURVE",
"306 395 CURVE SMOOTH",
"428 395 LINE SMOOTH",
"441 395 OFFCURVE",
"450 400 OFFCURVE",
"450 414 CURVE SMOOTH",
"450 508 LINE SMOOTH",
"450 520 OFFCURVE",
"442 530 OFFCURVE",
"425 530 CURVE SMOOTH"
);
},
{
closed = 1;
nodes = (
"594 522 OFFCURVE",
"587 530 OFFCURVE",
"576 530 CURVE SMOOTH",
"413 530 LINE SMOOTH",
"401 530 OFFCURVE",
"394 522 OFFCURVE",
"394 507 CURVE SMOOTH",
"394 25 LINE SMOOTH",
"394 8 OFFCURVE",
"400 0 OFFCURVE",
"420 0 CURVE SMOOTH",
"561 0 LINE SMOOTH",
"584 0 OFFCURVE",
"594 8 OFFCURVE",
"594 29 CURVE SMOOTH",
"594 510 LINE SMOOTH"
);
}
);
width = 636;
}
);
leftMetricsKey = f;
unicode = FB01;
},
{
color = 5;
glyphname = fl;
lastChange = "2015-06-11 15:20:45 +0000";
layers = (
{
layerId = "258ED206-D907-4350-8EBA-CBDDA1C16BF7";
name = Regular;
paths = (
{
closed = 1;
nodes = (
"303 530 LINE SMOOTH",
"295 530 OFFCURVE",
"290 533 OFFCURVE",
"290 543 CURVE SMOOTH",
"290 561 LINE SMOOTH",
"290 589 OFFCURVE",
"312 612 OFFCURVE",
"365 612 CURVE SMOOTH",
"428 612 LINE SMOOTH",
"440 612 OFFCURVE",
"446 621 OFFCURVE",
"446 632 CURVE SMOOTH",
"445 716 LINE SMOOTH",
"445 732 OFFCURVE",
"435 742 OFFCURVE",
"416 742 CURVE SMOOTH",
"283 742 LINE SMOOTH",
"156 742 OFFCURVE",
"95 688 OFFCURVE",
"95 571 CURVE SMOOTH",
"95 548 LINE SMOOTH",
"95 535 OFFCURVE",
"92 530 OFFCURVE",
"81 530 CURVE SMOOTH",
"33 530 LINE SMOOTH",
"16 530 OFFCURVE",
"9 520 OFFCURVE",
"9 508 CURVE SMOOTH",
"9 414 LINE SMOOTH",
"9 400 OFFCURVE",
"17 395 OFFCURVE",
"31 395 CURVE SMOOTH",
"87 395 LINE SMOOTH",
"93 395 OFFCURVE",
"95 392 OFFCURVE",
"95 385 CURVE SMOOTH",
"95 20 LINE SMOOTH",
"95 7 OFFCURVE",
"102 0 OFFCURVE",
"113 0 CURVE SMOOTH",
"276 0 LINE SMOOTH",
"288 0 OFFCURVE",
"295 7 OFFCURVE",
"295 22 CURVE SMOOTH",
"295 383 LINE SMOOTH",
"295 391 OFFCURVE",
"300 395 OFFCURVE",
"307 395 CURVE SMOOTH",
"329 395 LINE SMOOTH",
"342 395 OFFCURVE",
"351 400 OFFCURVE",
"351 414 CURVE SMOOTH",
"351 508 LINE SMOOTH",
"351 520 OFFCURVE",
"343 530 OFFCURVE",
"326 530 CURVE SMOOTH"
);
},
{
closed = 1;
nodes = (
"595 734 OFFCURVE",
"588 742 OFFCURVE",
"577 742 CURVE SMOOTH",
"414 742 LINE SMOOTH",
"402 742 OFFCURVE",
"395 734 OFFCURVE",
"395 719 CURVE SMOOTH",
"395 25 LINE SMOOTH",
"395 8 OFFCURVE",
"401 0 OFFCURVE",
"421 0 CURVE SMOOTH",
"562 0 LINE SMOOTH",
"585 0 OFFCURVE",
"595 8 OFFCURVE",
"595 29 CURVE SMOOTH",
"595 722 LINE SMOOTH"
);
}
);
width = 637;
}
);
leftMetricsKey = f;
unicode = FB02;
},
{
color = 5;
glyphname = ordfeminine;
lastChange = "2015-06-11 15:21:58 +0000";
layers = (
{
layerId = "258ED206-D907-4350-8EBA-CBDDA1C16BF7";
name = Regular;
paths = (
{
closed = 1;
nodes = (
"229 443 OFFCURVE",
"231 444 OFFCURVE",
"234 430 CURVE SMOOTH",
"235 421 OFFCURVE",
"237 414 OFFCURVE",
"251 414 CURVE SMOOTH",
"324 414 LINE SMOOTH",
"344 414 OFFCURVE",
"361 417 OFFCURVE",
"356 432 CURVE SMOOTH",
"352 446 OFFCURVE",
"349 457 OFFCURVE",
"349 475 CURVE SMOOTH",
"349 649 LINE SMOOTH",
"349 713 OFFCURVE",
"315 751 OFFCURVE",
"197 752 CURVE SMOOTH",
"101 752 OFFCURVE",
"66 726 OFFCURVE",
"42 677 CURVE SMOOTH",
"39 671 OFFCURVE",
"41 659 OFFCURVE",
"46 657 CURVE SMOOTH",
"128 641 LINE SMOOTH",
"139 639 OFFCURVE",
"142 640 OFFCURVE",
"145 648 CURVE SMOOTH",
"156 671 OFFCURVE",
"176 677 OFFCURVE",
"194 677 CURVE SMOOTH",
"219 677 OFFCURVE",
"231 664 OFFCURVE",
"231 641 CURVE SMOOTH",
"231 631 LINE SMOOTH",
"231 623 OFFCURVE",
"224 622 OFFCURVE",
"219 622 CURVE SMOOTH",
"90 617 OFFCURVE",
"25 573 OFFCURVE",
"25 504 CURVE SMOOTH",
"25 447 OFFCURVE",
"63 408 OFFCURVE",
"133 408 CURVE SMOOTH",
"166 408 OFFCURVE",
"185 417 OFFCURVE",
"215 434 CURVE SMOOTH"
);
},
{
closed = 1;
nodes = (
"231 514 LINE SMOOTH",
"231 504 OFFCURVE",
"227 499 OFFCURVE",
"221 494 CURVE SMOOTH",
"212 487 OFFCURVE",
"198 482 OFFCURVE",
"184 482 CURVE SMOOTH",
"159 482 OFFCURVE",
"146 494 OFFCURVE",
"146 512 CURVE SMOOTH",
"146 547 OFFCURVE",
"199 561 OFFCURVE",
"219 561 CURVE SMOOTH",
"227 561 OFFCURVE",
"231 557 OFFCURVE",
"231 549 CURVE SMOOTH"
);
}
);
width = 382;
}
);
unicode = 00AA;
},
{
color = 5;
glyphname = ordmasculine;
lastChange = "2015-06-11 15:22:31 +0000";
layers = (
{
layerId = "258ED206-D907-4350-8EBA-CBDDA1C16BF7";
name = Regular;
paths = (
{
closed = 1;
nodes = (
"99 752 OFFCURVE",
"23 682 OFFCURVE",
"23 578 CURVE SMOOTH",
"23 479 OFFCURVE",
"94 408 OFFCURVE",
"197 408 CURVE SMOOTH",
"300 408 OFFCURVE",
"372 479 OFFCURVE",
"372 578 CURVE SMOOTH",
"372 679 OFFCURVE",
"302 752 OFFCURVE",
"197 752 CURVE SMOOTH"
);
},
{
closed = 1;
nodes = (
"164 488 OFFCURVE",
"149 516 OFFCURVE",
"149 581 CURVE SMOOTH",
"149 646 OFFCURVE",
"164 674 OFFCURVE",
"197 674 CURVE SMOOTH",
"231 674 OFFCURVE",
"246 646 OFFCURVE",
"246 581 CURVE SMOOTH",
"246 516 OFFCURVE",
"231 488 OFFCURVE",
"197 488 CURVE SMOOTH"
);
}
);
width = 397;
}
);
unicode = 00BA;
},
{
color = 5;
glyphname = mu;
lastChange = "2015-06-11 15:23:53 +0000";
layers = (
{
layerId = "258ED206-D907-4350-8EBA-CBDDA1C16BF7";
name = Regular;
paths = (
{
closed = 1;
nodes = (
"395 530 LINE SMOOTH",
"372 530 OFFCURVE",
"362 521 OFFCURVE",
"362 501 CURVE SMOOTH",
"362 171 LINE",
"344 148 OFFCURVE",
"317 130 OFFCURVE",
"287 130 CURVE SMOOTH",
"258 130 OFFCURVE",
"238 148 OFFCURVE",
"238 179 CURVE SMOOTH",
"238 504 LINE SMOOTH",
"238 523 OFFCURVE",
"232 530 OFFCURVE",
"215 530 CURVE SMOOTH",
"69 530 LINE SMOOTH",
"47 530 OFFCURVE",
"38 520 OFFCURVE",
"38 500 CURVE SMOOTH",
"38 -140 LINE SMOOTH",
"38 -157 OFFCURVE",
"45 -165 OFFCURVE",
"65 -165 CURVE SMOOTH",
"205 -165 LINE SMOOTH",
"228 -165 OFFCURVE",
"238 -157 OFFCURVE",
"238 -136 CURVE SMOOTH",
"238 -22 LINE SMOOTH",
"238 -10 OFFCURVE",
"241 -5 OFFCURVE",
"256 0 CURVE SMOOTH",
"289 10 OFFCURVE",
"323 32 OFFCURVE",
"353 68 CURVE",
"360 75 OFFCURVE",
"365 72 OFFCURVE",
"365 64 CURVE SMOOTH",
"365 20 LINE SMOOTH",
"365 7 OFFCURVE",
"372 0 OFFCURVE",
"383 0 CURVE SMOOTH",
"541 0 LINE SMOOTH",
"553 0 OFFCURVE",
"560 8 OFFCURVE",
"560 22 CURVE SMOOTH",
"564 504 LINE SMOOTH",
"564 522 OFFCURVE",
"557 530 OFFCURVE",
"538 530 CURVE SMOOTH"
);
}
);
width = 602;
}
);
unicode = 03BC;
},
{
glyphname = zero;
lastChange = "2015-06-11 13:01:42 +0000";
layers = (
{
background = {
paths = (
{
closed = 1;
nodes = (
"178 753 OFFCURVE",
"35 601 OFFCURVE",
"35 369 CURVE SMOOTH",
"35 138 OFFCURVE",
"175 -8 OFFCURVE",
"355 -8 CURVE SMOOTH",
"536 -8 OFFCURVE",
"676 139 OFFCURVE",
"676 369 CURVE SMOOTH",
"676 601 OFFCURVE",
"533 753 OFFCURVE",
"356 753 CURVE SMOOTH"
);
},
{
closed = 1;
nodes = (
"293 141 OFFCURVE",
"260 185 OFFCURVE",
"260 367 CURVE SMOOTH",
"260 553 OFFCURVE",
"295 601 OFFCURVE",
"361 601 CURVE SMOOTH",
"425 601 OFFCURVE",
"460 553 OFFCURVE",
"460 367 CURVE SMOOTH",
"460 185 OFFCURVE",
"427 141 OFFCURVE",
"361 141 CURVE SMOOTH"
);
}
);
};
layerId = "258ED206-D907-4350-8EBA-CBDDA1C16BF7";
name = Regular;
paths = (
{
closed = 1;
nodes = (
"173 753 OFFCURVE",
"34 590 OFFCURVE",
"34 369 CURVE SMOOTH",
"34 149 OFFCURVE",
"170 -8 OFFCURVE",
"365 -8 CURVE SMOOTH",
"559 -8 OFFCURVE",
"694 149 OFFCURVE",
"694 369 CURVE SMOOTH",
"694 590 OFFCURVE",
"556 753 OFFCURVE",
"365 753 CURVE SMOOTH"
);
},
{
closed = 1;
nodes = (
"291 148 OFFCURVE",
"264 207 OFFCURVE",
"264 368 CURVE SMOOTH",
"264 534 OFFCURVE",
"292 599 OFFCURVE",
"364 599 CURVE SMOOTH",
"436 599 OFFCURVE",
"464 535 OFFCURVE",
"464 368 CURVE SMOOTH",
"464 206 OFFCURVE",
"438 148 OFFCURVE",
"364 148 CURVE SMOOTH"
);
}
);
width = 728;
}
);
unicode = 0030;
},
{
glyphname = one;
lastChange = "2015-06-11 13:01:42 +0000";
layers = (
{
background = {
paths = (
{
closed = 1;
nodes = (
"393 161 LINE SMOOTH",
"386 161 OFFCURVE",
"382 165 OFFCURVE",
"382 173 CURVE SMOOTH",
"382 721 LINE SMOOTH",
"382 734 OFFCURVE",
"375 742 OFFCURVE",
"364 742 CURVE SMOOTH",
"292 742 LINE SMOOTH",
"273 742 OFFCURVE",
"263 738 OFFCURVE",
"242 728 CURVE SMOOTH",
"62 638 LINE SMOOTH",
"48 631 OFFCURVE",
"44 626 OFFCURVE",
"44 609 CURVE SMOOTH",
"44 525 LINE SMOOTH",
"44 505 OFFCURVE",
"53 498 OFFCURVE",
"71 502 CURVE SMOOTH",
"153 520 LINE SMOOTH",
"166 523 OFFCURVE",
"170 519 OFFCURVE",
"170 507 CURVE SMOOTH",
"168 172 LINE SMOOTH",
"166 166 OFFCURVE",
"162 163 OFFCURVE",
"156 163 CURVE SMOOTH",
"67 163 LINE SMOOTH",
"53 163 OFFCURVE",
"45 158 OFFCURVE",
"45 144 CURVE SMOOTH",
"45 21 LINE SMOOTH",
"45 8 OFFCURVE",
"52 -1 OFFCURVE",
"69 -1 CURVE SMOOTH",
"481 0 LINE SMOOTH",
"498 0 OFFCURVE",
"506 10 OFFCURVE",
"506 22 CURVE SMOOTH",
"506 142 LINE SMOOTH",
"506 156 OFFCURVE",
"497 161 OFFCURVE",
"483 161 CURVE SMOOTH"
);
}
);
};
layerId = "258ED206-D907-4350-8EBA-CBDDA1C16BF7";
name = Regular;
paths = (
{
closed = 1;
nodes = (
"407 164 LINE SMOOTH",
"400 164 OFFCURVE",
"396 168 OFFCURVE",
"396 176 CURVE SMOOTH",
"396 721 LINE SMOOTH",
"396 734 OFFCURVE",
"389 742 OFFCURVE",
"378 742 CURVE SMOOTH",
"293 742 LINE SMOOTH",
"274 742 OFFCURVE",
"264 738 OFFCURVE",
"243 728 CURVE SMOOTH",
"63 638 LINE SMOOTH",
"49 631 OFFCURVE",
"45 626 OFFCURVE",
"45 609 CURVE SMOOTH",
"45 525 LINE SMOOTH",
"45 505 OFFCURVE",
"54 498 OFFCURVE",
"72 502 CURVE SMOOTH",
"152 520 LINE SMOOTH",
"165 523 OFFCURVE",
"169 519 OFFCURVE",
"169 507 CURVE SMOOTH",
"169 173 LINE SMOOTH",
"169 167 OFFCURVE",
"163 164 OFFCURVE",
"157 164 CURVE SMOOTH",
"68 164 LINE SMOOTH",
"54 164 OFFCURVE",
"46 159 OFFCURVE",
"46 145 CURVE SMOOTH",
"46 21 LINE SMOOTH",
"46 8 OFFCURVE",
"53 0 OFFCURVE",
"70 0 CURVE SMOOTH",
"495 0 LINE SMOOTH",
"512 0 OFFCURVE",
"520 10 OFFCURVE",
"520 22 CURVE SMOOTH",
"520 145 LINE SMOOTH",
"520 159 OFFCURVE",
"511 164 OFFCURVE",
"497 164 CURVE SMOOTH"
);
}
);
width = 530;
}
);
unicode = 0031;
},
{
glyphname = two;
lastChange = "2015-06-11 13:01:42 +0000";
layers = (
{
background = {
paths = (
{
closed = 1;
nodes = (
"24 143 OFFCURVE",
"21 133 OFFCURVE",
"21 124 CURVE SMOOTH",
"21 25 LINE SMOOTH",
"21 5 OFFCURVE",
"28 0 OFFCURVE",
"48 0 CURVE SMOOTH",
"607 0 LINE SMOOTH",
"624 0 OFFCURVE",
"632 10 OFFCURVE",
"632 22 CURVE SMOOTH",
"632 166 LINE SMOOTH",
"632 180 OFFCURVE",
"623 185 OFFCURVE",
"609 185 CURVE SMOOTH",
"324 185 LINE SMOOTH",
"307 185 OFFCURVE",
"309 191 OFFCURVE",
"318 197 CURVE SMOOTH",
"496 314 LINE SMOOTH",
"595 378 OFFCURVE",
"628 439 OFFCURVE",
"628 516 CURVE SMOOTH",
"628 656 OFFCURVE",
"515 747 OFFCURVE",
"334 747 CURVE SMOOTH",
"199 747 OFFCURVE",
"103 696 OFFCURVE",
"29 575 CURVE SMOOTH",
"20 561 OFFCURVE",
"22 543 OFFCURVE",
"38 536 CURVE SMOOTH",
"157 479 LINE SMOOTH",
"173 471 OFFCURVE",
"184 474 OFFCURVE",
"189 483 CURVE SMOOTH",
"233 564 OFFCURVE",
"270 593 OFFCURVE",
"321 593 CURVE SMOOTH",
"376 593 OFFCURVE",
"408 560 OFFCURVE",
"408 516 CURVE SMOOTH",
"408 468 OFFCURVE",
"391 442 OFFCURVE",
"251 328 CURVE SMOOTH",
"80 189 LINE SMOOTH"
);
}
);
};
layerId = "258ED206-D907-4350-8EBA-CBDDA1C16BF7";
name = Regular;
paths = (
{
closed = 1;
nodes = (
"28 143 OFFCURVE",
"25 133 OFFCURVE",
"25 124 CURVE SMOOTH",
"25 25 LINE SMOOTH",
"25 5 OFFCURVE",
"32 0 OFFCURVE",
"52 0 CURVE SMOOTH",
"611 0 LINE SMOOTH",
"628 0 OFFCURVE",
"636 10 OFFCURVE",
"636 22 CURVE SMOOTH",
"636 166 LINE SMOOTH",
"636 180 OFFCURVE",
"627 185 OFFCURVE",
"613 185 CURVE SMOOTH",
"328 185 LINE SMOOTH",
"311 185 OFFCURVE",
"313 191 OFFCURVE",
"322 197 CURVE SMOOTH",
"497 314 LINE SMOOTH",
"595 380 OFFCURVE",
"629 439 OFFCURVE",
"629 516 CURVE SMOOTH",
"629 656 OFFCURVE",
"516 752 OFFCURVE",
"334 752 CURVE SMOOTH",
"200 752 OFFCURVE",
"107 696 OFFCURVE",
"33 575 CURVE SMOOTH",
"24 561 OFFCURVE",
"26 544 OFFCURVE",
"42 536 CURVE SMOOTH",
"161 477 LINE SMOOTH",
"177 469 OFFCURVE",
"188 472 OFFCURVE",
"193 481 CURVE SMOOTH",
"237 562 OFFCURVE",
"271 591 OFFCURVE",
"322 591 CURVE SMOOTH",
"377 591 OFFCURVE",
"409 558 OFFCURVE",
"409 514 CURVE SMOOTH",
"409 466 OFFCURVE",
"390 442 OFFCURVE",
"252 328 CURVE SMOOTH",
"84 189 LINE SMOOTH"
);
}
);
width = 661;
}
);
unicode = 0032;
},
{
glyphname = three;
lastChange = "2015-06-11 13:01:42 +0000";
layers = (
{
background = {
paths = (
{
closed = 1;
nodes = (
"138 528 LINE SMOOTH",
"148 519 OFFCURVE",
"152 519 OFFCURVE",
"162 529 CURVE SMOOTH",
"217 581 OFFCURVE",
"257 600 OFFCURVE",
"314 600 CURVE SMOOTH",
"360 600 OFFCURVE",
"396 573 OFFCURVE",
"396 539 CURVE SMOOTH",
"396 495 OFFCURVE",
"357 464 OFFCURVE",
"294 460 CURVE SMOOTH",
"227 456 LINE SMOOTH",
"214 454 OFFCURVE",
"206 449 OFFCURVE",
"206 439 CURVE SMOOTH",
"206 318 LINE SMOOTH",
"206 306 OFFCURVE",
"213 301 OFFCURVE",
"227 301 CURVE SMOOTH",
"311 299 LINE SMOOTH",
"375 297 OFFCURVE",
"417 264 OFFCURVE",
"417 217 CURVE SMOOTH",
"417 169 OFFCURVE",
"380 141 OFFCURVE",
"318 141 CURVE SMOOTH",
"245 141 OFFCURVE",
"220 155 OFFCURVE",
"147 233 CURVE SMOOTH",
"141 240 OFFCURVE",
"133 240 OFFCURVE",
"120 232 CURVE SMOOTH",
"19 162 LINE SMOOTH",
"5 154 OFFCURVE",
"2 139 OFFCURVE",
"11 125 CURVE SMOOTH",
"62 47 OFFCURVE",
"183 -8 OFFCURVE",
"306 -8 CURVE SMOOTH",
"530 -8 OFFCURVE",
"640 67 OFFCURVE",
"640 221 CURVE SMOOTH",
"640 294 OFFCURVE",
"588 358 OFFCURVE",
"504 387 CURVE SMOOTH",
"489 392 OFFCURVE",
"490 401 OFFCURVE",
"505 408 CURVE SMOOTH",
"569 436 OFFCURVE",
"613 497 OFFCURVE",
"613 554 CURVE SMOOTH",
"613 673 OFFCURVE",
"495 750 OFFCURVE",
"318 750 CURVE SMOOTH",
"203 750 OFFCURVE",
"89 707 OFFCURVE",
"41 644 CURVE SMOOTH",
"34 633 OFFCURVE",
"34 626 OFFCURVE",
"41 618 CURVE SMOOTH"
);
}
);
};
layerId = "258ED206-D907-4350-8EBA-CBDDA1C16BF7";
name = Regular;
paths = (
{
closed = 1;
nodes = (
"142 528 LINE SMOOTH",
"152 519 OFFCURVE",
"156 519 OFFCURVE",
"166 529 CURVE SMOOTH",
"221 581 OFFCURVE",
"261 600 OFFCURVE",
"318 600 CURVE SMOOTH",
"364 600 OFFCURVE",
"400 573 OFFCURVE",
"400 539 CURVE SMOOTH",
"400 495 OFFCURVE",
"361 464 OFFCURVE",
"298 460 CURVE SMOOTH",
"231 456 LINE SMOOTH",
"218 454 OFFCURVE",
"210 449 OFFCURVE",
"210 439 CURVE SMOOTH",
"210 318 LINE SMOOTH",
"210 306 OFFCURVE",
"217 301 OFFCURVE",
"231 301 CURVE SMOOTH",
"315 299 LINE SMOOTH",
"379 297 OFFCURVE",
"421 264 OFFCURVE",
"421 217 CURVE SMOOTH",
"421 174 OFFCURVE",
"384 146 OFFCURVE",
"322 146 CURVE SMOOTH",
"249 146 OFFCURVE",
"212 171 OFFCURVE",
"151 233 CURVE SMOOTH",
"145 240 OFFCURVE",
"137 240 OFFCURVE",
"124 232 CURVE SMOOTH",
"23 162 LINE SMOOTH",
"9 154 OFFCURVE",
"6 139 OFFCURVE",
"15 125 CURVE SMOOTH",
"66 47 OFFCURVE",
"187 -10 OFFCURVE",
"310 -10 CURVE SMOOTH",
"534 -10 OFFCURVE",
"644 67 OFFCURVE",
"644 221 CURVE SMOOTH",
"644 294 OFFCURVE",
"592 358 OFFCURVE",
"508 387 CURVE SMOOTH",
"493 392 OFFCURVE",
"494 403 OFFCURVE",
"509 408 CURVE SMOOTH",
"584 431 OFFCURVE",
"621 497 OFFCURVE",
"621 554 CURVE SMOOTH",
"621 673 OFFCURVE",
"510 752 OFFCURVE",
"322 752 CURVE SMOOTH",
"207 752 OFFCURVE",
"93 707 OFFCURVE",
"45 644 CURVE SMOOTH",
"38 633 OFFCURVE",
"38 626 OFFCURVE",
"45 618 CURVE SMOOTH"
);
}
);
width = 674;
}
);
unicode = 0033;
},
{
glyphname = four;
lastChange = "2015-06-11 13:01:42 +0000";
layers = (
{
background = {
paths = (
{
closed = 1;
nodes = (
"49 345 LINE SMOOTH",
"26 315 OFFCURVE",
"16 300 OFFCURVE",
"16 285 CURVE SMOOTH",
"16 181 LINE SMOOTH",
"16 168 OFFCURVE",
"24 159 OFFCURVE",
"41 159 CURVE SMOOTH",
"326 159 LINE SMOOTH",
"334 159 OFFCURVE",
"338 156 OFFCURVE",
"340 149 CURVE SMOOTH",
"339 25 LINE SMOOTH",
"339 8 OFFCURVE",
"346 0 OFFCURVE",
"366 0 CURVE SMOOTH",
"522 0 LINE SMOOTH",
"545 0 OFFCURVE",
"555 8 OFFCURVE",
"555 29 CURVE SMOOTH",
"555 146 LINE SMOOTH",
"555 156 OFFCURVE",
"560 159 OFFCURVE",
"567 159 CURVE SMOOTH",
"653 159 LINE SMOOTH",
"670 159 OFFCURVE",
"677 168 OFFCURVE",
"677 181 CURVE SMOOTH",
"677 291 LINE SMOOTH",
"677 305 OFFCURVE",
"669 310 OFFCURVE",
"655 310 CURVE SMOOTH",
"566 310 LINE SMOOTH",
"559 310 OFFCURVE",
"555 315 OFFCURVE",
"555 322 CURVE SMOOTH",
"555 721 LINE SMOOTH",
"555 734 OFFCURVE",
"548 742 OFFCURVE",
"536 742 CURVE SMOOTH",
"387 742 LINE SMOOTH",
"360 742 OFFCURVE",
"353 738 OFFCURVE",
"336 717 CURVE SMOOTH"
);
},
{
closed = 1;
nodes = (
"186 310 OFFCURVE",
"186 315 OFFCURVE",
"192 323 CURVE SMOOTH",
"331 514 LINE SMOOTH",
"342 529 OFFCURVE",
"345 529 OFFCURVE",
"345 510 CURVE SMOOTH",
"343 317 LINE SMOOTH",
"343 313 OFFCURVE",
"339 310 OFFCURVE",
"334 310 CURVE SMOOTH",
"199 310 LINE SMOOTH"
);
}
);
};
layerId = "258ED206-D907-4350-8EBA-CBDDA1C16BF7";
name = Regular;
paths = (
{
closed = 1;
nodes = (
"53 345 LINE SMOOTH",
"30 315 OFFCURVE",
"20 300 OFFCURVE",
"20 285 CURVE SMOOTH",
"20 181 LINE SMOOTH",
"20 168 OFFCURVE",
"28 159 OFFCURVE",
"45 159 CURVE SMOOTH",
"330 159 LINE SMOOTH",
"338 159 OFFCURVE",
"344 156 OFFCURVE",
"344 149 CURVE SMOOTH",
"343 25 LINE SMOOTH",
"343 8 OFFCURVE",
"350 0 OFFCURVE",
"370 0 CURVE SMOOTH",
"541 0 LINE SMOOTH",
"564 0 OFFCURVE",
"574 8 OFFCURVE",
"574 29 CURVE SMOOTH",
"574 146 LINE SMOOTH",
"574 156 OFFCURVE",
"579 159 OFFCURVE",
"586 159 CURVE SMOOTH",
"657 159 LINE SMOOTH",
"674 159 OFFCURVE",
"681 168 OFFCURVE",
"681 181 CURVE SMOOTH",
"681 291 LINE SMOOTH",
"681 305 OFFCURVE",
"673 310 OFFCURVE",
"659 310 CURVE SMOOTH",
"585 310 LINE SMOOTH",
"578 310 OFFCURVE",
"574 315 OFFCURVE",
"574 322 CURVE SMOOTH",
"574 721 LINE SMOOTH",
"574 734 OFFCURVE",
"567 742 OFFCURVE",
"555 742 CURVE SMOOTH",
"391 742 LINE SMOOTH",
"364 742 OFFCURVE",
"357 738 OFFCURVE",
"340 717 CURVE SMOOTH"
);
},
{
closed = 1;
nodes = (
"190 310 OFFCURVE",
"190 315 OFFCURVE",
"196 323 CURVE SMOOTH",
"333 514 LINE SMOOTH",
"344 529 OFFCURVE",
"347 529 OFFCURVE",
"347 510 CURVE SMOOTH",
"347 317 LINE SMOOTH",
"347 313 OFFCURVE",
"343 310 OFFCURVE",
"338 310 CURVE SMOOTH",
"203 310 LINE SMOOTH"
);
}
);
width = 691;
}
);
unicode = 0034;
},
{
glyphname = five;
lastChange = "2015-06-11 13:01:42 +0000";
layers = (
{
background = {
paths = (
{
closed = 1;
nodes = (
"93 742 OFFCURVE",
"85 735 OFFCURVE",
"83 712 CURVE SMOOTH",
"54 403 LINE SMOOTH",
"51 379 OFFCURVE",
"55 372 OFFCURVE",
"67 365 CURVE SMOOTH",
"186 301 LINE SMOOTH",
"197 294 OFFCURVE",
"205 293 OFFCURVE",
"216 299 CURVE SMOOTH",
"258 318 OFFCURVE",
"285 326 OFFCURVE",
"316 326 CURVE SMOOTH",
"394 326 OFFCURVE",
"427 280 OFFCURVE",
"427 237 CURVE SMOOTH",
"427 186 OFFCURVE",
"387 144 OFFCURVE",
"311 144 CURVE SMOOTH",
"249 144 OFFCURVE",
"208 177 OFFCURVE",
"164 232 CURVE SMOOTH",
"155 243 OFFCURVE",
"142 244 OFFCURVE",
"131 236 CURVE SMOOTH",
"23 163 LINE SMOOTH",
"8 154 OFFCURVE",
"8 135 OFFCURVE",
"21 121 CURVE SMOOTH",
"101 34 OFFCURVE",
"187 -7 OFFCURVE",
"320 -7 CURVE SMOOTH",
"530 -7 OFFCURVE",
"649 83 OFFCURVE",
"649 235 CURVE SMOOTH",
"649 398 OFFCURVE",
"534 484 OFFCURVE",
"374 484 CURVE SMOOTH",
"334 484 OFFCURVE",
"294 477 OFFCURVE",
"245 463 CURVE SMOOTH",
"234 460 OFFCURVE",
"228 466 OFFCURVE",
"229 477 CURVE SMOOTH",
"236 541 LINE SMOOTH",
"237 554 OFFCURVE",
"244 559 OFFCURVE",
"257 559 CURVE SMOOTH",
"556 559 LINE SMOOTH",
"575 559 OFFCURVE",
"583 565 OFFCURVE",
"584 582 CURVE SMOOTH",
"591 713 LINE SMOOTH",
"592 737 OFFCURVE",
"590 742 OFFCURVE",
"561 742 CURVE SMOOTH",
"128 742 LINE SMOOTH"
);
}
);
};
layerId = "258ED206-D907-4350-8EBA-CBDDA1C16BF7";
name = Regular;
paths = (
{
closed = 1;
nodes = (
"97 742 OFFCURVE",
"89 735 OFFCURVE",
"87 712 CURVE SMOOTH",
"58 403 LINE SMOOTH",
"56 384 OFFCURVE",
"56 373 OFFCURVE",
"71 365 CURVE SMOOTH",
"190 301 LINE SMOOTH",
"205 293 OFFCURVE",
"206 293 OFFCURVE",
"220 299 CURVE SMOOTH",
"265 319 OFFCURVE",
"289 326 OFFCURVE",
"320 326 CURVE SMOOTH",
"397 326 OFFCURVE",
"431 281 OFFCURVE",
"431 235 CURVE SMOOTH",
"431 186 OFFCURVE",
"391 146 OFFCURVE",
"317 146 CURVE SMOOTH",
"244 146 OFFCURVE",
"208 185 OFFCURVE",
"168 232 CURVE SMOOTH",
"159 242 OFFCURVE",
"148 245 OFFCURVE",
"135 236 CURVE SMOOTH",
"27 163 LINE SMOOTH",
"8 151 OFFCURVE",
"15 136 OFFCURVE",
"25 121 CURVE SMOOTH",
"76 45 OFFCURVE",
"195 -10 OFFCURVE",
"341 -10 CURVE SMOOTH",
"530 -10 OFFCURVE",
"654 83 OFFCURVE",
"654 242 CURVE SMOOTH",
"654 395 OFFCURVE",
"538 484 OFFCURVE",
"377 484 CURVE SMOOTH",
"332 484 OFFCURVE",
"302 477 OFFCURVE",
"249 463 CURVE SMOOTH",
"239 460 OFFCURVE",
"231 465 OFFCURVE",
"233 477 CURVE SMOOTH",
"241 544 LINE SMOOTH",
"242 557 OFFCURVE",
"249 562 OFFCURVE",
"262 562 CURVE SMOOTH",
"561 562 LINE SMOOTH",
"580 562 OFFCURVE",
"588 568 OFFCURVE",
"589 585 CURVE SMOOTH",
"595 713 LINE SMOOTH",
"596 737 OFFCURVE",
"594 742 OFFCURVE",
"565 742 CURVE SMOOTH",
"132 742 LINE SMOOTH"
);
}
);
width = 679;
}
);
unicode = 0035;
},
{
glyphname = six;
lastChange = "2015-06-11 13:01:42 +0000";
layers = (
{
background = {
paths = (
{
closed = 1;
nodes = (
"182 750 OFFCURVE",
"33 578 OFFCURVE",
"33 350 CURVE SMOOTH",
"33 136 OFFCURVE",
"166 -8 OFFCURVE",
"363 -8 CURVE SMOOTH",
"540 -8 OFFCURVE",
"672 97 OFFCURVE",
"672 240 CURVE SMOOTH",
"672 370 OFFCURVE",
"564 461 OFFCURVE",
"411 461 CURVE SMOOTH",
"368 461 OFFCURVE",
"329 451 OFFCURVE",
"283 431 CURVE SMOOTH",
"264 423 OFFCURVE",
"258 428 OFFCURVE",
"258 450 CURVE SMOOTH",
"258 529 OFFCURVE",
"314 600 OFFCURVE",
"377 600 CURVE SMOOTH",
"412 600 OFFCURVE",
"439 578 OFFCURVE",
"463 534 CURVE SMOOTH",
"469 522 OFFCURVE",
"475 518 OFFCURVE",
"485 521 CURVE SMOOTH",
"628 563 LINE SMOOTH",
"639 566 OFFCURVE",
"643 575 OFFCURVE",
"640 590 CURVE SMOOTH",
"619 672 OFFCURVE",
"506 750 OFFCURVE",
"380 750 CURVE SMOOTH"
);
},
{
closed = 1;
nodes = (
"420 317 OFFCURVE",
"456 276 OFFCURVE",
"456 236 CURVE SMOOTH",
"456 178 OFFCURVE",
"414 136 OFFCURVE",
"355 136 CURVE SMOOTH",
"300 136 OFFCURVE",
"260 197 OFFCURVE",
"260 272 CURVE SMOOTH",
"260 280 OFFCURVE",
"264 288 OFFCURVE",
"270 291 CURVE SMOOTH",
"298 307 OFFCURVE",
"332 317 OFFCURVE",
"357 317 CURVE SMOOTH"
);
}
);
};
layerId = "258ED206-D907-4350-8EBA-CBDDA1C16BF7";
name = Regular;
paths = (
{
closed = 1;
nodes = (
"175 750 OFFCURVE",
"34 601 OFFCURVE",
"34 352 CURVE SMOOTH",
"34 136 OFFCURVE",
"162 -8 OFFCURVE",
"367 -8 CURVE SMOOTH",
"542 -8 OFFCURVE",
"677 97 OFFCURVE",
"677 240 CURVE SMOOTH",
"677 370 OFFCURVE",
"567 461 OFFCURVE",
"412 461 CURVE SMOOTH",
"356 461 OFFCURVE",
"324 449 OFFCURVE",
"284 433 CURVE SMOOTH",
"263 425 OFFCURVE",
"259 428 OFFCURVE",
"259 453 CURVE SMOOTH",
"259 540 OFFCURVE",
"306 596 OFFCURVE",
"376 596 CURVE SMOOTH",
"423 596 OFFCURVE",
"442 570 OFFCURVE",
"464 534 CURVE SMOOTH",
"467 528 OFFCURVE",
"473 517 OFFCURVE",
"486 521 CURVE SMOOTH",
"629 563 LINE SMOOTH",
"643 567 OFFCURVE",
"643 579 OFFCURVE",
"641 590 CURVE SMOOTH",
"629 653 OFFCURVE",
"528 750 OFFCURVE",
"376 750 CURVE SMOOTH"
);
},
{
closed = 1;
nodes = (
"407 317 OFFCURVE",
"453 289 OFFCURVE",
"453 231 CURVE SMOOTH",
"453 175 OFFCURVE",
"411 136 OFFCURVE",
"359 136 CURVE SMOOTH",
"301 136 OFFCURVE",
"261 183 OFFCURVE",
"261 263 CURVE SMOOTH",
"261 281 OFFCURVE",
"263 285 OFFCURVE",
"271 291 CURVE SMOOTH",
"287 303 OFFCURVE",
"327 317 OFFCURVE",
"360 317 CURVE SMOOTH"
);
}
);
width = 702;
}
);
unicode = 0036;
},
{
glyphname = seven;
lastChange = "2015-06-11 13:01:42 +0000";
layers = (
{
background = {
paths = (
{
closed = 1;
nodes = (
"22 742 OFFCURVE",
"11 736 OFFCURVE",
"10 725 CURVE SMOOTH",
"-5 579 LINE SMOOTH",
"-7 564 OFFCURVE",
"1 554 OFFCURVE",
"22 554 CURVE SMOOTH",
"328 560 LINE SMOOTH",
"344 560 OFFCURVE",
"343 552 OFFCURVE",
"337 542 CURVE SMOOTH",
"182 294 OFFCURVE",
"132 177 OFFCURVE",
"88 29 CURVE SMOOTH",
"83 11 OFFCURVE",
"90 0 OFFCURVE",
"108 0 CURVE SMOOTH",
"321 0 LINE SMOOTH",
"337 0 OFFCURVE",
"346 13 OFFCURVE",
"346 41 CURVE SMOOTH",
"346 168 OFFCURVE",
"427 406 OFFCURVE",
"539 578 CURVE SMOOTH",
"551 596 OFFCURVE",
"570 633 OFFCURVE",
"571 647 CURVE SMOOTH",
"575 714 LINE SMOOTH",
"576 729 OFFCURVE",
"563 742 OFFCURVE",
"538 742 CURVE SMOOTH",
"48 742 LINE SMOOTH"
);
}
);
};
layerId = "258ED206-D907-4350-8EBA-CBDDA1C16BF7";
name = Regular;
paths = (
{
closed = 1;
nodes = (
"26 742 OFFCURVE",
"15 736 OFFCURVE",
"14 725 CURVE SMOOTH",
"0 587 LINE SMOOTH",
"-1 572 OFFCURVE",
"6 562 OFFCURVE",
"27 562 CURVE SMOOTH",
"332 562 LINE SMOOTH",
"348 562 OFFCURVE",
"347 554 OFFCURVE",
"341 544 CURVE SMOOTH",
"186 296 OFFCURVE",
"136 177 OFFCURVE",
"92 29 CURVE SMOOTH",
"87 11 OFFCURVE",
"94 0 OFFCURVE",
"112 0 CURVE SMOOTH",
"323 0 LINE SMOOTH",
"339 0 OFFCURVE",
"347 10 OFFCURVE",
"348 33 CURVE SMOOTH",
"354 168 OFFCURVE",
"431 406 OFFCURVE",
"543 578 CURVE SMOOTH",
"555 596 OFFCURVE",
"574 633 OFFCURVE",
"575 647 CURVE SMOOTH",
"579 714 LINE SMOOTH",
"580 729 OFFCURVE",
"567 742 OFFCURVE",
"542 742 CURVE SMOOTH",
"44 742 LINE SMOOTH"
);
}
);
width = 579;
}
);
unicode = 0037;
},
{
glyphname = eight;
lastChange = "2015-06-11 13:01:42 +0000";
layers = (
{
background = {
paths = (
{
closed = 1;
nodes = (
"142 748 OFFCURVE",
"39 642 OFFCURVE",
"39 515 CURVE SMOOTH",
"39 429 OFFCURVE",
"87 391 OFFCURVE",
"134 354 CURVE SMOOTH",
"144 346 OFFCURVE",
"141 343 OFFCURVE",
"132 339 CURVE SMOOTH",
"42 293 OFFCURVE",
"16 245 OFFCURVE",
"16 182 CURVE SMOOTH",
"16 57 OFFCURVE",
"143 -10 OFFCURVE",
"321 -10 CURVE SMOOTH",
"517 -10 OFFCURVE",
"654 72 OFFCURVE",
"654 219 CURVE SMOOTH",
"654 287 OFFCURVE",
"628 337 OFFCURVE",
"527 398 CURVE SMOOTH",
"515 407 OFFCURVE",
"518 412 OFFCURVE",
"528 418 CURVE SMOOTH",
"595 459 OFFCURVE",
"621 492 OFFCURVE",
"621 544 CURVE SMOOTH",
"621 661 OFFCURVE",
"494 748 OFFCURVE",
"327 748 CURVE SMOOTH"
);
},
{
closed = 1;
nodes = (
"398 607 OFFCURVE",
"433 572 OFFCURVE",
"433 536 CURVE SMOOTH",
"433 500 OFFCURVE",
"397 450 OFFCURVE",
"359 464 CURVE SMOOTH",
"288 489 LINE SMOOTH",
"257 500 OFFCURVE",
"240 518 OFFCURVE",
"240 544 CURVE SMOOTH",
"240 584 OFFCURVE",
"277 607 OFFCURVE",
"331 607 CURVE SMOOTH"
);
},
{
closed = 1;
nodes = (
"247 130 OFFCURVE",
"206 162 OFFCURVE",
"206 206 CURVE SMOOTH",
"206 252 OFFCURVE",
"261 301 OFFCURVE",
"300 287 CURVE SMOOTH",
"371 262 LINE SMOOTH",
"425 243 OFFCURVE",
"436 220 OFFCURVE",
"436 194 CURVE SMOOTH",
"436 155 OFFCURVE",
"403 130 OFFCURVE",
"342 130 CURVE SMOOTH"
);
}
);
};
layerId = "258ED206-D907-4350-8EBA-CBDDA1C16BF7";
name = Regular;
paths = (
{
closed = 1;
nodes = (
"150 752 OFFCURVE",
"44 642 OFFCURVE",
"44 515 CURVE SMOOTH",
"44 429 OFFCURVE",
"95 391 OFFCURVE",
"142 354 CURVE SMOOTH",
"152 346 OFFCURVE",
"149 343 OFFCURVE",
"140 339 CURVE SMOOTH",
"50 293 OFFCURVE",
"24 245 OFFCURVE",
"24 182 CURVE SMOOTH",
"24 57 OFFCURVE",
"151 -10 OFFCURVE",
"329 -10 CURVE SMOOTH",
"525 -10 OFFCURVE",
"662 72 OFFCURVE",
"662 219 CURVE SMOOTH",
"662 287 OFFCURVE",
"636 337 OFFCURVE",
"535 398 CURVE SMOOTH",
"523 407 OFFCURVE",
"526 413 OFFCURVE",
"536 418 CURVE SMOOTH",
"596 447 OFFCURVE",
"629 492 OFFCURVE",
"629 544 CURVE SMOOTH",
"629 661 OFFCURVE",
"502 752 OFFCURVE",
"335 752 CURVE SMOOTH"
);
},
{
closed = 1;
nodes = (
"406 607 OFFCURVE",
"441 572 OFFCURVE",
"441 536 CURVE SMOOTH",
"441 500 OFFCURVE",
"405 451 OFFCURVE",
"367 464 CURVE SMOOTH",
"303 486 LINE SMOOTH",
"272 497 OFFCURVE",
"255 518 OFFCURVE",
"255 544 CURVE SMOOTH",
"255 584 OFFCURVE",
"292 607 OFFCURVE",
"339 607 CURVE SMOOTH"
);
},
{
closed = 1;
nodes = (
"248 135 OFFCURVE",
"214 167 OFFCURVE",
"214 218 CURVE SMOOTH",
"214 269 OFFCURVE",
"262 306 OFFCURVE",
"301 292 CURVE SMOOTH",
"372 267 LINE SMOOTH",
"426 248 OFFCURVE",
"437 225 OFFCURVE",
"437 199 CURVE SMOOTH",
"437 160 OFFCURVE",
"404 135 OFFCURVE",
"343 135 CURVE SMOOTH"
);
}
);
width = 674;
}
);
unicode = 0038;
},
{
glyphname = nine;
lastChange = "2015-06-11 13:01:42 +0000";
layers = (
{
background = {
paths = (
{
closed = 1;
nodes = (
"528 -8 OFFCURVE",
"667 163 OFFCURVE",
"667 381 CURVE SMOOTH",
"667 606 OFFCURVE",
"534 750 OFFCURVE",
"337 750 CURVE SMOOTH",
"160 750 OFFCURVE",
"28 644 OFFCURVE",
"28 501 CURVE SMOOTH",
"28 372 OFFCURVE",
"136 281 OFFCURVE",
"289 281 CURVE SMOOTH",
"332 281 OFFCURVE",
"374 290 OFFCURVE",
"421 310 CURVE SMOOTH",
"440 319 OFFCURVE",
"445 314 OFFCURVE",
"445 291 CURVE SMOOTH",
"445 213 OFFCURVE",
"390 138 OFFCURVE",
"327 138 CURVE SMOOTH",
"292 138 OFFCURVE",
"262 161 OFFCURVE",
"238 206 CURVE SMOOTH",
"232 217 OFFCURVE",
"226 221 OFFCURVE",
"216 218 CURVE SMOOTH",
"73 177 LINE SMOOTH",
"63 174 OFFCURVE",
"58 164 OFFCURVE",
"62 149 CURVE SMOOTH",
"82 68 OFFCURVE",
"194 -8 OFFCURVE",
"320 -8 CURVE SMOOTH"
);
},
{
closed = 1;
nodes = (
"280 423 OFFCURVE",
"246 467 OFFCURVE",
"246 507 CURVE SMOOTH",
"246 560 OFFCURVE",
"287 609 OFFCURVE",
"346 609 CURVE SMOOTH",
"405 609 OFFCURVE",
"440 542 OFFCURVE",
"440 467 CURVE SMOOTH",
"440 460 OFFCURVE",
"437 451 OFFCURVE",
"430 448 CURVE SMOOTH",
"402 432 OFFCURVE",
"368 423 OFFCURVE",
"343 423 CURVE SMOOTH"
);
}
);
};
layerId = "258ED206-D907-4350-8EBA-CBDDA1C16BF7";
name = Regular;
paths = (
{
closed = 1;
nodes = (
"528 -8 OFFCURVE",
"669 141 OFFCURVE",
"669 390 CURVE SMOOTH",
"669 606 OFFCURVE",
"541 750 OFFCURVE",
"336 750 CURVE SMOOTH",
"161 750 OFFCURVE",
"26 645 OFFCURVE",
"26 502 CURVE SMOOTH",
"26 372 OFFCURVE",
"136 281 OFFCURVE",
"291 281 CURVE SMOOTH",
"347 281 OFFCURVE",
"379 293 OFFCURVE",
"419 309 CURVE SMOOTH",
"440 317 OFFCURVE",
"444 314 OFFCURVE",
"444 289 CURVE SMOOTH",
"444 202 OFFCURVE",
"397 146 OFFCURVE",
"327 146 CURVE SMOOTH",
"280 146 OFFCURVE",
"261 172 OFFCURVE",
"239 208 CURVE SMOOTH",
"236 214 OFFCURVE",
"230 225 OFFCURVE",
"217 221 CURVE SMOOTH",
"74 179 LINE SMOOTH",
"60 175 OFFCURVE",
"60 163 OFFCURVE",
"62 152 CURVE SMOOTH",
"74 89 OFFCURVE",
"175 -8 OFFCURVE",
"327 -8 CURVE SMOOTH"
);
},
{
closed = 1;
nodes = (
"296 425 OFFCURVE",
"250 453 OFFCURVE",
"250 511 CURVE SMOOTH",
"250 567 OFFCURVE",
"292 606 OFFCURVE",
"344 606 CURVE SMOOTH",
"402 606 OFFCURVE",
"442 559 OFFCURVE",
"442 479 CURVE SMOOTH",
"442 461 OFFCURVE",
"440 457 OFFCURVE",
"432 451 CURVE SMOOTH",
"416 439 OFFCURVE",
"376 425 OFFCURVE",
"343 425 CURVE SMOOTH"
);
}
);
width = 703;
}
);
unicode = 0039;
},
{
color = 5;
glyphname = bullet;
lastChange = "2015-06-11 16:19:25 +0000";
layers = (
{
layerId = "258ED206-D907-4350-8EBA-CBDDA1C16BF7";
name = Regular;
paths = (
{
closed = 1;
nodes = (
"261 223 OFFCURVE",
"330 292 OFFCURVE",
"330 377 CURVE SMOOTH",
"330 462 OFFCURVE",
"261 531 OFFCURVE",
"176 531 CURVE SMOOTH",
"91 531 OFFCURVE",
"22 462 OFFCURVE",
"22 377 CURVE SMOOTH",
"22 292 OFFCURVE",
"91 223 OFFCURVE",
"176 223 CURVE SMOOTH"
);
}
);
width = 357;
}
);
unicode = 2022;
},
{
glyphname = colon;
lastChange = "2015-06-11 13:01:42 +0000";
layers = (
{
background = {
paths = (
{
closed = 1;
nodes = (
"238 518 OFFCURVE",
"232 525 OFFCURVE",
"220 525 CURVE SMOOTH",
"47 525 LINE SMOOTH",
"36 525 OFFCURVE",
"28 518 OFFCURVE",
"28 503 CURVE SMOOTH",
"28 354 LINE SMOOTH",
"28 337 OFFCURVE",
"35 328 OFFCURVE",
"55 328 CURVE SMOOTH",
"205 328 LINE SMOOTH",
"229 328 OFFCURVE",
"238 337 OFFCURVE",
"238 357 CURVE SMOOTH",
"238 505 LINE SMOOTH"
);
},
{
closed = 1;
nodes = (
"238 193 OFFCURVE",
"232 200 OFFCURVE",
"220 200 CURVE SMOOTH",
"47 200 LINE SMOOTH",
"36 200 OFFCURVE",
"28 193 OFFCURVE",
"28 178 CURVE SMOOTH",
"28 29 LINE SMOOTH",
"28 12 OFFCURVE",
"35 3 OFFCURVE",
"55 3 CURVE SMOOTH",
"205 3 LINE SMOOTH",
"229 3 OFFCURVE",
"238 12 OFFCURVE",
"238 32 CURVE SMOOTH",
"238 180 LINE SMOOTH"
);
}
);
};
layerId = "258ED206-D907-4350-8EBA-CBDDA1C16BF7";
name = Regular;
paths = (
{
closed = 1;
nodes = (
"242 518 OFFCURVE",
"236 525 OFFCURVE",
"224 525 CURVE SMOOTH",
"51 525 LINE SMOOTH",
"40 525 OFFCURVE",
"32 518 OFFCURVE",
"32 503 CURVE SMOOTH",
"32 354 LINE SMOOTH",
"32 337 OFFCURVE",
"39 328 OFFCURVE",
"59 328 CURVE SMOOTH",
"209 328 LINE SMOOTH",
"233 328 OFFCURVE",
"242 337 OFFCURVE",
"242 357 CURVE SMOOTH",
"242 505 LINE SMOOTH"
);
},
{
closed = 1;
nodes = (
"242 193 OFFCURVE",
"236 200 OFFCURVE",
"224 200 CURVE SMOOTH",
"51 200 LINE SMOOTH",
"40 200 OFFCURVE",
"32 193 OFFCURVE",
"32 178 CURVE SMOOTH",
"32 29 LINE SMOOTH",
"32 12 OFFCURVE",
"39 3 OFFCURVE",
"59 3 CURVE SMOOTH",
"209 3 LINE SMOOTH",
"233 3 OFFCURVE",
"242 12 OFFCURVE",
"242 32 CURVE SMOOTH",
"242 180 LINE SMOOTH"
);
}
);
width = 279;
}
);
unicode = 003A;
},
{
glyphname = comma;
lastChange = "2015-06-11 13:01:42 +0000";
layers = (
{
background = {
paths = (
{
closed = 1;
nodes = (
"35 0 OFFCURVE",
"28 8 OFFCURVE",
"28 25 CURVE SMOOTH",
"28 176 LINE SMOOTH",
"28 191 OFFCURVE",
"36 198 OFFCURVE",
"47 198 CURVE SMOOTH",
"220 198 LINE SMOOTH",
"232 198 OFFCURVE",
"238 191 OFFCURVE",
"238 178 CURVE SMOOTH",
"238 32 LINE SMOOTH",
"238 25 OFFCURVE",
"237 22 OFFCURVE",
"234 17 CURVE SMOOTH",
"120 -146 LINE SMOOTH",
"109 -161 OFFCURVE",
"89 -169 OFFCURVE",
"74 -169 CURVE SMOOTH",
"52 -169 LINE SMOOTH",
"39 -169 OFFCURVE",
"31 -156 OFFCURVE",
"36 -144 CURVE SMOOTH",
"86 -32 LINE SMOOTH",
"94 -12 OFFCURVE",
"93 0 OFFCURVE",
"77 0 CURVE SMOOTH",
"55 0 LINE SMOOTH"
);
}
);
};
layerId = "258ED206-D907-4350-8EBA-CBDDA1C16BF7";
name = Regular;
paths = (
{
closed = 1;
nodes = (
"39 0 OFFCURVE",
"32 8 OFFCURVE",
"32 25 CURVE SMOOTH",
"32 176 LINE SMOOTH",
"32 191 OFFCURVE",
"40 198 OFFCURVE",
"51 198 CURVE SMOOTH",
"224 198 LINE SMOOTH",
"236 198 OFFCURVE",
"242 191 OFFCURVE",
"242 178 CURVE SMOOTH",
"242 32 LINE SMOOTH",
"242 25 OFFCURVE",
"241 22 OFFCURVE",
"238 17 CURVE SMOOTH",
"124 -146 LINE SMOOTH",
"113 -161 OFFCURVE",
"93 -169 OFFCURVE",
"78 -169 CURVE SMOOTH",
"56 -169 LINE SMOOTH",
"43 -169 OFFCURVE",
"35 -156 OFFCURVE",
"40 -144 CURVE SMOOTH",
"90 -32 LINE SMOOTH",
"98 -12 OFFCURVE",
"97 0 OFFCURVE",
"81 0 CURVE SMOOTH",
"59 0 LINE SMOOTH"
);
}
);
width = 279;
}
);
unicode = 002C;
},
{
glyphname = exclam;
lastChange = "2015-06-11 16:26:27 +0000";
layers = (
{
background = {
paths = (
{
closed = 1;
nodes = (
"237 190 OFFCURVE",
"231 197 OFFCURVE",
"219 197 CURVE SMOOTH",
"46 197 LINE SMOOTH",
"35 197 OFFCURVE",
"27 190 OFFCURVE",
"27 175 CURVE SMOOTH",
"27 25 LINE SMOOTH",
"27 8 OFFCURVE",
"34 0 OFFCURVE",
"54 0 CURVE SMOOTH",
"204 0 LINE SMOOTH",
"228 0 OFFCURVE",
"237 8 OFFCURVE",
"237 29 CURVE SMOOTH",
"237 177 LINE SMOOTH"
);
},
{
closed = 1;
nodes = (
"247 734 OFFCURVE",
"239 742 OFFCURVE",
"228 742 CURVE SMOOTH",
"39 742 LINE SMOOTH",
"27 742 OFFCURVE",
"18 734 OFFCURVE",
"20 719 CURVE SMOOTH",
"70 291 LINE SMOOTH",
"72 274 OFFCURVE",
"76 266 OFFCURVE",
"96 266 CURVE SMOOTH",
"165 266 LINE SMOOTH",
"188 266 OFFCURVE",
"196 274 OFFCURVE",
"198 294 CURVE SMOOTH",
"246 721 LINE SMOOTH"
);
}
);
};
layerId = "258ED206-D907-4350-8EBA-CBDDA1C16BF7";
name = Regular;
paths = (
{
closed = 1;
nodes = (
"241 190 OFFCURVE",
"235 197 OFFCURVE",
"223 197 CURVE SMOOTH",
"50 197 LINE SMOOTH",
"39 197 OFFCURVE",
"31 190 OFFCURVE",
"31 175 CURVE SMOOTH",
"31 25 LINE SMOOTH",
"31 8 OFFCURVE",
"38 0 OFFCURVE",
"58 0 CURVE SMOOTH",
"208 0 LINE SMOOTH",
"232 0 OFFCURVE",
"241 8 OFFCURVE",
"241 29 CURVE SMOOTH",
"241 177 LINE SMOOTH"
);
},
{
closed = 1;
nodes = (
"251 734 OFFCURVE",
"243 742 OFFCURVE",
"232 742 CURVE SMOOTH",
"43 742 LINE SMOOTH",
"31 742 OFFCURVE",
"22 734 OFFCURVE",
"24 719 CURVE SMOOTH",
"74 291 LINE SMOOTH",
"76 274 OFFCURVE",
"80 266 OFFCURVE",
"100 266 CURVE SMOOTH",
"169 266 LINE SMOOTH",
"192 266 OFFCURVE",
"200 274 OFFCURVE",
"202 294 CURVE SMOOTH",
"250 721 LINE SMOOTH"
);
}
);
width = 277;
}
);
unicode = 0021;
},
{
color = 5;
glyphname = exclamdown;
lastChange = "2015-06-11 16:21:24 +0000";
layers = (
{
layerId = "258ED206-D907-4350-8EBA-CBDDA1C16BF7";
name = Regular;
paths = (
{
closed = 1;
nodes = (
"244 501 LINE SMOOTH",
"244 522 OFFCURVE",
"235 530 OFFCURVE",
"211 530 CURVE SMOOTH",
"61 530 LINE SMOOTH",
"41 530 OFFCURVE",
"34 522 OFFCURVE",
"34 505 CURVE SMOOTH",
"34 355 LINE SMOOTH",
"34 340 OFFCURVE",
"42 333 OFFCURVE",
"53 333 CURVE SMOOTH",
"226 333 LINE SMOOTH",
"238 333 OFFCURVE",
"244 340 OFFCURVE",
"244 353 CURVE SMOOTH"
);
},
{
closed = 1;
nodes = (
"205 236 LINE SMOOTH",
"203 256 OFFCURVE",
"195 264 OFFCURVE",
"172 264 CURVE SMOOTH",
"103 264 LINE SMOOTH",
"83 264 OFFCURVE",
"80 256 OFFCURVE",
"77 239 CURVE SMOOTH",
"27 -142 LINE SMOOTH",
"25 -157 OFFCURVE",
"34 -165 OFFCURVE",
"46 -165 CURVE SMOOTH",
"235 -165 LINE SMOOTH",
"246 -165 OFFCURVE",
"255 -157 OFFCURVE",
"253 -144 CURVE SMOOTH"
);
}
);
width = 277;
}
);
unicode = 00A1;
},
{
glyphname = period;
lastChange = "2015-06-11 13:01:42 +0000";
layers = (
{
background = {
paths = (
{
closed = 1;
nodes = (
"238 194 OFFCURVE",
"232 201 OFFCURVE",
"220 201 CURVE SMOOTH",
"47 201 LINE SMOOTH",
"36 201 OFFCURVE",
"28 194 OFFCURVE",
"28 179 CURVE SMOOTH",
"28 25 LINE SMOOTH",
"28 8 OFFCURVE",
"35 0 OFFCURVE",
"55 0 CURVE SMOOTH",
"205 0 LINE SMOOTH",
"229 0 OFFCURVE",
"238 8 OFFCURVE",
"238 29 CURVE SMOOTH",
"238 181 LINE SMOOTH"
);
}
);
};
layerId = "258ED206-D907-4350-8EBA-CBDDA1C16BF7";
name = Regular;
paths = (
{
closed = 1;
nodes = (
"242 194 OFFCURVE",
"236 201 OFFCURVE",
"224 201 CURVE SMOOTH",
"51 201 LINE SMOOTH",
"40 201 OFFCURVE",
"32 194 OFFCURVE",
"32 179 CURVE SMOOTH",
"32 25 LINE SMOOTH",
"32 8 OFFCURVE",
"39 0 OFFCURVE",
"59 0 CURVE SMOOTH",
"209 0 LINE SMOOTH",
"233 0 OFFCURVE",
"242 8 OFFCURVE",
"242 29 CURVE SMOOTH",
"242 181 LINE SMOOTH"
);
}
);
width = 279;
}
);
unicode = 002E;
},
{
glyphname = question;
lastChange = "2015-06-11 13:01:42 +0000";
layers = (
{
background = {
paths = (
{
closed = 1;
nodes = (
"353 190 OFFCURVE",
"346 197 OFFCURVE",
"335 197 CURVE SMOOTH",
"162 197 LINE SMOOTH",
"150 197 OFFCURVE",
"143 190 OFFCURVE",
"143 175 CURVE SMOOTH",
"143 25 LINE SMOOTH",
"143 8 OFFCURVE",
"149 0 OFFCURVE",
"169 0 CURVE SMOOTH",
"320 0 LINE SMOOTH",
"343 0 OFFCURVE",
"353 8 OFFCURVE",
"353 29 CURVE SMOOTH",
"353 177 LINE SMOOTH"
);
},
{
closed = 1;
nodes = (
"130 535 LINE SMOOTH",
"145 532 OFFCURVE",
"150 534 OFFCURVE",
"156 547 CURVE SMOOTH",
"177 597 OFFCURVE",
"216 624 OFFCURVE",
"258 624 CURVE SMOOTH",
"293 624 OFFCURVE",
"323 603 OFFCURVE",
"323 571 CURVE SMOOTH",
"323 500 OFFCURVE",
"171 464 OFFCURVE",
"171 298 CURVE SMOOTH",
"171 279 OFFCURVE",
"181 269 OFFCURVE",
"197 269 CURVE SMOOTH",
"302 269 LINE SMOOTH",
"316 269 OFFCURVE",
"327 280 OFFCURVE",
"327 293 CURVE SMOOTH",
"327 425 OFFCURVE",
"518 433 OFFCURVE",
"518 582 CURVE SMOOTH",
"518 673 OFFCURVE",
"404 750 OFFCURVE",
"260 750 CURVE SMOOTH",
"126 750 OFFCURVE",
"35 697 OFFCURVE",
"-8 590 CURVE SMOOTH",
"-12 579 OFFCURVE",
"-11 566 OFFCURVE",
"2 563 CURVE SMOOTH"
);
}
);
};
layerId = "258ED206-D907-4350-8EBA-CBDDA1C16BF7";
name = Regular;
paths = (
{
closed = 1;
nodes = (
"357 190 OFFCURVE",
"350 197 OFFCURVE",
"339 197 CURVE SMOOTH",
"166 197 LINE SMOOTH",
"154 197 OFFCURVE",
"147 190 OFFCURVE",
"147 175 CURVE SMOOTH",
"147 25 LINE SMOOTH",
"147 8 OFFCURVE",
"153 0 OFFCURVE",
"173 0 CURVE SMOOTH",
"324 0 LINE SMOOTH",
"347 0 OFFCURVE",
"357 8 OFFCURVE",
"357 29 CURVE SMOOTH",
"357 177 LINE SMOOTH"
);
},
{
closed = 1;
nodes = (
"134 533 LINE SMOOTH",
"149 530 OFFCURVE",
"154 532 OFFCURVE",
"160 545 CURVE SMOOTH",
"181 595 OFFCURVE",
"220 622 OFFCURVE",
"262 622 CURVE SMOOTH",
"297 622 OFFCURVE",
"327 601 OFFCURVE",
"327 569 CURVE SMOOTH",
"327 498 OFFCURVE",
"175 464 OFFCURVE",
"175 298 CURVE SMOOTH",
"175 279 OFFCURVE",
"185 269 OFFCURVE",
"201 269 CURVE SMOOTH",
"306 269 LINE SMOOTH",
"320 269 OFFCURVE",
"331 280 OFFCURVE",
"331 293 CURVE SMOOTH",
"331 425 OFFCURVE",
"522 431 OFFCURVE",
"522 580 CURVE SMOOTH",
"522 671 OFFCURVE",
"419 752 OFFCURVE",
"264 752 CURVE SMOOTH",
"130 752 OFFCURVE",
"39 695 OFFCURVE",
"-4 588 CURVE SMOOTH",
"-8 577 OFFCURVE",
"-7 564 OFFCURVE",
"6 561 CURVE SMOOTH"
);
}
);
width = 544;
}
);
unicode = 003F;
},
{
color = 5;
glyphname = questiondown;
lastChange = "2015-06-11 16:22:40 +0000";
layers = (
{
layerId = "258ED206-D907-4350-8EBA-CBDDA1C16BF7";
name = Regular;
paths = (
{
closed = 1;
nodes = (
"159 340 OFFCURVE",
"166 333 OFFCURVE",
"177 333 CURVE SMOOTH",
"350 333 LINE SMOOTH",
"362 333 OFFCURVE",
"369 340 OFFCURVE",
"369 355 CURVE SMOOTH",
"369 505 LINE SMOOTH",
"369 522 OFFCURVE",
"363 530 OFFCURVE",
"343 530 CURVE SMOOTH",
"192 530 LINE SMOOTH",
"169 530 OFFCURVE",
"159 522 OFFCURVE",
"159 501 CURVE SMOOTH",
"159 353 LINE SMOOTH"
);
},
{
closed = 1;
nodes = (
"382 43 LINE SMOOTH",
"367 47 OFFCURVE",
"362 45 OFFCURVE",
"356 32 CURVE SMOOTH",
"335 -18 OFFCURVE",
"296 -45 OFFCURVE",
"254 -45 CURVE SMOOTH",
"219 -45 OFFCURVE",
"189 -24 OFFCURVE",
"189 8 CURVE SMOOTH",
"189 79 OFFCURVE",
"341 96 OFFCURVE",
"341 232 CURVE SMOOTH",
"341 251 OFFCURVE",
"331 261 OFFCURVE",
"315 261 CURVE SMOOTH",
"210 261 LINE SMOOTH",
"196 261 OFFCURVE",
"185 250 OFFCURVE",
"185 237 CURVE SMOOTH",
"185 135 OFFCURVE",
"-6 146 OFFCURVE",
"-6 -3 CURVE SMOOTH",
"-6 -94 OFFCURVE",
"97 -175 OFFCURVE",
"252 -175 CURVE SMOOTH",
"386 -175 OFFCURVE",
"477 -118 OFFCURVE",
"520 -11 CURVE SMOOTH",
"524 0 OFFCURVE",
"523 13 OFFCURVE",
"510 16 CURVE SMOOTH"
);
}
);
width = 600;
}
);
unicode = 00BF;
},
{
glyphname = quotesingle;
lastChange = "2015-06-11 13:01:42 +0000";
layers = (
{
background = {
paths = (
{
closed = 1;
nodes = (
"41 568 OFFCURVE",
"35 573 OFFCURVE",
"35 589 CURVE SMOOTH",
"35 721 LINE SMOOTH",
"35 735 OFFCURVE",
"42 742 OFFCURVE",
"53 742 CURVE SMOOTH",
"200 742 LINE SMOOTH",
"211 742 OFFCURVE",
"217 735 OFFCURVE",
"217 724 CURVE SMOOTH",
"217 597 LINE SMOOTH",
"217 591 OFFCURVE",
"215 586 OFFCURVE",
"213 583 CURVE SMOOTH",
"113 432 LINE SMOOTH",
"104 418 OFFCURVE",
"86 411 OFFCURVE",
"72 411 CURVE SMOOTH",
"56 411 LINE SMOOTH",
"44 411 OFFCURVE",
"38 423 OFFCURVE",
"42 433 CURVE SMOOTH",
"84 535 LINE SMOOTH",
"91 553 OFFCURVE",
"90 561 OFFCURVE",
"75 564 CURVE SMOOTH",
"59 566 LINE SMOOTH"
);
}
);
};
layerId = "258ED206-D907-4350-8EBA-CBDDA1C16BF7";
name = Regular;
paths = (
{
closed = 1;
nodes = (
"45 568 OFFCURVE",
"39 573 OFFCURVE",
"39 589 CURVE SMOOTH",
"39 721 LINE SMOOTH",
"39 735 OFFCURVE",
"46 742 OFFCURVE",
"57 742 CURVE SMOOTH",
"204 742 LINE SMOOTH",
"215 742 OFFCURVE",
"221 735 OFFCURVE",
"221 724 CURVE SMOOTH",
"221 597 LINE SMOOTH",
"221 591 OFFCURVE",
"219 586 OFFCURVE",
"217 583 CURVE SMOOTH",
"117 432 LINE SMOOTH",
"108 418 OFFCURVE",
"90 411 OFFCURVE",
"76 411 CURVE SMOOTH",
"60 411 LINE SMOOTH",
"48 411 OFFCURVE",
"42 423 OFFCURVE",
"46 433 CURVE SMOOTH",
"88 535 LINE SMOOTH",
"95 553 OFFCURVE",
"94 561 OFFCURVE",
"79 564 CURVE SMOOTH",
"63 566 LINE SMOOTH"
);
}
);
width = 253;
}
);
unicode = 0027;
},
{
glyphname = semicolon;
lastChange = "2015-06-11 13:01:42 +0000";
layers = (
{
background = {
paths = (
{
closed = 1;
nodes = (
"238 515 OFFCURVE",
"232 522 OFFCURVE",
"220 522 CURVE SMOOTH",
"47 522 LINE SMOOTH",
"36 522 OFFCURVE",
"28 515 OFFCURVE",
"28 500 CURVE SMOOTH",
"28 346 LINE SMOOTH",
"28 329 OFFCURVE",
"35 321 OFFCURVE",
"55 321 CURVE SMOOTH",
"205 321 LINE SMOOTH",
"229 321 OFFCURVE",
"238 329 OFFCURVE",
"238 350 CURVE SMOOTH",
"238 502 LINE SMOOTH"
);
},
{
closed = 1;
nodes = (
"35 0 OFFCURVE",
"28 8 OFFCURVE",
"28 25 CURVE SMOOTH",
"28 176 LINE SMOOTH",
"28 191 OFFCURVE",
"36 198 OFFCURVE",
"47 198 CURVE SMOOTH",
"220 198 LINE SMOOTH",
"232 198 OFFCURVE",
"238 191 OFFCURVE",
"238 178 CURVE SMOOTH",
"238 32 LINE SMOOTH",
"238 25 OFFCURVE",
"237 22 OFFCURVE",
"234 17 CURVE SMOOTH",
"120 -146 LINE SMOOTH",
"109 -161 OFFCURVE",
"89 -169 OFFCURVE",
"74 -169 CURVE SMOOTH",
"52 -169 LINE SMOOTH",
"39 -169 OFFCURVE",
"31 -156 OFFCURVE",
"36 -144 CURVE SMOOTH",
"86 -32 LINE SMOOTH",
"94 -12 OFFCURVE",
"93 0 OFFCURVE",
"77 0 CURVE SMOOTH",
"55 0 LINE SMOOTH"
);
}
);
};
layerId = "258ED206-D907-4350-8EBA-CBDDA1C16BF7";
name = Regular;
paths = (
{
closed = 1;
nodes = (
"242 515 OFFCURVE",
"236 522 OFFCURVE",
"224 522 CURVE SMOOTH",
"51 522 LINE SMOOTH",
"40 522 OFFCURVE",
"32 515 OFFCURVE",
"32 500 CURVE SMOOTH",
"32 346 LINE SMOOTH",
"32 329 OFFCURVE",
"39 321 OFFCURVE",
"59 321 CURVE SMOOTH",
"209 321 LINE SMOOTH",
"233 321 OFFCURVE",
"242 329 OFFCURVE",
"242 350 CURVE SMOOTH",
"242 502 LINE SMOOTH"
);
},
{
closed = 1;
nodes = (
"39 0 OFFCURVE",
"32 8 OFFCURVE",
"32 25 CURVE SMOOTH",
"32 176 LINE SMOOTH",
"32 191 OFFCURVE",
"40 198 OFFCURVE",
"51 198 CURVE SMOOTH",
"224 198 LINE SMOOTH",
"236 198 OFFCURVE",
"242 191 OFFCURVE",
"242 178 CURVE SMOOTH",
"242 32 LINE SMOOTH",
"242 25 OFFCURVE",
"241 22 OFFCURVE",
"238 17 CURVE SMOOTH",
"124 -146 LINE SMOOTH",
"113 -161 OFFCURVE",
"93 -169 OFFCURVE",
"78 -169 CURVE SMOOTH",
"56 -169 LINE SMOOTH",
"43 -169 OFFCURVE",
"35 -156 OFFCURVE",
"40 -144 CURVE SMOOTH",
"90 -32 LINE SMOOTH",
"98 -12 OFFCURVE",
"97 0 OFFCURVE",
"81 0 CURVE SMOOTH",
"59 0 LINE SMOOTH"
);
}
);
width = 279;
}
);
unicode = 003B;
},
{
color = 5;
glyphname = emdash;
lastChange = "2015-06-11 16:29:05 +0000";
layers = (
{
layerId = "258ED206-D907-4350-8EBA-CBDDA1C16BF7";
name = Regular;
paths = (
{
closed = 1;
nodes = (
"888 315 OFFCURVE",
"881 323 OFFCURVE",
"870 323 CURVE SMOOTH",
"59 323 LINE SMOOTH",
"47 323 OFFCURVE",
"40 315 OFFCURVE",
"40 300 CURVE SMOOTH",
"40 207 LINE SMOOTH",
"40 190 OFFCURVE",
"46 182 OFFCURVE",
"66 182 CURVE SMOOTH",
"855 182 LINE SMOOTH",
"878 182 OFFCURVE",
"888 190 OFFCURVE",
"888 210 CURVE SMOOTH",
"888 303 LINE SMOOTH"
);
}
);
width = 928;
}
);
unicode = 2014;
},
{
color = 5;
glyphname = endash;
lastChange = "2015-06-11 16:28:47 +0000";
layers = (
{
layerId = "258ED206-D907-4350-8EBA-CBDDA1C16BF7";
name = Regular;
paths = (
{
closed = 1;
nodes = (
"562 315 OFFCURVE",
"555 323 OFFCURVE",
"544 323 CURVE SMOOTH",
"59 323 LINE SMOOTH",
"47 323 OFFCURVE",
"40 315 OFFCURVE",
"40 300 CURVE SMOOTH",
"40 207 LINE SMOOTH",
"40 190 OFFCURVE",
"46 182 OFFCURVE",
"66 182 CURVE SMOOTH",
"529 182 LINE SMOOTH",
"552 182 OFFCURVE",
"562 190 OFFCURVE",
"562 210 CURVE SMOOTH",
"562 303 LINE SMOOTH"
);
}
);
width = 602;
}
);
unicode = 2013;
},
{
glyphname = hyphen;
lastChange = "2015-06-11 13:01:42 +0000";
layers = (
{
background = {
paths = (
{
closed = 1;
nodes = (
"335 325 OFFCURVE",
"328 333 OFFCURVE",
"317 333 CURVE SMOOTH",
"56 333 LINE SMOOTH",
"44 333 OFFCURVE",
"37 325 OFFCURVE",
"37 310 CURVE SMOOTH",
"37 197 LINE SMOOTH",
"37 180 OFFCURVE",
"43 172 OFFCURVE",
"63 172 CURVE SMOOTH",
"302 172 LINE SMOOTH",
"325 172 OFFCURVE",
"335 180 OFFCURVE",
"335 200 CURVE SMOOTH",
"335 313 LINE SMOOTH"
);
}
);
};
layerId = "258ED206-D907-4350-8EBA-CBDDA1C16BF7";
name = Regular;
paths = (
{
closed = 1;
nodes = (
"339 325 OFFCURVE",
"332 333 OFFCURVE",
"321 333 CURVE SMOOTH",
"60 333 LINE SMOOTH",
"48 333 OFFCURVE",
"41 325 OFFCURVE",
"41 310 CURVE SMOOTH",
"41 197 LINE SMOOTH",
"41 180 OFFCURVE",
"47 172 OFFCURVE",
"67 172 CURVE SMOOTH",
"306 172 LINE SMOOTH",
"329 172 OFFCURVE",
"339 180 OFFCURVE",
"339 200 CURVE SMOOTH",
"339 313 LINE SMOOTH"
);
}
);
width = 374;
}
);
unicode = 002D;
},
{
color = 5;
glyphname = quoteright;
lastChange = "2015-06-11 16:24:32 +0000";
layers = (
{
layerId = "258ED206-D907-4350-8EBA-CBDDA1C16BF7";
name = Regular;
paths = (
{
closed = 1;
nodes = (
"45 568 OFFCURVE",
"39 573 OFFCURVE",
"39 589 CURVE SMOOTH",
"39 721 LINE SMOOTH",
"39 735 OFFCURVE",
"46 742 OFFCURVE",
"57 742 CURVE SMOOTH",
"204 742 LINE SMOOTH",
"215 742 OFFCURVE",
"221 735 OFFCURVE",
"221 724 CURVE SMOOTH",
"221 597 LINE SMOOTH",
"221 591 OFFCURVE",
"219 586 OFFCURVE",
"217 583 CURVE SMOOTH",
"117 432 LINE SMOOTH",
"108 418 OFFCURVE",
"90 411 OFFCURVE",
"76 411 CURVE SMOOTH",
"60 411 LINE SMOOTH",
"48 411 OFFCURVE",
"42 423 OFFCURVE",
"46 433 CURVE SMOOTH",
"88 535 LINE SMOOTH",
"95 553 OFFCURVE",
"94 561 OFFCURVE",
"79 564 CURVE SMOOTH",
"63 566 LINE SMOOTH"
);
}
);
width = 253;
}
);
unicode = 2019;
},
{
color = 5;
glyphname = quotesinglbase;
lastChange = "2015-06-11 16:26:20 +0000";
layers = (
{
layerId = "258ED206-D907-4350-8EBA-CBDDA1C16BF7";
name = Regular;
paths = (
{
closed = 1;
nodes = (
"45 2 OFFCURVE",
"39 7 OFFCURVE",
"39 23 CURVE SMOOTH",
"39 155 LINE SMOOTH",
"39 169 OFFCURVE",
"46 176 OFFCURVE",
"57 176 CURVE SMOOTH",
"204 176 LINE SMOOTH",
"215 176 OFFCURVE",
"221 169 OFFCURVE",
"221 158 CURVE SMOOTH",
"221 31 LINE SMOOTH",
"221 25 OFFCURVE",
"219 20 OFFCURVE",
"217 17 CURVE SMOOTH",
"117 -134 LINE SMOOTH",
"108 -148 OFFCURVE",
"90 -155 OFFCURVE",
"76 -155 CURVE SMOOTH",
"60 -155 LINE SMOOTH",
"48 -155 OFFCURVE",
"42 -143 OFFCURVE",
"46 -133 CURVE SMOOTH",
"88 -31 LINE SMOOTH",
"95 -13 OFFCURVE",
"94 -5 OFFCURVE",
"79 -2 CURVE SMOOTH",
"63 0 LINE SMOOTH"
);
}
);
width = 253;
}
);
unicode = 201A;
},
{
glyphname = dollar;
lastChange = "2015-06-11 13:37:09 +0000";
layers = (
{
background = {
paths = (
{
closed = 1;
nodes = (
"656 337 OFFCURVE",
"582 418 OFFCURVE",
"483 442 CURVE SMOOTH",
"416 458 LINE SMOOTH",
"406 460 OFFCURVE",
"403 463 OFFCURVE",
"403 470 CURVE SMOOTH",
"403 585 LINE SMOOTH",
"403 591 OFFCURVE",
"408 596 OFFCURVE",
"417 593 CURVE SMOOTH",
"447 582 OFFCURVE",
"473 565 OFFCURVE",
"490 550 CURVE SMOOTH",
"506 536 OFFCURVE",
"515 540 OFFCURVE",
"524 551 CURVE SMOOTH",
"590 639 LINE SMOOTH",
"599 651 OFFCURVE",
"596 662 OFFCURVE",
"585 668 CURVE SMOOTH",
"540 696 OFFCURVE",
"486 717 OFFCURVE",
"420 735 CURVE SMOOTH",
"409 738 OFFCURVE",
"406 740 OFFCURVE",
"404 746 CURVE SMOOTH",
"397 764 OFFCURVE",
"391 767 OFFCURVE",
"382 767 CURVE SMOOTH",
"302 767 LINE SMOOTH",
"282 767 OFFCURVE",
"283 739 OFFCURVE",
"258 734 CURVE SMOOTH",
"113 703 OFFCURVE",
"39 619 OFFCURVE",
"39 515 CURVE SMOOTH",
"39 410 OFFCURVE",
"97 314 OFFCURVE",
"270 289 CURVE SMOOTH",
"281 286 OFFCURVE",
"282 283 OFFCURVE",
"282 272 CURVE SMOOTH",
"281 149 LINE SMOOTH",
"281 138 OFFCURVE",
"276 136 OFFCURVE",
"263 138 CURVE SMOOTH",
"214 150 OFFCURVE",
"171 176 OFFCURVE",
"138 207 CURVE SMOOTH",
"126 218 OFFCURVE",
"116 219 OFFCURVE",
"103 204 CURVE SMOOTH",
"26 117 LINE SMOOTH",
"15 105 OFFCURVE",
"20 92 OFFCURVE",
"40 78 CURVE SMOOTH",
"104 33 OFFCURVE",
"170 6 OFFCURVE",
"261 -1 CURVE SMOOTH",
"275 -1 OFFCURVE",
"279 -5 OFFCURVE",
"279 -20 CURVE SMOOTH",
"279 -93 LINE SMOOTH",
"279 -110 OFFCURVE",
"286 -119 OFFCURVE",
"306 -119 CURVE SMOOTH",
"373 -119 LINE SMOOTH",
"395 -119 OFFCURVE",
"404 -110 OFFCURVE",
"404 -90 CURVE SMOOTH",
"404 -22 LINE SMOOTH",
"404 -6 OFFCURVE",
"406 -3 OFFCURVE",
"425 -1 CURVE SMOOTH",
"567 17 OFFCURVE",
"656 109 OFFCURVE",
"656 234 CURVE"
);
},
{
closed = 1;
nodes = (
"282 482 OFFCURVE",
"276 476 OFFCURVE",
"262 478 CURVE SMOOTH",
"222 484 OFFCURVE",
"201 505 OFFCURVE",
"201 539 CURVE SMOOTH",
"201 564 OFFCURVE",
"220 588 OFFCURVE",
"268 600 CURVE SMOOTH",
"278 602 OFFCURVE",
"282 597 OFFCURVE",
"282 586 CURVE SMOOTH",
"282 499 LINE SMOOTH"
);
},
{
closed = 1;
nodes = (
"403 258 LINE SMOOTH",
"403 269 OFFCURVE",
"406 270 OFFCURVE",
"414 269 CURVE SMOOTH",
"470 261 OFFCURVE",
"492 234 OFFCURVE",
"492 200 CURVE SMOOTH",
"492 171 OFFCURVE",
"466 147 OFFCURVE",
"418 137 CURVE SMOOTH",
"409 135 OFFCURVE",
"403 137 OFFCURVE",
"403 144 CURVE SMOOTH"
);
}
);
};
layerId = "258ED206-D907-4350-8EBA-CBDDA1C16BF7";
name = Regular;
paths = (
{
closed = 1;
nodes = (
"655 337 OFFCURVE",
"581 418 OFFCURVE",
"482 442 CURVE SMOOTH",
"415 458 LINE SMOOTH",
"405 460 OFFCURVE",
"402 463 OFFCURVE",
"402 470 CURVE SMOOTH",
"402 585 LINE SMOOTH",
"402 591 OFFCURVE",
"407 596 OFFCURVE",
"416 593 CURVE SMOOTH",
"446 582 OFFCURVE",
"472 565 OFFCURVE",
"489 550 CURVE SMOOTH",
"505 536 OFFCURVE",
"514 540 OFFCURVE",
"523 551 CURVE SMOOTH",
"589 639 LINE SMOOTH",
"598 651 OFFCURVE",
"595 662 OFFCURVE",
"584 668 CURVE SMOOTH",
"539 696 OFFCURVE",
"485 717 OFFCURVE",
"419 735 CURVE SMOOTH",
"408 738 OFFCURVE",
"405 740 OFFCURVE",
"403 746 CURVE SMOOTH",
"396 764 OFFCURVE",
"390 767 OFFCURVE",
"381 767 CURVE SMOOTH",
"301 767 LINE SMOOTH",
"281 767 OFFCURVE",
"282 739 OFFCURVE",
"257 734 CURVE SMOOTH",
"112 703 OFFCURVE",
"38 619 OFFCURVE",
"38 515 CURVE SMOOTH",
"38 410 OFFCURVE",
"96 314 OFFCURVE",
"269 289 CURVE SMOOTH",
"280 286 OFFCURVE",
"281 283 OFFCURVE",
"281 272 CURVE SMOOTH",
"280 149 LINE SMOOTH",
"280 138 OFFCURVE",
"275 136 OFFCURVE",
"262 138 CURVE SMOOTH",
"213 150 OFFCURVE",
"170 176 OFFCURVE",
"137 207 CURVE SMOOTH",
"125 218 OFFCURVE",
"115 219 OFFCURVE",
"102 204 CURVE SMOOTH",
"25 117 LINE SMOOTH",
"14 105 OFFCURVE",
"19 92 OFFCURVE",
"39 78 CURVE SMOOTH",
"103 33 OFFCURVE",
"169 6 OFFCURVE",
"260 -1 CURVE SMOOTH",
"274 -1 OFFCURVE",
"278 -5 OFFCURVE",
"278 -20 CURVE SMOOTH",
"278 -93 LINE SMOOTH",
"278 -110 OFFCURVE",
"285 -119 OFFCURVE",
"305 -119 CURVE SMOOTH",
"372 -119 LINE SMOOTH",
"394 -119 OFFCURVE",
"403 -110 OFFCURVE",
"403 -90 CURVE SMOOTH",
"403 -22 LINE SMOOTH",
"403 -6 OFFCURVE",
"405 -3 OFFCURVE",
"424 -1 CURVE SMOOTH",
"566 17 OFFCURVE",
"655 109 OFFCURVE",
"655 234 CURVE"
);
},
{
closed = 1;
nodes = (
"281 482 OFFCURVE",
"275 476 OFFCURVE",
"261 478 CURVE SMOOTH",
"221 484 OFFCURVE",
"200 505 OFFCURVE",
"200 539 CURVE SMOOTH",
"200 564 OFFCURVE",
"219 588 OFFCURVE",
"267 600 CURVE SMOOTH",
"277 602 OFFCURVE",
"281 597 OFFCURVE",
"281 586 CURVE SMOOTH",
"281 499 LINE SMOOTH"
);
},
{
closed = 1;
nodes = (
"402 258 LINE SMOOTH",
"402 269 OFFCURVE",
"405 270 OFFCURVE",
"413 269 CURVE SMOOTH",
"469 261 OFFCURVE",
"491 234 OFFCURVE",
"491 200 CURVE SMOOTH",
"491 171 OFFCURVE",
"465 147 OFFCURVE",
"417 137 CURVE SMOOTH",
"408 135 OFFCURVE",
"402 137 OFFCURVE",
"402 144 CURVE SMOOTH"
);
}
);
width = 687;
}
);
unicode = 0024;
},
